<?xml version="1.0" encoding="utf-8"?>
<!-- Generator: Adobe Illustrator 17.1.0, SVG Export Plug-In . SVG Version: 6.00 Build 0)  -->
<!DOCTYPE svg PUBLIC "-//W3C//DTD SVG 1.1//EN" "http://www.w3.org/Graphics/SVG/1.1/DTD/svg11.dtd">
<svg version="1.1" id="Layer_1" xmlns="http://www.w3.org/2000/svg" xmlns:xlink="http://www.w3.org/1999/xlink" x="0px" y="0px"
	 viewBox="0 22 144 100" enable-background="new 0 22 144 100" xml:space="preserve">
<g>
	<path fill="#6A6A6A" d="M8.4,64c0.4-1.6,0.7-3.1,1.2-4.6c3-9.7,10.5-14.6,19.7-15.2c3.3-0.2,6.6,0,9.8,1.2c3.5,1.3,5,3.6,4.6,7.3
		c-0.2,1.8-0.9,3.5-1.3,5.2c-0.1,0.5-0.3,0.9-0.5,1.3c3.5,1,6.9,1.9,10.4,2.9c0.1-0.3,0.4-0.7,0.7-1.2c1.2-2.2,2.5-4.3,4.4-6
		c1-1,2.2-1.8,3.6-2.1c2.5-0.6,5,0.9,5.6,3.4c0.4,1.5-0.2,2.9-1.1,4.1c-2.4,3.1-5.5,4.5-9.4,4.4c-1.9-0.1-1.6-0.4-2.4,1.6
		c-1.2,3.2-2.4,6.4-3.5,9.6c-0.1,0.3-0.1,0.5-0.1,0.8c1.5-0.5,2.8-1,4.2-1.4c0.7-0.2,1.4-0.3,2.2-0.3c2.2,0,3.3,0.9,4,3
		c0.1,0.3,0.2,0.5,0.4,1.1c1.6-2.3,3.6-4,3.3-6.9c-0.1-1,0.2-2,1.1-2.6c0.6-0.4,1.2-0.4,1.8,0c0.6,0.4,0.3,1,0.1,1.4
		c-0.8,1.7,0.1,2.5,1.7,2.6c0.6,0.1,1.2,0,1.7,0.1c0.8,0.1,1.2,0.6,1,1.4c-0.1,0.6-0.4,1.2-0.7,1.8c-0.9,2.5-1.9,5-2.7,7.5
		c-0.3,1.1-0.3,2.4-0.3,3.6c0,0.8,0.1,1.6,1,1.9c0.8,0.3,1.4-0.3,1.9-0.8c0.7-0.7,1.4-1.5,2-2.3c2.2-2.9,4-6.1,5.5-9.5
		c0.6-1.4,1.2-2.7,1.9-4.1c0.2-0.4,0.3-0.7,0.6-1c0.5-0.7,1.3-0.9,2.1-0.5c0.7,0.4,0.9,0.9,0.6,1.9c-0.6,1.6-1.2,3.1-1.8,4.6
		c-0.7,2.2-1.3,4.4-1.9,6.6c-0.2,0.7-0.2,1.6-0.1,2.3c0.2,1.2,1,1.6,2,0.9c0.9-0.6,1.7-1.3,2.4-2.1c0.3-0.3,0.4-1,0.4-1.5
		c0.1-3,0.7-5.8,2-8.4c0.5-1,1.2-2,1.9-2.9c2-2.5,4.8-3.2,7.9-2.2c0.2,0.1,0.5,0.2,0.8,0.3c0.3-0.9,0.6-1.7,0.9-2.5
		c1.2-2.9,2.4-5.8,3.6-8.8c0.2-0.4,0.4-0.8,0.6-1.1c0.9-1.4,1.1-1.5,2.8-0.6c-0.4,1.2-0.7,2.4-1.1,3.7c-1.5,5.3-3,10.6-4.4,15.9
		c-0.5,1.7-0.6,3.5-0.8,5.3c-0.1,0.4,0,0.9,0,1.3c0.1,1.2,0.6,1.8,1.3,1.8c0.9,0,2-1.1,2-2.1c0.1-3.3,0.7-6.5,2.2-9.4
		c0.7-1.5,1.7-2.8,3-3.9c1.9-1.5,4-1.7,6.2-1c0.4,0.1,0.8,0.3,1.3,0.4c0.2-0.3,0.3-0.5,0.5-0.7c0.4-0.7,0.9-0.7,1.6-0.5
		c1.8,0.5,1.9,0.8,1.5,2.6c-0.7,3.3-1.4,6.7-2,10c-0.1,0.8,0,1.8,0.2,2.6c0.2,1,0.9,1.2,1.8,0.8c1.3-0.7,2.2-1.8,2.7-3.2
		c1.7-5.4,3.8-10.6,4.7-16.2c0.3-1.9,0.7-3.8,0.2-5.8c-0.7-3.3-2.8-5.2-6.2-5.4c-1.5-0.1-3.1,0-4.7,0.2c-2.2,0.2-4.5,0.4-6.7-0.2
		c-2-0.5-3.5-1.5-3.7-3.8c0-0.3-0.4-0.7-0.7-0.7c-3.1-0.5-5.8-1.9-8.5-3.4c-0.9-0.5-1.9-0.8-2.9-1c-1.4-0.3-2.5,0.3-3,1.2
		c-0.6,1.1-0.3,2.5,0.7,3.5c0.3,0.3,0.6,0.7,0.9,1v0.1c-1.7-0.2-3.1-1.8-3-3.7c0-1.9,1.5-3.5,3.4-3.5c1.5-0.1,2.9,0.4,4.2,1.1
		c1.5,0.8,3,1.6,4.5,2.3c1.1,0.5,2.3,0.7,3.5,1.1c0.7,0.2,1.1,0,1.4-0.8s0.8-1.7,1.4-2.4c0.9-1.2,2.1-1.6,3.6-1.5s2.2,1.1,1.6,2.5
		c-0.8,2-2.4,3.3-4.6,3.6c-0.4,0.1-0.9,0.1-1.3,0.1c-0.2,1.3,0.5,2.2,1.5,2.6c0.9,0.4,1.9,0.7,2.9,0.7c2.3,0.1,4.6-0.1,6.9-0.2
		c2.6-0.1,5.3-0.1,7.5,1.7c2.4,1.9,3.5,4.3,3.7,7.3c0.4,5.5-1.3,10.6-3,15.7c-0.8,2.3-1.6,4.6-2.3,6.9c-0.3,0.9-0.7,1.3-1.6,1.2
		c-0.7-0.1-1.6,0.3-2.2-0.4c-0.1-0.1-0.4,0-0.6,0.1c-2.9,1.3-4.9,0.4-5.9-2.6c-0.1-0.3-0.2-0.6-0.3-1.1c-0.4,0.5-0.7,0.9-1.1,1.3
		c-1,1-1.9,2-3,2.8c-2.2,1.6-3.8,1.5-6-0.2c-1.4,1-2.9,2-4.8,1.3c-1.8-0.7-2.2-2.4-2.8-4.1c-0.6,0.7-1.1,1.4-1.7,2
		c-0.9,0.8-1.8,1.7-2.8,2.4c-2.1,1.4-3.6,1.2-5.9-0.7c-0.5,0.4-0.9,0.9-1.4,1.4c-0.7,0.6-1.3,1.1-2.1,1.6c-2,1.2-3.7,0.5-4.1-1.8
		c-0.3-1.4-0.3-2.9-0.4-4.5c-0.5,0.7-0.9,1.4-1.4,2.1c-1,1.3-2,2.8-3.2,3.9c-0.7,0.7-1.8,1.3-2.7,1.6c-1.8,0.5-3.2-0.3-3.8-2.1
		c-0.6-1.6-0.6-3.3-0.3-5c0.4-2.5,1.3-4.9,2.5-7.1c0.2-0.5,0.5-0.9,0.8-1.5c-1.1-0.2-2-0.4-3-0.6c-0.9,1.3-1.7,2.7-2.8,3.9
		c-1.1,1.1-1.6,2.2-1.7,3.8c-0.3,3.5-2.3,5.9-5.3,7.6c-3.2,1.8-6.5,3-10.1,3.5c-0.8,0.1-1.2,0.5-1.6,1.1c-0.6,1-1.4,1.9-2.2,2.7
		c-0.8,0.8-1.9,1.1-3.1,1c-1.4-0.1-2.3-0.9-2.5-2c-0.3-1.4,0.2-2.6,1.5-3.2c0.8-0.4,1.8-0.6,2.7-0.7c1-0.1,1.4-0.5,1.7-1.4
		c1.6-4.8,3.2-9.7,5-14.5c1.5-4.1,3.2-8.1,4.8-12.2c0.1-0.2,0.1-0.4,0.2-0.7c-1.1-0.4-2.1-0.9-3.2-1.2c-2-0.5-4-0.9-6-1.4
		c-0.9-0.2-1.4,0.1-2,0.8c-2.1,2.6-4.6,4.9-7.9,6c-1.4,0.5-2.9,0.8-4.4,0.8c-1.8,0.1-2.4-1.1-1.6-2.7c0.9-1.9,2.5-3.3,4.3-4.3
		c2.5-1.4,5.1-2.2,8-2.1c1.2,0,1.8-0.4,2.1-1.5c0.4-1.5,1-3,1.3-4.6c0.5-2.7-0.6-4.7-2.8-6.3c-1.9-1.3-4.1-1.7-6.2-1.8
		c-4.9-0.3-9.5,0.6-13.8,3c-3,1.7-5,4.3-6.7,7.2c-2,3.6-3.2,7.4-3.4,11.5c-0.2,4.1,0.7,7.9,3.4,11.2c1.2,1.5,2.7,2.5,4.7,2.6
		c0.6,0,1.3,0.4,1.8,0.9c0.6,0.5,0.3,1.2-0.4,1.3c-0.6,0.1-1.3-0.1-1.8-0.3c-4-1.7-6.5-4.7-7.7-8.8c-0.3-1-0.5-2.1-0.8-3.1
		C8.4,68.4,8.4,66.2,8.4,64z M44.5,92.2c4.6,0.4,10-3,11.5-7.1c0.7-1.8,0.9-3.7,0.2-5.6c-0.9-2.3-2.9-3.1-5-1.9
		c-1.3,0.8-2.3,1.8-2.8,3.4c-1,3.1-2.1,6.1-3.2,9.2C44.9,90.9,44.7,91.6,44.5,92.2z M88.4,82.5c0,0.3,0,0.7,0.1,1
		c0.2,0.8,0.2,1.9,1.2,2.2c0.9,0.2,1.5-0.5,2.1-1.1c3.1-2.9,3.8-6.8,4.4-10.7c0.3-1.8-0.9-2.6-2.6-1.8c-1.2,0.6-2.2,1.5-2.9,2.6
		C89.2,77.1,88.6,79.7,88.4,82.5z M106.1,81.3c0,0.6,0,1.3,0.2,1.9c0.4,1.7,1.4,2.1,2.7,1c1.3-1.1,2.4-2.3,3-3.9
		c0.8-2.3,1.4-4.7,2-7.1c0.4-1.8-0.9-2.8-2.5-1.9c-1,0.5-2,1.3-2.6,2.2C107,75.7,106.3,78.4,106.1,81.3z M55,63.3
		c0.2,0.1,0.4,0.2,0.5,0.2c3.5,0.7,8.2-1.8,9.5-5.2c0.1-0.3,0.2-0.5,0.3-0.8c0.3-1.8-1.3-3.3-3-2.7c-0.5,0.2-1,0.4-1.4,0.8
		C58.3,57.7,56.6,60.4,55,63.3z M39.3,60.3c-1.4,0.2-2.5,0.3-3.7,0.5c-2.4,0.5-4.6,1.3-6.3,3.1c-0.6,0.6-1.2,1.2-1.1,2.1
		C31,67.2,37.5,63.9,39.3,60.3z M106,49.1c1.7,0.1,2.9-0.6,3.9-1.6c0.5-0.5,0.7-1.2,0.2-1.8s-1.1-0.7-1.9-0.1
		C106.9,46.4,106.4,47.6,106,49.1z M40.6,93.3c-1.5-0.1-2.4,0.2-3.3,0.8c-0.6,0.4-1,0.9-0.8,1.6c0.1,0.4,0.5,0.9,0.9,1
		c0.7,0.3,1.3-0.1,1.6-0.6C39.5,95.3,40,94.5,40.6,93.3z"/>
	<path fill="#6A6A6A" d="M56.2,94.4c0,2,0,4,0,6.1c-0.6-0.5-0.6-0.5-0.8-3c-0.3,0.5-0.5,0.8-0.8,1.4c-0.3-0.6-0.5-1-0.8-1.5
		c-0.1,0-0.2,0-0.2,0c0,1,0,2,0,3c-0.1,0-0.2,0.1-0.3,0.1c-0.2-0.2-0.4-0.4-0.4-0.5c0-1.6,0-3.3,0-4.9c0-0.2,0.3-0.6,0.4-0.6
		c0.2,0,0.5,0.2,0.7,0.4c0.3,0.5,0.4,1.1,0.6,1.6c0.5-0.8,1-1.4,1.4-2.1C56.1,94.4,56.2,94.4,56.2,94.4z"/>
	<path fill="#6A6A6A" d="M92.2,100.5c-0.6-0.9-0.7-4.5-0.2-6.1c0.9,0,0.8,0.8,1.1,1.3c0.2,0.5,0.4,1,0.6,1.5c0.1,0,0.2,0,0.3,0
		c0-0.9,0-1.8,0-2.9c0.4,0.2,0.7,0.3,0.7,0.4c0.2,1.9,0.1,3.8,0.1,5.8c-1.1,0-1.1-0.8-1.3-1.3c-0.3-0.6-0.4-1.2-0.7-1.9
		C92.3,98.4,93,99.5,92.2,100.5z"/>
	<path fill="#6A6A6A" d="M66.2,94.4c0.1,0.2,0.3,0.4,0.3,0.6c0,1.3,0.1,2.5,0,3.8c-0.1,1.1-0.7,1.7-1.4,1.7c-0.8,0-1.4-0.7-1.4-1.8
		c0-1.1,0-2.2,0-3.3c0-0.3,0.1-0.6,0.2-0.9c0.1,0,0.2,0,0.3,0c0.1,0.4,0.3,0.7,0.3,1.1c0,1.1,0,2.2,0,3.3c0,0.4,0,1,0.6,1
		s0.7-0.5,0.7-0.9c0-1.1,0-2.1,0-3.2c0-0.4,0.1-0.8,0.2-1.2C66,94.5,66.1,94.5,66.2,94.4z"/>
	<path fill="#6A6A6A" d="M104.8,97.1c0,0.8,0.1,1.5,0,2.2c0,0.4-0.2,0.9-0.5,1.1c-0.4,0.1-0.9,0.1-1.4-0.1c-0.3-0.1-0.6-0.5-0.7-0.9
		c-0.5-1.3-0.6-2.7,0-4c0.2-0.5,0.8-0.9,1.3-1.1s1-0.1,1.2,0.8c-1.1-0.1-1.9,0.3-1.9,1.4c-0.1,1.1-0.3,2.3,0.9,3.1
		c0.5-1.3,0.5-1.3-0.6-2.4C103.7,97.2,104.2,97.2,104.8,97.1z"/>
	<path fill="#6A6A6A" d="M73.5,99.7c0.8-0.1,1.3-0.2,1.8-0.3c-0.2-0.5-0.3-1.1-0.5-1.5c-0.3-0.5-0.7-0.9-0.9-1.5
		c-0.3-0.6-0.2-1.3,0.3-1.7c0.4-0.3,1-0.4,1.5-0.4c0.2,0,0.4,0.4,0.6,0.6c-0.2,0.2-0.2,0.3-0.3,0.3c-0.4,0.1-0.8,0.2-1.2,0.3
		c0.1,0.4,0.2,0.8,0.4,1.2c0.3,0.6,0.9,1.1,1.1,1.7c0.1,0.5,0,1.3-0.3,1.7c-0.4,0.6-1.1,0.5-1.7,0.3C73.9,100.4,73.8,100,73.5,99.7z
		"/>
	<path fill="#6A6A6A" d="M114.2,95.1c-0.3,0-0.4,0-0.6,0.1c-1,0-1.2,0.2-0.7,1c0.3,0.5,0.7,0.9,1,1.5c0.2,0.6,0.4,1.2,0.4,1.8
		c0,0.6-0.5,1-1.2,1.1c-0.6,0-1.2,0-1.2-0.8c0.6-0.2,1.1-0.3,1.6-0.4c-0.2-0.6-0.4-1.1-0.7-1.7c-0.3-0.6-0.7-1.2-0.9-1.8
		c-0.2-0.7,0.3-1.4,1-1.6C113.5,94.1,113.8,94.3,114.2,95.1z"/>
	<path fill="#6A6A6A" d="M83.6,66.9c-0.8,0-1.3-0.5-1.2-1.3c0-1,1.1-1.8,2.1-1.8c0.7,0.1,1.1,0.5,1.1,1.3
		C85.5,66.1,84.6,66.9,83.6,66.9z"/>
	<path fill="#6A6A6A" d="M84.5,97.6c0,0.7,0.1,1.5,0,2.2c0,0.3-0.4,0.5-0.6,0.8c-0.2-0.2-0.5-0.5-0.5-0.7c0-1.7,0-3.3,0-5
		c0-0.2,0.4-0.4,0.6-0.7c0.2,0.2,0.5,0.5,0.5,0.7C84.5,95.8,84.5,96.7,84.5,97.6z"/>
</g>
</svg>
