<?xml version="1.0" encoding="utf-8"?>
<!-- Generator: Adobe Illustrator 17.1.0, SVG Export Plug-In . SVG Version: 6.00 Build 0)  -->
<!DOCTYPE svg PUBLIC "-//W3C//DTD SVG 1.1//EN" "http://www.w3.org/Graphics/SVG/1.1/DTD/svg11.dtd">
<svg version="1.1" id="Layer_1" xmlns="http://www.w3.org/2000/svg" xmlns:xlink="http://www.w3.org/1999/xlink" x="0px" y="0px"
	 viewBox="0 22 144 100" enable-background="new 0 22 144 100" xml:space="preserve">
<g>
	<path fill="#6A6A6A" d="M20.4,65.3c2.5,0.8,4.3,2.4,4.9,5c0.8,3.1-0.7,6.6-3.5,8.1c-3.5,1.9-7.8-0.3-8.6-4.4s1.1-7.2,5.4-8.7
		C19.2,65.3,19.8,65.3,20.4,65.3z M15.2,72.1c0.4,1.5,0.6,3,1.2,4.4c1.1,2.3,3.9,2.5,5.4,0.5c1.8-2.4,1.8-6.8,0.1-9.3
		c-1.5-2.2-4-2.1-5.5,0.1C15.7,69.1,15.4,70.5,15.2,72.1z"/>
	<path fill="#6A6A6A" d="M7.9,65.3c0.6,0.3,1.2,0.5,1.7,0.8c0.4,0.2,0.8,0.3,1.2-0.1c0.4-0.5,0.7-0.2,0.7,0.3c0.1,1,0.2,2.1,0.2,3.1
		c0,0.2-0.1,0.3-0.2,0.5c-0.2-0.1-0.4-0.2-0.5-0.4c-0.3-0.5-0.5-1.1-0.9-1.5c-1.8-2.6-5-2.4-6.3,0.6c-1,2.3-1.1,4.6,0,6.9
		c0.5,1.1,1.3,1.9,2.3,2.4c1.5,0.7,3,0.4,4.2-1c0.3-0.4,0.6-0.8,0.9-1.2c0.1-0.1,0.4-0.2,0.6-0.3c0,0.2,0.1,0.5,0,0.7
		c-1.1,2.5-4.2,3.8-6.9,2.8c-2.8-1-4.5-3.7-4.3-6.9c0.2-3.5,2-5.6,5.4-6.6C6.8,65.3,7.4,65.3,7.9,65.3z"/>
	<path fill="#6A6A6A" d="M73.3,65.6c1.1,0,2.2-0.1,3.3,0c2.2,0.2,3.5,1.8,3.2,3.8c-0.2,1.3-1,2-2.1,2.4c-0.6,0.2-0.6,0.4-0.1,0.7
		c1,0.6,1.4,1.5,1.6,2.6c0.3,1.4,0.5,2.9,2.3,3.3c0.1,0,0.2,0.2,0.2,0.2c-0.1,0.1-0.2,0.3-0.3,0.3c-1,0-2,0.1-2.9-0.2
		c-0.4-0.1-0.8-0.9-1-1.5c-0.3-1-0.4-2-0.6-3c-0.2-0.8-0.7-1.4-1.5-1.6c-1.6-0.4-2.1-0.1-2.1,1.6c0,0.8,0,1.6,0.1,2.4
		c0,0.9,0.2,1.7,1.3,1.8c0.1,0,0.2,0.2,0.3,0.4c-0.1,0.1-0.2,0.2-0.4,0.2c-1.5,0-3,0-4.4,0c-0.1,0-0.3-0.2-0.4-0.3
		c0.1-0.1,0.2-0.2,0.3-0.2c1.1-0.1,1.3-0.9,1.3-1.8c0-2.9,0-5.7,0-8.6c0-0.8-0.2-1.5-1.1-1.7c-0.2,0-0.3-0.3-0.4-0.5
		c0.2-0.1,0.3-0.2,0.5-0.2C71.2,65.6,72.3,65.6,73.3,65.6L73.3,65.6z M73.1,69.1C73,69.1,73,69.1,73.1,69.1c0,0.6-0.1,1.3,0,1.9
		c0,0.2,0.3,0.6,0.5,0.6c1.2,0,2.4,0,3.3-0.9c0.9-0.8,1.1-2.2,0.5-3.2c-0.6-1.1-2-1.6-3.5-1.2c-1.3,0.3-0.6,1.5-0.8,2.2
		C73,68.6,73.1,68.9,73.1,69.1z"/>
	<path fill="#6A6A6A" d="M87.3,78.8c-1.5,0-3.1,0-4.6,0c-0.2,0-0.3-0.2-0.5-0.3c0.1-0.1,0.3-0.3,0.4-0.3c1-0.1,1.3-0.8,1.3-1.7
		c0-3,0-5.9,0-8.9c0-0.7-0.3-1.1-1-1.3c-0.2,0-0.3-0.3-0.4-0.4c0.1-0.1,0.3-0.2,0.4-0.2c2.9,0,5.7,0,8.6,0.1c0.6,0,0.8,0.3,0.9,0.8
		c0,0.1,0.1,0.3,0.1,0.4c0.1,0.6,0.1,1.3,0.2,1.9c-0.4-0.4-0.9-0.8-1.3-1.2c-1-1-3.7-1.6-5-1c-0.2,0.1-0.5,0.5-0.5,0.8
		c-0.1,1.2-0.1,2.4-0.1,3.6c0,0.5,0.3,0.6,0.7,0.7c1.2,0,2.1-0.3,2.5-1.6c0.1-0.2,0.3-0.3,0.5-0.5c0.1,0.2,0.2,0.4,0.2,0.6
		c0,1.2,0,2.5,0,3.7c0,0.2-0.2,0.4-0.2,0.6c-0.1-0.2-0.3-0.3-0.4-0.5c-0.3-1.2-1.2-1.6-2.3-1.6c-0.6,0-0.9,0.1-0.9,0.8
		c0,1.1,0,2.3,0.1,3.4c0.1,1.2,0.5,1.6,1.8,1.7c2.1,0.2,4.1-0.2,5.1-2.4c0.1-0.1,0.3-0.2,0.4-0.3c0.1,0.2,0.1,0.3,0.2,0.5
		c0,0.1,0,0.2,0,0.3C93,79,93,79,90.4,79c-1,0-2.1,0-3.1,0C87.3,78.9,87.3,78.9,87.3,78.8z"/>
	<path fill="#6A6A6A" d="M28.4,71.5c0-1.2,0-2.4,0-3.6c0-0.8-0.2-1.6-1.2-1.8c-0.1,0-0.2-0.2-0.3-0.4c0.2-0.1,0.3-0.2,0.5-0.2
		c1.4,0,2.8,0,4.2,0c0.2,0,0.4,0.2,0.6,0.3c-0.1,0.1-0.3,0.3-0.4,0.3c-0.9,0.3-1.2,0.9-1.2,1.7c0,2.5-0.1,4.9,0,7.4
		c0.1,1.6,1.2,2.6,2.8,2.7c0.4,0,0.8,0,1.2,0c1.7-0.1,2.8-1,2.9-2.6c0.2-2.5,0.1-4.9,0.1-7.4c0-0.9-0.3-1.7-1.4-1.8
		c-0.1,0-0.2-0.2-0.4-0.3c0.2-0.1,0.3-0.2,0.5-0.2c1.1,0,2.2,0,3.3,0c0.2,0,0.3,0.1,0.5,0.2c-0.1,0.1-0.2,0.3-0.3,0.4
		c-0.9,0.2-1.1,1-1.1,1.7c-0.1,1.5-0.1,3-0.2,4.4c-0.1,1-0.1,2.1-0.2,3.1c-0.2,1.8-1.2,2.9-2.9,3.3c-1.5,0.4-3,0.4-4.5-0.1
		c-1.2-0.5-2.1-1.3-2.2-2.7C28.5,74.5,28.5,73,28.4,71.5L28.4,71.5z"/>
	<path fill="#6A6A6A" d="M56.6,71.5c0-1.1,0-2.3,0-3.4c0-0.9-0.1-1.8-1.3-2c-0.1,0-0.2-0.2-0.3-0.3c0.1-0.1,0.2-0.2,0.3-0.2
		c1.5,0,3.1,0,4.6,0c0.1,0,0.2,0.1,0.3,0.2c-0.1,0.1-0.1,0.3-0.2,0.3c-1.2,0.2-1.3,1.2-1.4,2.2c0,2.3,0,4.6,0.1,7
		c0.1,1.6,1.1,2.6,2.8,2.7c2.8,0.3,4.2-0.8,4.3-3.7c0.1-2,0.1-3.9,0-5.9c0-1-0.2-2-1.5-2.2c-0.1,0-0.2-0.2-0.3-0.3
		c0.1-0.1,0.2-0.2,0.3-0.2c1.2,0,2.4,0,3.6,0c0.1,0,0.2,0.2,0.3,0.2c-0.1,0.1-0.2,0.3-0.3,0.3c-1.3,0.4-1.2,1.4-1.2,2.4
		c-0.1,2.2-0.1,4.3-0.3,6.5c-0.2,2.4-1.6,3.8-4,3.9c-1.1,0-2.2,0-3.2-0.3c-1.4-0.3-2.3-1.3-2.4-2.8c-0.1-0.7-0.1-1.5-0.1-2.2
		C56.6,72.9,56.6,72.2,56.6,71.5L56.6,71.5z"/>
	<path fill="#6A6A6A" d="M47.6,65.8c1.7,0,3.5,0,5.2,0c0.8,0,1.2,0.3,1.2,1.1c0,0.7-0.1,1.3-0.1,2c-0.4-0.4-0.9-0.8-1.3-1.3
		c-1-1.1-2.3-1.1-3.6-1c-0.2,0-0.4,0.4-0.5,0.6c-0.1,0.6-0.1,1.2-0.1,1.8c0,2.5,0.1,4.9,0.2,7.4c0.1,1.4,0.2,1.5,1.6,1.9
		c0.2,0.1,0.4,0.2,0.5,0.3c-0.2,0.1-0.3,0.2-0.5,0.2c-1.7,0-3.5,0-5.2,0c-0.2,0-0.3-0.2-0.5-0.2c0.1-0.1,0.3-0.3,0.4-0.3
		c1.3-0.2,1.6-1,1.6-2.1c0-2.9-0.1-5.8-0.1-8.7c0-0.7-0.2-1-1-0.9c-1.6,0-3,0.5-3.8,2.1c-0.1,0.2-0.3,0.3-0.5,0.4
		c-0.1-0.2-0.2-0.4-0.2-0.7c0-2.5,0.1-2.6,2.7-2.5C45,65.8,46.3,65.8,47.6,65.8L47.6,65.8z"/>
	<path fill="#6A6A6A" d="M136,73.4c0,1.2,0,2.4,0,3.5c0,0.3,0,0.6,0.1,0.9s0.2,0.6,0.4,1c-0.5-0.1-1-0.1-1.5-0.2
		c-0.2,0-0.5-0.2-0.7-0.1c-1.4,0.6-2.4,0.4-3.3-0.8c-1.1-1.5-0.6-4,0.9-5c0.7-0.5,1.6-0.7,2.3-0.1c0.6,0.4,0.7,0.2,0.7-0.4
		c-0.1-1.1-0.2-2.2-0.3-3.3c0-0.1,0.1-0.3,0.1-0.4c0.9-0.3,1.4,0.1,1.4,1C136.1,70.8,136.1,72.1,136,73.4
		C136.1,73.4,136,73.4,136,73.4z M135,75.4c-0.1-0.7-0.1-1.3-0.4-1.8c-0.4-1-1.7-1.1-2.3-0.2c-0.6,0.8-0.7,3.3,0,4.1
		c0.3,0.3,0.8,0.7,1.2,0.6c0.4,0,0.9-0.4,1-0.8C134.8,76.8,134.8,76.1,135,75.4z"/>
	<path fill="#6A6A6A" d="M143.9,75.5c0,1.9-1.6,3.5-3.3,3.5s-3.1-1.6-3.1-3.5c0-2,1.4-3.4,3.3-3.4C142.6,72.2,144,73.7,143.9,75.5z
		 M142.7,75.7c-0.2-0.7-0.4-1.4-0.7-2c-0.6-1.1-1.9-1.1-2.4,0.1c-0.3,0.6-0.5,1.4-0.4,2.1c0,1.4,0.9,2.5,1.9,2.4
		C141.9,78.2,142.6,77.1,142.7,75.7z"/>
	<path fill="#6A6A6A" d="M129,75.5c0,0.5,0,1.1,0,1.6c0,0.3,0.1,0.6,0.2,0.9c0.1,0.3,0.4,0.5,0.6,0.8c-0.6,0-1.3,0.2-1.6,0
		c-0.5-0.3-0.7-0.3-1.1-0.1c-1,0.5-2.1,0.3-2.5-0.5c-0.5-0.9,0-2,1-2.6c0.5-0.2,1-0.4,1.5-0.7c0.6-0.3,0.9-0.7,0.6-1.3
		c-0.1-0.3-0.5-0.7-0.8-0.8c-0.6-0.2-0.8,0.3-1,0.8c-0.1,0.3-0.5,0.5-0.7,0.8c0,0-0.4-0.2-0.4-0.3c0-0.4,0-0.9,0.3-1.2
		c0.8-0.8,1.9-0.8,2.9-0.5c1,0.2,1.1,1,1,1.9C129,74.7,129,75.1,129,75.5z M127.8,76.6c0-1.2-0.1-1.3-0.9-0.8
		c-0.4,0.3-0.8,0.6-1.1,1c-0.3,0.5-0.3,1.2,0.3,1.4c0.3,0.1,1-0.1,1.2-0.4C127.7,77.3,127.8,76.8,127.8,76.6z"/>
	<path fill="#6A6A6A" d="M106.6,75.4c0,1.9-1.4,3.5-3.1,3.5s-3.1-1.4-3.1-3.2c0-1.9,1.4-3.5,3.1-3.5
		C105.3,72.2,106.6,73.6,106.6,75.4z M105.4,75.6c-0.2-0.7-0.4-1.4-0.8-2c-0.7-1.1-1.9-1-2.5,0.1c-0.7,1.2-0.7,2.5,0,3.8
		c0.7,1.1,1.9,1.1,2.6,0C105.1,76.9,105.2,76.3,105.4,75.6z"/>
	<path fill="#6A6A6A" d="M111.3,75.6c0-1.9,1.4-3.4,3.2-3.4c1.7,0,3.1,1.5,3,3.3c0,1.8-1.5,3.4-3.2,3.4
		C112.7,78.9,111.3,77.4,111.3,75.6z M112.6,75.5c0.2,0.6,0.3,1.2,0.5,1.8c0.3,0.6,0.7,1.2,1.5,1c0.5-0.1,1.1-0.5,1.3-1
		c0.7-1.3,0.6-2.6-0.2-3.8c-0.7-1-1.8-1-2.4,0.1C112.9,74.2,112.8,74.9,112.6,75.5z"/>
	<path fill="#6A6A6A" d="M109.6,73.3c0,1.2,0,2.4,0,3.5c0,0.7-0.1,1.4,0.9,1.6c0.1,0,0.2,0.3,0.3,0.4c-0.2,0.1-0.3,0.3-0.5,0.3
		c-0.9,0-1.8,0-2.6,0c-0.1,0-0.3-0.2-0.4-0.3c0.1-0.1,0.2-0.4,0.3-0.4c0.9-0.1,0.9-0.8,0.9-1.4c0-2,0-3.9,0-5.9
		c0-0.4-0.1-0.9-0.3-1.3c-0.1-0.3-0.3-0.5-0.5-0.8c0.5-0.1,1-0.2,1.6-0.2c0.1,0,0.3,0.6,0.3,0.9C109.6,70.8,109.6,72,109.6,73.3
		L109.6,73.3z"/>
	<path fill="#6A6A6A" d="M95.8,75.4c0.1,0.5,0.2,1.2,0.5,1.8c0.5,1,1.1,1.2,2.2,0.8c0.2-0.1,0.4-0.1,0.6-0.1
		c-0.1,0.2-0.2,0.5-0.4,0.7c-0.9,0.7-2.2,0.5-3.1-0.2c-1.7-1.5-1.4-4.6,0.5-5.7c1.1-0.6,2.8-0.4,3.3,0.6c0.1,0.3,0,0.7,0,1.1
		c-0.3-0.1-0.8-0.1-0.9-0.3c-0.4-0.6-0.6-1.2-1.4-1s-1,0.9-1.1,1.6C95.9,74.7,95.9,75,95.8,75.4z"/>
	<path fill="#6A6A6A" d="M120.4,76.3c0.2,0.7,0.4,1.4,0.5,2.1l0.1,0.1c-0.1,0.1-0.1,0.3-0.2,0.3c-0.6,0-1.2,0-1.8-0.1
		c0,0,0-0.2,0-0.4c0.1-1.5,0.2-2.9,0.3-4.4c0-0.2-0.1-0.5-0.2-0.7c-0.1-0.3-0.3-0.5-0.4-0.8c0.6,0,1.3-0.1,1.6,0.2
		c0.4,0.4,0.4,0.4,0.9,0.1c0.3-0.3,0.8-0.5,1.2-0.5c0.6-0.1,1.1,0.5,1.1,1.1s-0.5,0.8-1,0.5c-1-0.7-1.6-0.4-1.8,0.8
		c0,0.1,0,0.3,0,0.4c0,0.4,0,0.8-0.1,1.2C120.5,76.3,120.4,76.3,120.4,76.3z"/>
</g>
</svg>
