<?xml version="1.0" encoding="utf-8"?>
<!-- Generator: Adobe Illustrator 17.1.0, SVG Export Plug-In . SVG Version: 6.00 Build 0)  -->
<!DOCTYPE svg PUBLIC "-//W3C//DTD SVG 1.1//EN" "http://www.w3.org/Graphics/SVG/1.1/DTD/svg11.dtd">
<svg version="1.1" id="Layer_1" xmlns="http://www.w3.org/2000/svg" xmlns:xlink="http://www.w3.org/1999/xlink" x="0px" y="0px"
	 viewBox="0 22 144 100" enable-background="new 0 22 144 100" xml:space="preserve">
<g>
	<path fill="#6A6A6A" d="M0,70.5c0.3-0.9,0.6-1.8,0.9-2.6c2.4-5.6,8.4-9.7,14.3-9.6c1.2,0,2.4,0.1,3.4,0.8c0.8,0.5,1.1,1.4,0.9,2.3
		c-0.3,0.7-1,1.1-2,1c-0.2-1.7-0.6-2.2-1.8-2.4c-0.9-0.1-1.8-0.1-2.6,0c-2.8,0.5-4.8,2.2-6.4,4.4c-1.8,2.5-2.8,5.2-2.4,8.4
		c0.2,1.9,1.3,3.1,3.2,3.5s3.7-0.1,5.1-1.3c2.9-2.4,4-5.7,3.3-9.4c-0.5-2.8-2.8-3.6-5.1-1.9C9,65.1,8.3,67,8.5,69.3
		c0.1,1.4,0.6,1.9,2,1.6c0,0,0.1,0,0.3,0.2c-0.1,0.3-0.2,0.6-0.4,0.8c-1.1,1.1-3.1,0.9-3.9-0.4c-0.9-1.3-0.7-2.7-0.3-4.1
		c1-4.1,6.8-8.3,11.5-5.1c2.8,3.4,2.1,7,0.2,10.4s-4.8,5.8-8.7,6.4c-1.3,0.2-2.7,0.2-4.1,0c-2.6-0.4-4.3-2-5-4.6
		C0,73.3,0,71.9,0,70.5z"/>
	<path fill="#6A6A6A" d="M144,75.2c-0.8,0.7-1.7,1.3-2.5,2c-0.3,0.2-0.6,0.6-0.7,0.9c-0.5,1.8-1.1,3.6-2.2,5.2
		c-0.9,1.4-2.1,2.4-3.8,2.5c-1.2,0.1-2.2-0.4-2.7-1.4c-0.6-1-0.6-2.2,0.2-3.1s1.9-1.7,2.9-2.4c0.5-0.4,1.1-0.7,1.7-0.9
		c0.8-0.3,1-0.8,1-1.3c-0.9,0.4-1.8,0.9-2.8,1.1c-1.1,0.2-1.6-0.4-2.1-1.8c-0.8,0.6-1.6,1.3-2.5,1.7c-1.3,0.4-1.7,0.2-2.6-1.1
		c-0.8,0.8-1.8,1.3-3,1.2c-1.5-0.1-2.5-0.9-2.7-2.3c-0.4-3.2,0.8-5.7,3.4-7.6c1.2-0.9,2.6-1,3.7-0.1c0.6-0.2,1.1-0.6,1.6-0.6
		c1.3,0.1,1.9,1,1.5,2.2c-0.5,1.4-1.2,2.8-1.8,4.2c-0.1,0.2-0.3,0.4-0.3,0.6c0,0.3,0.1,0.7,0.3,1c0.1,0.1,0.6,0,0.8-0.1
		c0.9-0.7,1.7-1.5,2-2.8c0.3-1.4,0.9-2.7,1.4-4c0.3-0.6,0.8-1.2,1.6-1.2c1.2,0,1.8,1.3,1.1,2.4c-0.9,1.4-1.1,3-1.4,4.6
		c0,0.3,0.2,0.7,0.3,1c0.3-0.2,0.7-0.3,0.9-0.6c0.7-0.7,1-1.7,1.3-2.7c0.4-1.3,0.9-2.6,1.5-3.8c0.2-0.4,0.7-0.7,1.1-0.9
		c0.9-0.4,1.8,0.2,2,1.2c0.2,1.3-0.2,2.6-1,3.6s-0.7,2.2-0.9,3.3c1-0.3,1.1-0.7,0.9-1.8c0.8-0.3,1.3,0.3,1.8,0.8
		C144,74.7,144,75,144,75.2z M128.8,69.6c-0.7-0.2-1.3-0.1-1.8,0.4c-1.1,1.1-1.6,2.5-1.6,4c0,0.7,0.3,1.2,1,1.2c0.6,0,1.2-0.3,1.3-1
		C128,72.7,128.4,71.2,128.8,69.6z M137.4,79.4c-0.1-0.1-0.3-0.2-0.4-0.3c-0.8,0.7-1.7,1.5-2.5,2.2c-0.3,0.3-0.5,0.9,0,1.3
		s0.9,0,1.2-0.3C136.2,81.3,136.8,80.3,137.4,79.4z"/>
	<path fill="#6A6A6A" d="M73.6,58.2c0.9,0.6,1.8,1.1,1.8,2.4c0,1.1-0.5,1.9-1.7,2.2c-1.5,0.4-2.8,0-4.2-0.5
		c-1.9-0.7-3.9-1.5-5.9-1.9s-4-0.1-5.8,1.1c-1.5,1-2.2,2.8-1.7,4.5c0.4,1.3,2.1,2.6,3.5,2.6c0.6-1.2,1.1-2.5,1.8-3.6
		c1-1.7,2.2-3.1,4.3-3.3c0.4,0,0.8,0,1.4,0.1c-2,2-2.7,4.4-3.5,6.8c1.7-0.3,2.2-1.1,1.6-2.6c-0.2-0.5,0.1-0.6,0.5-0.6
		c0.8-0.1,1.5,0.2,1.9,0.9c0.4,0.8,0.3,1.5-0.2,2.2c-0.9,1.1-2.2,1.5-3.5,1.8c-0.6,0.1-0.9,0.4-1,0.9C62,74,60.6,76.3,58.3,78
		c-2.4,1.7-5.1,2-7.9,1.4c-2.1-0.5-3.1-2.1-2.7-3.9c0.2-1.1,1.1-1.9,2.2-2.1c0.8-0.1,1.8,0.3,2.2,1.1c0.5,1,0.3,2-0.8,3.2
		c1,0.6,2.1,0.6,3,0.1c0.8-0.4,1.5-1,2.1-1.7c1.3-1.5,1.9-3.4,2.6-5.3c-1.3-0.4-2.5-0.7-3.7-1.2c-1.4-0.6-2.6-1.6-3-3.1
		c-0.6-2,0.1-4.3,1.9-5.7c1.8-1.4,3.9-2,6.1-2.2c2.8-0.3,5.5,0.3,8.2,0.7c0.8,0.1,1.6,0.2,2.4,0.1c1.2,0,1.2-0.2,0.8-1.2
		C72.3,58.2,73,58.2,73.6,58.2z"/>
	<path fill="#6A6A6A" d="M105.2,73.9c0.6-1.8,1.2-3.5,1.8-5.2c0.7-2.1,1.6-4.2,3.3-5.8c0.9-0.8,1.8-1.6,3.1-1.8c0.3,0,0.6,0,1,0
		c-0.7,1.4-1.3,2.5-1.8,3.8c-0.7,1.6-1.2,3.3-1.8,4.9c-0.7,1.8-1.4,3.6-2.1,5.4c3.6,1.4,7.5,0.1,8.8-4.3c0.7-2.6,0.5-5.2-0.8-7.5
		c-1.5-2.7-4-3.8-7-3.7c-2.1,0-4,0.6-5.5,2c-1.1,1-1.8,2.3-1.8,3.9c0,0.8,0.2,1.6,1,2.1c0.8,0.4,1.5,0.2,2.2-0.3
		c0.2-0.1,0.4-0.1,0.7-0.2c0.1,0.2,0.2,0.4,0.2,0.7c0,1.2-1,2.5-2.2,3c-1.4,0.5-3,0-4-1.1c-1.4-1.7-1.5-4.4-0.2-6.5
		c1.5-2.4,3.8-3.8,6.5-4.4c3.9-0.9,7.6-0.6,11,1.7c4.4,3,5.8,9.5,3.1,14c-1.5,2.4-3.7,3.6-6.5,3.9c-2.2,0.3-4.4-0.2-6.3-1.2
		c-0.5-0.3-0.8-0.2-1.3,0.2c-2.5,2.2-5.5,2.7-8.7,2c-2-0.4-3-1.9-2.6-3.6c0.3-1.5,1.5-2.2,2.8-2.6c2.1-0.6,4.2-0.3,6.3,0.4
		C104.5,73.7,104.7,73.8,105.2,73.9z M104,75.5c-1.5-0.6-3-1.1-4.6-0.6c-0.6,0.2-1.1,0.6-1.1,1.3c0.1,0.7,0.6,1,1.2,1.1
		C101.1,77.9,102.9,77.1,104,75.5z"/>
	<path fill="#6A6A6A" d="M73.4,67.7c0.6-0.2,1.1-0.6,1.6-0.5c1.4,0.1,2,1,1.5,2.5c-0.4,1.3-1.1,2.6-1.7,3.9
		c-0.1,0.2-0.3,0.3-0.3,0.5c0,0.4,0.1,0.7,0.1,1.1c0.3,0,0.7,0,0.9-0.2c1.6-1.2,2.2-2.8,2.6-4.7c0.6-3.4,1.9-6.6,3.7-9.6
		c0.4-0.7,1-1.3,1.7-1.9c0.6-0.5,1.4-0.8,2.3-0.4c0.8,0.5,1,1.3,0.9,2.1c-0.3,1.4-0.8,2.8-1.3,4.1c-0.4,0.9-1,1.7-1.5,2.6
		c2.4-0.6,2.9,1.1,3.5,2.7c0-0.3-0.1-0.6-0.1-1c0.6-0.2,1.1,0,1.4,0.5c0.4,0.6,0.2,1.2-0.3,1.4c-1.2,0.5-1.4,1.6-1.8,2.6
		c-0.7,1.6-1.8,2.9-3.4,3.7c-2.5,1.3-4.6,0.4-5.5-2.4c-0.4,0.5-0.7,1-1.1,1.3c-0.7,0.6-1.4,1.2-2.2,1.5c-1,0.4-1.7,0-2.3-1
		c-0.9,0.3-1.7,0.9-2.6,1c-1.9,0.3-3-0.7-3.2-2.5c-0.4-2.5,1.4-6.2,3.6-7.5C71.1,67,72.3,66.9,73.4,67.7z M85.4,71.8
		c-1.6-0.2-2.8-0.9-3-2.6c-1.3,1.2-1.8,2.7-1.4,4.4c0.2,1.2,1.1,1.6,2.2,1C84.3,74.1,84.9,73,85.4,71.8z M72.7,69.5
		c-0.4,0.1-0.8,0-1.2,0.2c-1.3,0.6-2.5,3.3-2.2,4.7c0.1,0.6,0.5,1.1,1.1,0.9c0.5-0.1,1.2-0.5,1.3-0.9C72.1,72.8,72.4,71.2,72.7,69.5
		z M84.6,62.8c-0.1-0.1-0.2-0.1-0.4-0.2c-0.6,1.2-1.1,2.4-1.7,3.6c0.1,0,0.2,0.1,0.2,0.1C83.4,65.2,84,64,84.6,62.8z M85.4,70.5
		c0.1-0.1,0.2-0.1,0.3-0.2c-0.2-0.3-0.4-0.5-0.6-0.8c0,0-0.2,0.2-0.3,0.2C84.9,70,85.1,70.2,85.4,70.5z"/>
	<path fill="#6A6A6A" d="M23.9,70.2c0.8-0.7,1.6-1.5,2.5-2.2c0.5-0.4,1.1-0.7,1.7-0.8c1-0.2,1.7,0.4,1.7,1.4
		c0.1,1.7-0.6,3.1-1.2,4.6c-0.2,0.5-0.5,1-0.6,1.6c-0.1,0.3,0,0.7,0.1,1.2c0.5-0.3,0.9-0.5,1.2-0.8c1-1,1.9-2,2.4-3.4
		c0.9-2.5,2.6-4.3,5.5-4.6c1.2-0.1,2.4,0.4,2.9,1.4c0.4,0.9,0.2,2.2-0.6,3c-1.2,1.4-2.9,1.7-4.6,1.9c-0.2,0-0.4,0-0.6,0.1
		c0.1,1.7,1.2,2.4,2.8,1.8c0.8-0.3,1.5-0.9,2.3-1.2c0.3-0.1,0.6-0.1,1-0.2c0,0.3,0,0.8-0.2,1c-1.2,1.5-2.8,2.6-4.8,2.8
		c-2.3,0.2-3.4-0.5-4.1-2.7c-0.6,0.6-1.2,1.2-1.9,1.8c-0.7,0.7-1.6,1-2.5,0.9c-1.2,0-1.9-0.8-2-2c-0.1-1.4,0.3-2.7,0.9-3.9
		c0.2-0.4,0.4-0.9,0.5-1.3c-0.1,0-0.1-0.1-0.2-0.1c-0.3,0.2-0.6,0.4-0.7,0.6c-0.8,1.2-1.5,2.3-2.2,3.5c-0.5,0.8-0.9,1.7-1.4,2.6
		c-0.4,0.6-1.1,0.8-1.8,0.6c-0.7-0.2-0.9-0.9-0.8-1.5c0-0.7,0.1-1.4,0.2-2c0.4-1.6,0.8-3.2,1.2-4.9c0.3-1.2,1-1.9,2.1-2.1
		c0.9-0.2,1.4,0.3,1.5,1.1c0,0.4,0,0.7,0,1.1C24,69.7,23.9,70,23.9,70.2z M34.1,72.3c0.8-0.2,1.6-0.3,2.2-0.7c0.4-0.3,0.8-1,0.9-1.5
		c0.1-0.7-0.4-1-1.1-0.8C34.8,69.8,34.3,70.8,34.1,72.3z"/>
</g>
</svg>
