<?xml version="1.0" encoding="utf-8"?>
<!-- Generator: Adobe Illustrator 17.1.0, SVG Export Plug-In . SVG Version: 6.00 Build 0)  -->
<!DOCTYPE svg PUBLIC "-//W3C//DTD SVG 1.1//EN" "http://www.w3.org/Graphics/SVG/1.1/DTD/svg11.dtd">
<svg version="1.1" id="martha" xmlns="http://www.w3.org/2000/svg" xmlns:xlink="http://www.w3.org/1999/xlink" x="0px" y="0px"
	 viewBox="0 22 144 100" enable-background="new 0 22 144 100" xml:space="preserve">
<g>
	<path fill="#6A6A6A" d="M121.2,55.4c0.8,0.2,0.9,1.3,0.7,2.2c-0.3,1.6-1,3.1-1.9,4.5c-1.4,2.2-2.8,4.4-4.8,6.2
		c-0.4,0.4-0.9,0.7-1.4,1.1c-0.3,0.3-0.6,0.6-0.6,1c-0.2,1.1-0.2,2.3,0.2,3.3c0.4,1,1.2,1.5,2.2,1.6c2.4,0.4,4.6-0.1,6.8-1.1
		c0.2-0.1,0.4-0.4,0.4-0.7c0.1-0.4,0.1-0.9,0.3-1.3c0.6-2,1.9-2.3,3.7-1.9c1,0.2,1.3,1.2,0.5,2c-0.7,0.7-1.5,1.3-2.3,2
		c-0.2,0.1-0.3,0.3-0.4,0.5c0.2,0.1,0.3,0.2,0.5,0.3c2,0.7,4,0.6,6,0.2c2.3-0.5,4.6-1,7-1.4c1.4-0.3,2.9-0.4,4.3,0.1
		c0.5,0.2,1,0.5,1.5,0.9c0.1,0.1,0.1,0.3,0.1,0.5c-0.1,0-0.3,0.1-0.4,0c-1.7-0.9-3.5-0.6-5.3-0.3c-3.4,0.5-6.7,1.1-10.1,1.6
		c-1.6,0.2-3.1,0-4.4-1.1c-0.2-0.1-0.6-0.1-0.8,0c-1.8,0.7-3.6,1.2-5.6,1.2c-2.9,0-4.9-1.8-5.3-4.6c-0.1-1.3-0.1-1.2-1.3-0.6
		c-3.1,1.7-6.2,3.5-9.4,5c-1.4,0.7-2.2,1.4-2.5,2.9c-0.4,2.2-1.1,4.3-1.6,6.4c0,0.2-0.2,0.3-0.3,0.4c-0.1-0.1-0.4-0.2-0.4-0.4
		c0-0.7-0.1-1.5,0.1-2.2c0.9-3.3,1.8-6.6,2.7-9.8c0.3-1.2,0.5-2.4,0.6-3.6c0.1-1-0.3-1.1-1.2-0.8c-1.1,0.4-2.1,0.8-3.2,1.2
		c-0.5,0.2-0.7,0.3-0.5,1c0.8,2.2-0.2,4.4-2.2,5.3c-1.4,0.7-2.3,0.1-2.2-1.4c0-0.8,0.3-1.6,0.4-2.5c0-0.2,0-0.3,0.1-0.5
		c-0.1,0.1-0.3,0.2-0.4,0.3c-1.8,1.5-3.6,3-5.4,4.4C85,77.6,84.5,77.8,84,78c-1.1,0.4-1.9,0-2.4-1.1c-0.1-0.3-0.2-0.5-0.3-0.8
		c-0.2-0.8-0.2-0.8-1.1-0.4c-1.4,0.7-2.9,1.6-4.5,1.5c-1.2,0-2.4-0.3-3.6-0.5c-0.7-0.1-1.4-0.2-2.1-0.2c-0.1,0-0.4,0.2-0.4,0.3
		c-0.8,3.4-1.5,6.8-2.2,10.2c-0.1,0.4,0,0.8-0.1,1.2c0,0.2-0.3,0.4-0.4,0.6c-0.2-0.2-0.4-0.4-0.4-0.6c0-1.1,0-2.1,0.2-3.1
		c0.8-3.8,1.7-7.6,2.6-11.4c0.1-0.2,0.1-0.5,0.1-0.7l0,0l0,0c-1.3,1.2-2.7,2-4.4,2.3c-0.6,0.1-1.3,0.1-1.8-0.1
		c-0.4-0.1-0.7-0.6-0.9-0.9c-0.1-0.2,0-0.6,0.1-0.9c0.2,0.2,0.4,0.3,0.6,0.5c0.7,0.8,1.6,0.9,2.8,0.6c2.4-0.7,3.8-2.4,4.6-4.7
		c0.1-0.3,0.2-0.7,0.4-1c0.1-0.1,0.3-0.2,0.5-0.3c0.1,0.1,0.2,0.3,0.1,0.4C71.2,70,71,71,70.7,72.1c0,0.2-0.1,0.3-0.1,0.5l0,0
		c0,0,0,0,0,0.1v-0.1c0-0.2,0.1-0.3,0.1-0.5c0.6-1.2,1.2-2.3,1.8-3.5c0.4-0.7,0.7-1.3,1.2-1.9c0.3-0.3,0.8-0.6,1.2-0.7
		c0.6-0.1,0.9,0.5,1.1,1c0.6,1.6,0.4,3.2-0.2,4.8c-0.5,1.5-1.5,2.7-2.6,3.8c-0.1,0.1-0.2,0.3-0.4,0.4c0.2,0.1,0.4,0.2,0.6,0.3
		c2.2,0.5,4.3,0,6.2-1.1c0.9-0.5,1.4-1.2,1.8-2.1c0.7-1.4,1.5-2.7,2.4-4c0.3-0.5,1-0.8,1.6-0.9c0.8-0.2,1.3,0.4,1,1.3
		c-0.4,1.4-1.2,2.4-2.2,3.4c-0.5,0.5-1.1,1-1.7,1.5c-0.3,0.3-0.5,0.5-0.4,0.9c0.2,1.8,1.2,2.4,2.7,1.4c1.4-0.9,2.7-2.1,4-3.2
		c1-0.9,1.9-1.8,2.9-2.8c0.1-0.1,0.3-0.3,0.5-0.4s0.4-0.2,0.7-0.2c0,0.2,0.1,0.5,0,0.7c-0.3,1-0.7,2-1,3c-0.2,0.6-0.3,1.1-0.4,1.7
		c-0.1,0.5,0.2,0.7,0.7,0.5c1.4-0.4,2-1.5,2.4-2.7c0.3-0.9,0.2-1.7-0.8-2.2c-0.2-0.1-0.3-0.4-0.4-0.5c0.2-0.1,0.4-0.2,0.6-0.3
		c1.3-0.5,2.7-1.1,4-1.6c0.6-0.2,1.2-0.5,1.9-0.7c0.8-0.2,1.2,0.2,1.2,1c0,0.5,0,1.1-0.1,1.6c0,0.1,0,0.3,0,0.4
		c0.1-0.1,0.2-0.2,0.3-0.3c0.4-0.5,0.7-1.1,1.2-1.6c0.5-0.6,1.2-0.9,2-0.7c0.8,0.1,1.4,0.8,1.3,1.7c-0.1,1-0.4,1.9-0.7,2.8
		c0,0.2-0.1,0.4-0.1,0.5c0.1-0.1,0.3-0.1,0.4-0.2c2-1.1,4.1-2.2,6.1-3.4c0.7-0.4,1-0.9,1.3-1.6c1.5-3.7,2.9-7.5,5.3-10.8
		c0.6-0.9,1.5-1.5,2.3-2.3C120.6,55.4,120.9,55.4,121.2,55.4z M114.1,67.8c0.2-0.1,0.4-0.3,0.6-0.4c2.5-2.3,4.3-5.1,5.6-8.2
		c0.3-0.6,0.4-1.3,0.5-2c0-0.2-0.1-0.4-0.1-0.7c-0.2,0.1-0.5,0.1-0.7,0.2c-0.4,0.4-0.9,0.8-1.2,1.2
		C116.9,61.1,115.2,64.3,114.1,67.8L114.1,67.8C114.1,67.9,114.1,67.8,114.1,67.8z M75.8,68.8c-0.1-0.4-0.1-0.9-0.3-1.5
		c-0.2-0.6-0.7-0.7-1.1-0.2c-0.3,0.3-0.6,0.7-0.8,1c-1,2.3-2,4.5-3.1,6.8c-0.2,0.4,0,0.5,0.3,0.5c0.8,0.2,1.5-0.1,2.1-0.6
		C74.7,73.3,75.6,71.3,75.8,68.8z M104.8,70.8c0.1-0.9-0.5-1.4-1.4-1c-0.5,0.2-0.9,0.6-1.3,1c-1.1,1.5-1.7,3.2-2.2,5
		c0,0.1,0.3,0.3,0.3,0.3C102.5,75.2,104.6,73.8,104.8,70.8z M85.7,69.2c-0.1,0-0.3-0.1-0.4-0.1c-0.4,0.3-0.9,0.5-1.2,0.9
		c-0.6,0.9-1.2,2-1.7,3c-0.1,0.1-0.1,0.3-0.1,0.4c0.1,0,0.3-0.1,0.4-0.1c1.3-0.9,2.2-2.1,2.9-3.5C85.6,69.6,85.6,69.4,85.7,69.2z
		 M123.8,73.5c0.1,0,0.3,0.1,0.4,0.1c0.8-0.5,1.5-1,2.3-1.6c0.2-0.1,0.2-0.5,0.3-0.7c-0.3-0.1-0.6-0.3-0.9-0.3
		C124.9,71,123.9,72.1,123.8,73.5z"/>
	<path fill="#6A6A6A" d="M23.5,68.8c-1.3,0.9-2.5,1.8-3.8,2.7C15,74.7,10,77.2,4.5,78.6c-1.5,0.3-3,0.5-4.5,0.3c0-0.1,0-0.2,0-0.3
		c0.8-0.3,1.6-0.6,2.4-0.8c4.7-0.9,9.2-2.4,13.4-4.7c2.8-1.5,5.3-3.3,7.5-5.5c0.9-0.9,1.5-2.2,2.2-3.3c0.7-1,1.4-1.9,2.2-2.8
		c0.4-0.4,1-0.8,1.4-0.4c0.2,0.2,0.1,1-0.2,1.4c-0.5,0.9-1.1,1.8-1.9,2.4c-1.8,1.6-2.9,3.7-3.7,6c-0.3,0.9-0.7,1.7-1,2.6
		c0,0.1,0,0.3,0,0.4c0.1,0,0.3,0,0.4-0.1c2.3-0.7,4.3-2.1,6.3-3.4c1.3-0.9,2.5-1.9,3.8-2.9c0.4-0.3,0.5-0.5,0.1-0.9
		c-0.3-0.4-0.6-1-0.2-1.5c0.2-0.3,0.7-0.5,1.1-0.5c0.3,0,0.7,0.3,0.8,0.6c0.2,0.3,0.2,0.5,0.7,0.5c0.6-0.1,0.8,0.3,0.7,0.8
		c-0.2,0.9-0.4,1.8-0.7,2.6c-0.4,1.5-0.9,2.9-1.4,4.4c-0.1,0.2-0.1,0.3-0.1,0.5c0,0.8,0,1.6,0.8,2s1.6,0.1,2.3-0.4
		c0.9-0.7,1.4-1.5,1.4-2.7c0-1.6,0.3-3.1,1.1-4.5c0.2-0.4,0.5-0.7,0.8-1c0.8-0.7,1.7-0.4,1.9,0.6c0.2,1.2,0,2.4-0.6,3.4
		c-0.5,1-1.1,1.9-1.8,2.8c-0.3,0.4-0.2,0.7,0.2,0.9c0.7,0.5,1.5,0.4,2.3,0.1c0.5-0.2,0.9-0.4,1.4-0.6c0.9-0.5,1.5-1,1.3-2.3
		c-0.1-1.1,0.2-2.2,0.4-3.3c0.1-0.4,0.3-0.8,0.6-1.2c0.4-0.6,0.9-1,1.6-0.8c0.7,0.2,0.9,0.8,1,1.4c0.2,2-0.4,3.7-1.7,5.2
		c-0.4,0.4-0.5,0.8-0.3,1.3c0.6,1.7,2.1,3,4.1,2.9c1.7-0.1,3.5-0.5,5.2-0.7c0.2,0,0.3,0,0.5,0c-0.1,0.2-0.2,0.5-0.3,0.5
		c-2.4,0.8-4.8,1.6-7.3,0.8c-1.6-0.5-2.6-1.9-3.2-3.4c-0.2-0.6-0.5-0.6-0.9-0.2c-0.7,0.5-1.3,1-2,1.3c-1.3,0.6-2.5,0.6-3.6-0.5
		c-0.3-0.3-0.4-0.3-0.7,0c-1,0.8-2.2,1.3-3.6,1.3c-1,0-1.6-0.6-1.7-1.5c0-1,0-1.9,0.2-2.9c0.4-1.5,1-2.9,1.5-4.4
		c0.1-0.2,0.1-0.3,0.2-0.5c0-0.2,0-0.4-0.1-0.5s-0.4-0.1-0.5,0c-0.3,0.1-0.5,0.3-0.7,0.5c-2.7,2.5-5.6,4.7-8.9,6.4
		c-0.7,0.4-1.4,0.7-2.1,1c-0.5,0.2-0.7,0.5-0.5,1c0.3,1.8,0.5,3.5,0.3,5.3c-0.3,2-1.2,3.6-2.6,5c-0.3,0.3-0.8,0.5-1.1,0.4
		c-0.3-0.1-0.5-0.7-0.5-1c-0.2-1.7,0.2-3.4,0.7-5c0.5-1.7,1.1-3.4,1.6-5.1c0.1-0.3,0-0.7-0.1-1.1c-0.3-0.7-0.3-0.9,0.5-1.1
		c0.2,0,0.4-0.3,0.4-0.5C22.3,71.7,22.9,70.2,23.5,68.8C23.5,68.7,23.5,68.7,23.5,68.8C23.5,68.7,23.5,68.7,23.5,68.8z M34,65.9
		L34,65.9L34,65.9c-0.1-0.1-0.2-0.2-0.2-0.3l0,0C33.8,65.7,33.9,65.8,34,65.9z M21.9,78.7c-0.1-0.4-0.1-1.2-0.2-1.9
		c0-0.1-0.1-0.2-0.1-0.3c-0.1,0.1-0.2,0.2-0.2,0.3c-0.7,2.5-1.5,5.1-2.2,7.7c-0.1,0.4,0.1,0.8,0.2,1.3c0.3-0.3,0.8-0.5,1-0.9
		C21.4,83,21.9,81,21.9,78.7z M39.6,72.6c0,0.1,0.1,0.4,0.1,0.6c0.2-0.2,0.5-0.3,0.6-0.6c0.5-1.1,0.9-2.2,1.3-3.3
		c0.1-0.3-0.1-0.7-0.2-1.1c-0.3,0.2-0.6,0.4-0.8,0.7C39.9,70,39.7,71.2,39.6,72.6z M46.4,71.5L46.4,71.5c0.1,0.1,0,0.2,0.1,0.4
		c0,0.2,0.1,0.4,0.1,0.6c0.2-0.1,0.4-0.2,0.5-0.4c0.6-0.9,1-1.9,0.9-3c0-0.2-0.2-0.4-0.3-0.7c-0.2,0.1-0.5,0.2-0.6,0.4
		c-0.2,0.2-0.3,0.5-0.3,0.7C46.5,70.2,46.5,70.9,46.4,71.5z M28.5,62C28.5,61.9,28.5,61.9,28.5,62h-0.1c-0.7,0.9-1.4,1.7-2.1,2.6
		c0,0,0,0.1,0,0.2c0.1,0,0.1-0.1,0.2-0.1c0.6-0.7,1.2-1.4,1.9-2.2C28.4,62.3,28.4,62.2,28.5,62z"/>
</g>
</svg>
