<?xml version="1.0" encoding="utf-8"?>
<!-- Generator: Adobe Illustrator 17.1.0, SVG Export Plug-In . SVG Version: 6.00 Build 0)  -->
<!DOCTYPE svg PUBLIC "-//W3C//DTD SVG 1.1//EN" "http://www.w3.org/Graphics/SVG/1.1/DTD/svg11.dtd">
<svg version="1.1" id="Layer_1" xmlns="http://www.w3.org/2000/svg" xmlns:xlink="http://www.w3.org/1999/xlink" x="0px" y="0px"
	 viewBox="0 22 144 100" enable-background="new 0 22 144 100" xml:space="preserve">
<g>
	<path fill="#6A6A6A" d="M76.3,48.8c1.4,0.7,1.8,2,1.9,3.4c0.2,3.3-0.5,6.4-1.7,9.4c-0.9,2.2-2,4.3-3.1,6.4
		c-0.1,0.2-0.2,0.3-0.2,0.5c-0.2,2.1-0.4,4.2-0.6,6.2c0.1,0.1,0.1,0.1,0.2,0.2c1.2-0.7,2.4-1.4,3.5-2.2c1.7-1.2,3.1-2.6,4.3-4.2
		c0.6-0.8,1.3-1,2-0.5s0.7,1.3,0.1,2.1c-2.4,3.1-5.3,5.5-8.9,7.2c-0.2,0.1-0.3,0.2-0.5,0.3c1.5,2.4,3,4.7,5.7,5.8
		c2,0.9,3.6,0.4,4.6-1.5c1.3-2.5,2.3-5.1,3.4-7.7c0.4-0.9,0.7-1.8,1-2.7c0.3-0.8,0.9-1.1,1.6-0.9s1.1,0.8,0.9,1.6
		c-0.2,1.3-0.4,2.6-0.5,3.9c0.4-0.8,0.7-1.5,1.2-2.3c0.9-1.5,1.8-2.8,3.4-3.7c1.2-0.6,2.6-0.3,3.2,0.9c0.4,0.9,0.7,2,0.7,3
		c0,2.2-0.2,4.4-0.3,6.6c0,0.8,0,1.7,0.1,2.5c0,0.3,0.2,0.7,0.3,1.1c1.1-0.6,1.7-1.6,2.2-2.6c0.8-1.8,1.4-3.6,2.1-5.5
		c0.8-2.3,1.9-4.3,4-5.7c0.1-0.1,0.2-0.1,0.2-0.1c1.1-0.8,2.6-0.7,2.6,1.3c2.3-0.5,3.8,0.2,4.5,2.5c0.4,1.2,0.5,2.6,0.7,3.8
		c0,0.2,0,0.5,0,0.8c1.2-0.1,2-0.6,2.7-1.5c1-1.4,1.5-2.9,1.9-4.5c0.7-2.3,0.9-4.8,1.2-7.2c-1.2,0.1-2.3,0.1-3.4,0.2
		c-1.6,0.1-3.1,0.2-4.7,0.2c-1,0-1.5-0.4-1.5-1.2c0-0.9,0.5-1.3,1.5-1.4c2.6-0.1,5.2-0.3,7.8-0.4c0.5,0,0.7-0.2,0.8-0.7
		c0.1-1.3,0.3-2.6,0.5-4c0.1-1,0.7-1.5,1.5-1.4s1.2,0.7,1.1,1.7c-0.1,1.3-0.2,2.7-0.4,4.1c1.2-0.1,2.3-0.2,3.4-0.3
		c1.9-0.2,3.7-0.5,5.6-0.7c0.8-0.1,1.2,0.2,1.7,0.8c0,0.3,0,0.6,0,0.9c-0.3,0.6-0.8,0.9-1.5,0.9c-2.9,0.3-5.9,0.7-8.8,1
		c-0.5,0-0.7,0.2-0.8,0.7c-0.9,5-1.4,10-1.2,15.1c0,1.4,0.2,2.8,0.6,4.2c0.3,1.3,1.3,1.6,2.5,1c1.4-0.7,2.4-1.9,3.3-3.1
		c0.2-0.3,0.4-0.6,0.6-0.8c0.4-0.5,1.2-0.6,1.7-0.3c0.6,0.4,0.8,1.2,0.4,1.7c-1.4,2.1-2.9,4-5.3,5c-2.5,1-4.9,0-5.8-2.6
		c-0.7-1.9-0.7-3.9-0.7-5.9c0-0.4,0-0.7,0-1.3c-1,1.1-2,1.9-3.4,2.2c-0.3,0.1-0.6,0.2-0.9,0.2c-0.8-0.1-1,0.4-1.1,1
		c-0.5,1.7-1.3,3.2-2.8,4.2c-3,2.3-7.1,1.2-8.5-2.3c0-0.1-0.1-0.2-0.2-0.4c-0.5,0.6-0.9,1.2-1.4,1.7c-0.9,0.9-2,1.6-3.3,1.2
		s-2-1.5-2.1-2.8c-0.2-1.8-0.1-3.6-0.1-5.4c0-1.5,0.2-3,0.2-4.5c0-0.5-0.1-0.9-0.2-1.5c-1.2,0.9-2,2-2.5,3.2c-1.1,2.6-2,5.3-3,8
		c-0.4,1.2-0.9,2.4-1.4,3.6c-0.2,0.3-0.5,0.6-0.8,0.9c-0.5,0.4-1.1,0.4-1.6,0c-0.5-0.3-0.7-0.9-0.6-1.5c0.2-1.4,0.4-2.8,0.5-4.3
		c-0.1,0.2-0.2,0.4-0.3,0.6c-1.9,3.4-5.1,4.4-8.6,2.6c-2-1-3.5-2.5-4.8-4.2c-0.1-0.2-0.3-0.4-0.4-0.5c0,0-0.1,0-0.2-0.1
		c-0.1,1.5-0.3,3.1-0.4,4.6c-0.1,0.7-0.1,1.5-0.2,2.2c-0.1,0.9-0.7,1.4-1.4,1.3c-0.8-0.1-1.2-0.7-1.2-1.6c0.4-4.6,0.8-9.1,1.2-13.7
		c0-0.1,0-0.3,0-0.5c-0.6,0.7-1,1.3-1.5,1.9c-0.6,0.7-1.3,0.9-1.9,0.4s-0.7-1.3-0.1-2c0.9-1.2,1.8-2.5,2.7-3.7
		c1.1-1.4,1.5-2.9,1.7-4.7c0.3-3.6,0.8-7.1,1.3-10.6c0.2-1.3,0.7-2.6,1.1-3.9c0.3-0.8,0.9-1.4,1.7-1.8
		C75.5,48.8,75.9,48.8,76.3,48.8z M108.4,72.7c-0.1,0.1-0.3,0.2-0.4,0.2c-1.1,0.8-1.8,1.9-2.3,3.1c-0.9,2.2-1.2,4.4-0.6,6.7
		c0.3,1.1,1,2,2.2,2.3s2.3-0.2,3-1.2c0.5-0.7,0.9-1.6,1.3-2.4c0.2-0.4,0.1-0.7-0.3-1C108.5,78.7,107.5,75.9,108.4,72.7z M75.5,52.4
		c-0.6,1.1-1.5,6.4-1.5,8.2C74.9,59.1,75.7,54.6,75.5,52.4z M112.2,77.8c0.1,0,0.2-0.1,0.3-0.1c-0.3-1-0.5-2-0.8-3
		c-0.1-0.2-0.5-0.4-0.7-0.6c-0.1,0.3-0.3,0.6-0.3,0.9C110.8,76.1,111.3,77,112.2,77.8z"/>
	<path fill="#6A6A6A" d="M40.1,72.5c-0.5,0.7-1.1,1.3-1.4,2.1c-1.2,2.9-2.4,5.9-3.6,8.8c-0.4,1.1-0.8,2.3-1.2,3.4
		c-0.1,0.3-0.2,0.5-0.4,0.7c-0.4,0.6-0.9,0.8-1.6,0.7c-0.6-0.2-1-0.6-1-1.3c0-1.1,0-2.2,0-3.3c0-0.4,0-0.7,0-1.2
		c-0.2,0.3-0.4,0.5-0.6,0.7c-1,1.4-2.3,2.3-4,2.6c-2.4,0.4-4.5-0.8-5.2-3.2c-0.3-1-0.4-2-0.6-3.1c-0.3,0.6-0.5,1.3-0.8,2
		c-0.9,2.2-1.9,4.4-3.5,6.2c-0.6,0.7-1.4,1.3-2.1,1.9c-0.6,0.5-1.5,0.2-1.8-0.4c-0.4-0.6-0.3-1.4,0.4-1.8c1.5-1,2.4-2.4,3.2-3.9
		c2.1-4,3.3-8.2,4.5-12.6c0.3-1.3,0.6-2.6,0.9-3.9c0-0.2,0.1-0.4,0.1-0.7c-1.9,0.1-3.8,0.2-5.7,0.3c-1.7,0.1-3.4,0.1-5.1,0.2
		c-0.7,0-1.3-0.6-1.3-1.3c0-0.8,0.5-1.3,1.3-1.3c3.6-0.2,7.2-0.3,10.9-0.5c0.5,0,0.6-0.2,0.7-0.6c0.3-1.6,0.6-3.3,0.9-4.9
		c0.2-0.9,0.7-1.4,1.6-1.3c0.7,0.1,1.2,0.7,1,1.6c-0.2,1.6-0.5,3.2-0.7,4.9c0.2,0,0.4,0,0.5,0c1.7-0.1,3.3-0.3,5-0.4
		c0.9-0.1,1.6,0.3,1.7,1c0.1,0.9-0.4,1.5-1.3,1.6c-1.9,0.2-3.8,0.3-5.6,0.5c-0.5,0-0.7,0.2-0.7,0.7c-0.4,3.7-0.8,7.5-1.1,11.2
		c-0.1,1.3,0.1,2.7,0.4,3.9c0.3,1.3,1.3,1.7,2.5,1.2c0.7-0.3,1.4-0.7,1.8-1.2c1.1-1.6,2.1-3.2,3-4.9c0.4-0.7,0.3-1.6,0.4-2.4
		c0.4-4.3,0.7-8.6,1.1-12.9c0.2-2.1,0.5-4.2,1.6-6c0.5-0.9,1.2-1.5,2.2-1.8c1.2-0.3,2.2,0.1,2.7,1.2c0.3,0.7,0.5,1.6,0.6,2.4
		c0.1,2.9-0.5,5.7-1.4,8.3c-1.2,3.7-2.6,7.3-4,10.9c-0.3,0.7-0.3,1.5-0.5,2.2c0.1,0,0.1,0,0.2,0.1c0.4-1,0.8-2.1,1.3-3.1
		c0.8-1.9,1.7-3.8,3.3-5.2c0.6-0.5,1.3-0.9,2-1.1c0.9-0.3,1.7,0.3,2,1.1c0.3,0.8,0.5,1.6,0.5,2.4c0,2.5-0.1,5-0.1,7.4
		c0,0.5,0.1,1.1,0.1,1.6c0.2,1.5,1,2,2.4,1.7c0.3-0.1,0.6-0.2,0.8-0.3c-0.1-1.3-0.4-2.6-0.4-3.9c-0.1-2.2,0.3-4.4,1.1-6.6
		c0.5-1.4,1.3-2.6,2.6-3.4c1.7-1.1,3.7-0.4,4.3,1.5c0.7,2,0.6,4.1,0,6.1c-0.7,2.8-2,5.2-4.2,7.2c0,0-0.1,0.1-0.1,0.2
		c0.6,1.4,1.5,1.7,2.8,0.9c1.6-1,2.5-2.5,3.3-4.2c0.3-0.7,0.6-1.4,0.9-2c0.3-0.7,1-1,1.7-0.7c0.6,0.2,1,0.9,0.8,1.6
		c-1,2.7-2.1,5.2-4.4,7c-0.8,0.6-1.8,1.1-2.7,1.3c-1.7,0.4-3.2-0.3-4.2-1.8c-0.3-0.5-0.6-0.7-1.3-0.5c-3.1,1-5.5-0.6-6-3.8
		c-0.1-0.7-0.2-1.5-0.1-2.2c0-1.8,0.1-3.6,0.2-5.5c0-0.7,0-1.4,0-2.1C40.2,72.6,40.2,72.5,40.1,72.5z M48.5,81.3
		c0.1,0,0.2,0.1,0.3,0.1c0.1-0.1,0.1-0.3,0.2-0.4c1.2-1.5,1.9-3.2,2.3-5c0.2-1.1,0.1-2.3,0.1-3.5c0-0.3-0.2-0.6-0.3-0.9
		c-0.3,0.2-0.6,0.3-0.8,0.5s-0.4,0.6-0.6,0.9c-0.8,1.5-1,3.2-1.2,4.8C48.4,79.1,48.5,80.2,48.5,81.3z M34.7,67.6
		c1.1-3.6,2.4-7.1,2-11c-0.4,0.6-0.8,1.2-0.9,1.9C34.9,61.4,34.9,64.5,34.7,67.6z"/>
</g>
</svg>
