<?xml version="1.0" encoding="utf-8"?>
<!-- Generator: Adobe Illustrator 17.1.0, SVG Export Plug-In . SVG Version: 6.00 Build 0)  -->
<!DOCTYPE svg PUBLIC "-//W3C//DTD SVG 1.1//EN" "http://www.w3.org/Graphics/SVG/1.1/DTD/svg11.dtd">
<svg version="1.1" id="Layer_1" xmlns="http://www.w3.org/2000/svg" xmlns:xlink="http://www.w3.org/1999/xlink" x="0px" y="0px"
	 viewBox="0 0 1014 486.7" enable-background="new 0 0 1014 486.7" xml:space="preserve">
<g>
	<path fill="#FFFFFF" d="M632.5,269.7c1.7-0.4,5.3-0.2,6.3-1.8c1.3-2.1,3.7-3,5.2-4.9c1-1.3,4.2-1.9,4.3-3.5c0.2-2.8,1-4.6,2.9-6.5
		c0.8-0.8,1.4-2,0.3-2.7c-1.4-0.9-3-2.1-4.5-2.7c-1.2-0.5-2.6-0.9-3.4-2c-0.9-1.3,0-2.7-0.5-4c-0.2-0.5-5.6,5.3-6.4,5.7
		c-1.7,0.8-5.7-0.7-4.9,2.5c-1.8-1.8-5.2-3.3-5.5-6.1c-0.1-0.8,0.5-0.9,0.6-1.5c0.1-1.1-2.2-2.6-3-3c-2.3-1.2-2.8-2.5-3.8-4.9
		c-0.5-1.2-3.5-1.7-4.6-1.7c1.6-0.1,1.7-0.5,2.7-1.7c1.2-1.4,1.5-1.4,0.9-3.2c0.5,1.3,0.1,1.5,1.4,1.5c0.7,0,4-0.5,4.3,0.2
		c0.7,1.4,2.1,2,3.3,3.1c1.1,0.9,0.4,1.8,0.8,3c0.6,2,2.3,3,4.2,3.7c1.9,0.7,4.4,2,6.4,1.1c1.2-0.6,3.8-2.2,5-0.7
		c0.9,1.2,0.5,3.5,2.4,3.8c1.9,0.3,3.8-0.2,5.8,0.1c1.4,0.2,2.8,0.9,4.2,0.9c1.7,0.1,3.5,0.1,5.3-0.1c2.2-0.2,4.4-1.2,6.6-1.1
		c3.6,0.2,2.7,5.5,5.1,6.8c1.3,0.7,3.4-1.5,4.5-2c1.6-0.7,2.8-0.4,4.3-0.7c-0.7,0.6-2.8,0.6-3.7,0.9c-1,0.4-2.4,0.8-3.2,1.6
		c1.4,0,3,0.1,4.2,0.8c2.5,1.4-1.8,3.5-0.9,4.9c1.6,2.4,6.4-0.4,8.2-1c2.3-0.7,0,5,0,6.2c0.3,7,3.9,12.8,5.9,19.3
		c0.4,1.4,0.6,3,1.4,4.3c0.6,1.1,1.5,2.1,2,3.2c1.3,2.5,0.8,6.3,4.5,3.9c5.2-3.3,9.3-9.1,7-15.4c-0.8-2.1,1.3-3.2,2.6-4.6
		c2.1-2.3,3.9-4.6,6.5-6.4c3.7-2.7,7.9-5.3,10.7-8.9c0.9-1.1,3-3.4,4.6-2.9c2,0.7,3.9,1.4,5.9,2.1c0.6,0.2,1.2,0.4,1.7,0.6
		c1,0.4,0.6-1.3,1.3,0.2c0.9,2,3.7,3.4,5.3,5c0.9,0.9,0.6,2.6,0.5,3.7c-0.1,2.1,0.5,3.4,1.1,5.3c0.3,0.8,0.2,2.7,1.6,1.9
		c1.6-0.9,2.7-2.4,4-3.7c1.5,1.5,3,3,4.5,4.6c0.9,0.9,1,2.1,1.4,3.2c0.6,1.6,1.3,3.2,2.1,4.7c-0.1-0.2,0-0.2,0.1,0
		c-0.3-1.7,0-3.6,2.1-3.3c1.1,0.2,1.7,1,2.4,1.6c1,0.8,2.1,1.3,3.2,2.1c1.4,1,3,1.8,4.1,3.9c0.9,1.6,1.5,6.2,3.4,7
		c1.1,0.5,2.1-1.3,2.6-2c0.9-1,1.9-1.8,3-2.5c2.4-1.4,3.9-4.1,5.6-6.3c1.5-1.9,0.3-4.9,0.2-7c-0.2-2.8-3-4.8-5.1-6.3
		c-1.1-0.8-4.4-3-3.5-4.7c1-1.8,2-3.7,2.9-5.5c0.6-1.2,1.2-2.2,2-3.2c0.5-0.7,2.8-0.3,3.6-0.3c2,0.1,3.9,0.1,5.9,0
		c3.5-0.3,6.4-1.5,9.7-2.6c3-1,6.4-1.6,8.9-3.6c2.1-1.7,3.4-4.9,4.9-7.1c1-1.5,2-3,3.4-4.3c1-0.9,2.3-1.9,2.4-3.3
		c0.4-1.7-0.8-3.3-1.4-4.8c-0.8-1.7-0.4-3.7-0.9-5.5c-0.8-3-1.8-5.4-3.6-7.9c-0.6-0.8,1.7-2.8,2.3-3.6c0.8-0.9,2.8-1.2,3.9-1.9
		c1.2-0.8,1-2.1,0.7-3.4c0.1,0.1,0.3,0.2,0.4,0.3c1.1-1.5,2.2-3,3.4-4.5c0.5-0.6,3.3-3.9,1.8-4.1c0.9-0.6,2.9,2.7,2.7,3.6
		c-0.2,0.9-1.1,2.3-0.7,3.3c0.4,1.1,2.8,0.9,3.7,1.1c3.2,0.4,1.1,4.9,1,7.1c-0.2,4.3,3.5,3.3,6.1,2c5.2-2.6,1.6-9-0.7-12.3
		c-1.1-1.6-3-3.5-0.5-4.8c2.5-1.3,4.4-0.9,5.2-4c1-3.7,5.3-4.9,8.7-4.9c2.8,0,5.7-2.7,7.6-4.5c3-2.8,4.7-6,6.8-9.5
		c1.2-2.1,2.8-4,4-6.2c1.7-3.2,1.5-6.9,2.6-10.2c0.9-2.7,2.3-5.4,0-7.8c-1.9-2-5-2.1-7.5-1.4c-1.1,0.3-2.2,0.8-3-0.4
		c-0.6-1-1.5-1.3-2.5-1.5c-1.6-0.4-1.7-1.5-0.7-2.6c3.6-3.6,8-6.3,11.5-10.1c1.3-1.5,2.5-3.7,4.2-4.7c1.4-0.9,3.4-1.1,5.1-1.3
		c4.1-0.6,8.9,0.2,12.7-1.5c2.7-1.2,6.1-1,8.4,0.7c1.5,1.2,5.2,0.7,7,0.6c2-0.1,3.4-1.1,3-3.2c-0.4-2.2,2.6-2.9,3.8-4.3
		c1.2-1.4,1.3-2.8,3.4-3c1.4-0.1,2.8-0.1,4.2-0.5c0.7-0.2,1.6-0.7,2.4-0.7c2.5,0.2,0.1,3,0.2,3.3c0.2,0.6,3.3,0.8,3.9,0.7
		c1.3-0.3,2.8-2.6,3.6-3.5c0.6-0.7,1.2-2.4,2.2-2.6c1.6-0.3,3.3-0.1,4.9-0.1c-2.5,0.1-2.5,2.4-3,4.3c-0.7,3-4.3,4.6-6.4,6.6
		c-2.2,2.2-3.8,4.9-6.6,6.4c-0.9,0.5-1.9,0.6-2.9,0.9c-1.6,0.5-2.4,2-3.4,3.3c-1.6,2.1-3.1,3.5-3.2,6.2c-0.2,3.9-0.8,8.2-0.2,12.1
		c0.2,1,0.5,7.1,2.1,6.7c3.5-0.9,4.3-3.9,6.8-6c1.2-0.9,2.3-1.6,2.9-3c0.4-1,0.3-2.1,0.6-3.2c0.8-2.3,5-1,5.3-3.6
		c0.3-2.9,0.8-4.7,2.3-7.4c0.6-1.1,1-2.1,0-3c-0.6-0.6-2.6-0.6-2.9-1.2c-0.4-1,2.5-4.4,3.3-5.1c1.8-1.7,4-3.7,6.6-4
		c1.2-0.1,2.8,0,3.9-0.7c0.7-0.4,0.8-0.9,1.7-0.8c2.5,0,4.4,1.1,6.7,1.7c2.2,0.6,4.1-1.7,5.5-3c2.8-2.4,5.9-4.1,9.3-5.6
		c2.6-1.2,5.1-2.1,7.8-1.1c2.6,0.9,4.1-2.8,2.9-4.8c-0.7-1.1-1.6-2.9-2.9-3.4c-0.8-0.3-8.2-2.6-4-2.8c1,0,0.9,1.1,2,0.9
		c1.6-0.2,3.1-0.9,4.7-1.1c2.4-0.3,5.5,0.4,4-2.8c-0.2-0.5-1.5-2.5-0.5-2.9c0.5-0.2,2.3-0.2,2.6,0.5c1,2.6,5.3,2.6,7.6,3.3
		c1.1,0.3,1.3,1.2,2.2,1.8c1.2,0.9,2.4,1.8,3.7,2.6c3.6,2.2,3.7-2.2,5.3-4.3c1.3-1.7,4.7-1.4,6.5-2c1.4-0.5-1.3-1.9-1.7-2.1
		c-1.6-1-3.2-2-4.9-2.7c-1.4-0.6-2.8-1.3-4.2-1.8c-1.2-0.4-1,1.8-1.4,2.5c-0.5,1-1.7,1.9-1.8,0.1c-0.1-1,1.2-2.1,0.5-3.1
		c-0.9-1.3-3.6-2.1-4.9-2.8c-2.5-1.3-5-2.6-7.6-3.8c-4.2-2.1-8.1-4-12.7-4.8c-2.7-0.4-5.5-0.7-8.2-1c-1-0.1-2-0.2-3-0.3
		c-1.4-0.2-2.9-1-4.3-1c-2.6-0.1,1.2,3.6,1.3,4.1c0.6,1.5-4.3,2.6-5.4,1.3c-1.4-1.9-0.9-3.3-3.5-3.3c-1.4,0-2.8,0-4.2,0.1
		c-2.2,0.2-4.5,0.4-6.7,0.6c-2,0.2-4-0.2-6,0.3c-2.7,0.7-3.1,0.7-4.8-1.8c-2-3-5.1-4.7-8.6-5.3c-2.8-0.5-5.6-0.3-8.4,0.2
		c-1.5,0.3-3,0.5-4.5,0.1c-1.8-0.5-3.5-1.7-5.3-2.3c-1.2-0.3-2.4-0.7-3.1-1.7c-0.5-0.6-0.6-1.5-1.2-2c-1.8-1.8-5.7-1-8.1-1.3
		c-5.5-0.5-10.9-2-16.5-1c-3.1,0.5-1.3,2.8-1.9,4.8c-0.6,1.8-4,0.9-5.5,0.7c-2.5-0.3-5,0-7.5,0.5c-1.3,0.3-2.5,0.3-3.6-0.6
		c-0.5-0.4-1.9-3-2.7-2.8c-2.1,0-1.4,5.2-3,6c-0.9,0.5-3,0.6-4,0.7c-1.5,0-2.2-2.1-2.7-3.2c-1.2-2.4-1.2-3.5-1-6.2
		c0.2-2.4,0.1-4.7-2.7-5.2c-3.2-0.5-6.5-0.8-9.7-1.3c-1.5-0.2-1.3,0-1.5,1.1c-0.3,1.2-1.6,2.1-2.6,2.7c-5.1,3.3-8.3,0.2-12.9-1.9
		c-2.9-1.3-6.6-0.5-9.7-0.8c-2.4-0.2-4.7-0.9-7.1-1c-6.4-0.1-12,2.9-18.2,4.5c3.9-5.2,10.7-6.7,16.3-9.2c2.4-1,6.8-2.6,7-5.8
		c0.1-1.4-1.5-3.4-2.5-4.4c-1.6-1.6-5.2-1.2-7.2-1.4c-2.4-0.2-4.5,0.3-6.8,0.7c-0.8,0.1-2.3,0.7-3.1,0.4c-1-0.4-0.7-2.1-1.8-2.6
		c-0.5-0.2-2.6-0.4-2.5-1.2c0.2-1.1,1-1.1,0.7-2.5c-0.4-2-6.3,0-7.4,0.4c-2.6,0.9-4.6,1.8-4.5,4.8c0.1,2.4-3.4,2.1-5.1,2.1
		c-0.7,0-1.2,0.3-1.8,0.6c-1.7,1-3.2,1.5-5.3,1.5c-2.7,0-5.3-0.1-7.9,0.4c-3.9,0.8-7.6,2-11.6,2.3c-1.7,0.1-3.9-0.2-5.2,1
		c-0.9,0.8-1.5,1.9-2.4,2.7c-0.7,0.7-1.7,1.2-2.2,2c-0.6,0.8-0.6,1.5-0.3,2.4c0.4,1-2.7,0.6-3.1,0.6c-5.1,0-9.1-1.8-12.7,3
		c-1.1,1.5-1.6,3.5,0.3,4.6c1.7,1,4.4,0.7,5.8,2.1c1.2,1.1-3.3,1.7-3.7,1.7c-1.5-0.2-2-0.6-3.3-0.2c0.8-1.1-4.3-2.4-4.8-3
		c-0.6-0.8-1.9-2.6-3-1.5c-0.5,0.5-0.2,2.4-1.1,2.3c-0.9-0.1-1.5-0.9-1.9,0.4c-0.1,0.4-0.7,1.3-0.6,1.7c0.3,0.9,5.7,1.5,5.3,2.5
		c-0.2,0.5-3.9,1-4.6,0.9c-0.8-0.2-3.5-1.1-3.9-1.8c-0.7-1.2,1-3.5,1.5-4.6c0.4-0.8-0.5-4.3-1.1-3.9c-1.6,1.1,1.1,3.3-1.4,4.4
		c-1.6,0.7-3.3,1-2.9,3.3c0.4,2.6,2.7,4,1.3,6.8c-1,1.9-2.1,4,0.4,5c1.5,0.6,3.3,0.1,4.8-0.4c1.9-0.6,2.7,0.9,4.4,1.6
		c1.6,0.8,0.7,2.6,0,3.7c-0.8,1.2,2.1,2.4,2.9,3c-2.6,1.7-3.6-0.7-4.1-3c-0.6-2.9-2.6-2.4-5-2.7c-3.1-0.5-1.5,3.1-2.3,5
		c-0.5,1.2-1.6,2.3-2.2,3.5c-0.8,1.5-1.7,2.3-3.3,2.7c-1.2,0.3-7.9,1.3-8.2-0.2c-0.2-0.8,5.4-2.2,6.3-2.8c1.2-0.7,1.6-2.2,2.6-3.1
		c0.7-0.8,1.7-1.3,1.5-2.6c-0.2-1.4-1.2-2.2-1.3-3.7c-0.2-2.6,0.2-5.4-0.3-8c-0.2-1.2-2.4-3.4-2-4.2c0.7-1.6,5.1-4.7,2.5-6.1
		c-2.2-1.1-5.5-1.6-8-1.7c-1.2,0-2.3,3-2.8,3.9c-0.5,0.8-1,2-1.9,2.5c-1.4,0.8-2.5,1-3.5,2.5c-1.5,2.2,1,3.8,0.9,6.3
		c-0.1,2.7,2.2,3.1,3.8,4.8c0.7,0.8,0.3,2.2,0.4,3.2c0.2,1.2-3.1-0.9-3.5-1.2c-1.3-0.8-5.5-4.9-6.8-3.6c1-1-0.7-0.8-1.6-0.9
		c-2.2-0.3-4.4-0.7-6.5-1.4c-1.9-0.5-3.7-1-5.4-2c-0.7-0.4-2.8-1.7-3.6-1.4c-1.6,0.7-0.7,1.6,0.4,2.2c1.2,0.7,3.3,2.8,4.6,2.3
		c0.3-0.1-0.3,3-0.3,3.4c-0.1,1.5-0.7,2.1-2.3,1.5c-1.8-0.7-1.5-2.9-4.1-2.3c-2.6,0.7-5.1,1.2-7.7,1.8c-1.1,0.3-1.5,1.6-2.5,2
		c-1.2,0.4-1.7,0.4-2.7,1.1c-0.2,0.1,1.7-4.2,1.6-4.3c0-0.2-4.5,0.5-5.1,0.8c-2.6,1.3-5.5,2.2-8.1,3.5c-0.8,0.4-4.4,0.6-4.4,1.5
		c0,2.4,1.9,2.7-1.6,3.5c-0.3,0.1-0.8,0.5-1.1,0.6c-0.8,0.1-2-0.6-2.8-0.7c-0.8-0.2-1.4-3.5-2.2-3.1c0.5-0.2,1.5-0.4,2-0.1
		c0.1,0,0.5,0.6,0.6,0.6c0.5-0.1,1.3-2.3,1.4-2.7c0.3-0.9-1.3-1.3-1.9-1.5c-1.3-0.3-2.5-0.2-3.8-0.4c-0.5-0.1-0.8-0.7-1.3-0.9
		c-2.7-1.5-1.5,2.3-0.1,3.2c1.5,1,1,1.9,1,3.9c0,2.1,1,4.2-1.7,3.6c-1-0.2-3.1-1.1-4.2-0.5c-1,0.5-1.5,1.5-2.7,2.1
		c-1,0.6-2.1,0.8-3.2,0.5c-1-0.2-0.4,0.7-0.1,1.3c0.5,1.2,1.4,2.2,1.9,3.4c0.3,0.8-1.5,0.9-2,1c-2.1,0.5-3.3-1.5-5.1-1.8
		c-0.6-0.1-2.7-1.3-3.2-0.8c-0.9,0.7,0.3,2.5,0.9,3c0.5,0.4,3.9,2.7,1.5,2.7c-1.2,0-2.3,0.2-3.4-0.4c-1.1-0.6-2.3-0.6-3.4-1.1
		c-1.6-0.8-1.7-3.7-1.3-5c0.3-1.3-0.5-2.8-1.8-3.3c-2.7-1.2-4-2.4-5.4-5.1c1.3,0.6,2.6,1.1,3.9,1.6c1.5,0.5,3.1,0.4,4.5,0.9
		c1.3,0.4,2.1,1.5,3.5,1.8c1.4,0.3,2.7,0.7,4,1c2.8,0.6,6.3-1.4,8.3-3.3c2.3-2.3-2.3-5.1-3.7-6.6c-1.9-2.1-5.3-1.6-7.7-3
		c-1.4-0.8-2.6-1.6-4.2-1.6c-1.7-0.1-3.4,0.4-5.1,0.3c-1.5-0.1-1.8-1.8-3.2-2.2c-1.4-0.4-2.5-0.7-4-0.7c-1.6,0-4.2,2.5-4.6,3.9
		c0.3-2.5,1.4-2.3,3.2-3.6c0.7-0.5-0.5-2,0.1-3.1c0.9-1.6-1-1.8-2.4-2.1c-1.3-0.3-2.4-0.9-3.8-1.1c-1.2-0.2-1.8-0.6-3.1,0.2
		c-0.4,0.3-1.9,1-2.4,0.8c-0.7-0.3-0.6-1.8-1.4-2.1c-2.1-0.8-3.5,1.4-5.2,1.9c-1.3,0.4-2.2-0.3-3.3,0.2c-1.7,0.8-2.8,2.6-4.4,3.2
		c-2,0.8-5.6-0.1-7.1,1.5c-1.7,1.7-3,2.6-5.4,3.1c-0.9,0.2-2,0-2.6,0.4c-1.1,0.7-2.1,1.5-3.4,1.9c-0.2,0-1.1-0.2-0.8-0.5
		c-0.7,0.5-1,1.3-1.8,1.7c-0.3,0.2-1.3,0.3-1.5,0.6c0,0,4,1.1,4.6,1.1c1.5,0.1,0.5,2.1-0.4,1.8c-0.1,0,0-0.3,0-0.3
		c-0.7-0.2-4.1,4.7-4.7,5.4c0.1-0.1,0.1-0.3,0.2-0.4c-0.5,0.7-0.5,3-0.8,3.2c-1.4,1.1-2.4,1.3-3.5,2.6c-1.1,1.2-1.5,3-2.9,4
		c-0.8,0.6-2.6,1.7-3,1.9c-0.8,0.5-1.5,1.5-2.2,2.2c0.1,0,0.2-0.1,0.3-0.1c-0.7-0.1-2.8,1.5-3.6,1.9c-0.6,0.3-1.9,1-2.3,1.2
		c-3.7,1.8-3.6,6.6-3,10c-1.5,2,2.2,4-0.8,5.8c0.4-0.2,1.5,2.4,2,2.6c2.7,0.9,4.1,1.6,6.8,0.5c2.2-0.9,3.8-2.8,5.4-4.5
		c0.8-0.9,1.1,0.3,1.6,0.9c0.3,0.3,1.3,0.9,1.4,1.2c0.5,1.8,1.1,4.8,2.5,6.2c0.9,0.8,0.8,3.2,1.3,4.4c0.9,2.5,1.7,3.1,4.2,1.8
		c0.9-0.5,1.6-1.1,2.5-1.6c0.4-0.2,1.7-0.3,1.5-0.3c0.4-0.1,0.8-0.9,1.4-0.8c0.1,0,0.3,0.4,0.3,0.4c0.7-0.5,1.8-3.4,1.8-4.5
		c0-2.4,1.5-4.9,3.9-5.7c1.4-0.5,2.5-2.9,1.5-4.1c-0.7-0.9-1.8-2-2.8-2.5c-0.7-0.3-1.7,0-2.3-0.3c-0.6-0.4,1.5-5.2,1.7-6.1
		c0.4-1.9,2.2-3.6,3.7-4.6c1.6-1.1,3.5-3.1,5.4-3.4c1.3-0.2,0.7-4,1.6-4.9c0.9-0.9,1.6-2.5,2.8-2.8c1.2-0.3,8.3-2.6,7.8,0.1
		c-0.1,0.7,0,1.8-0.4,2.4c-0.7,1-2.2,1.5-3.1,2.1c-2.1,1.5-3.4,3.7-5.4,5.3c-1.7,1.3-0.5,4.9-0.2,6.7c0.3,1.8-0.5,5.9,1,7
		c2.2,1.6,7.2-0.6,9.2-1.7c1-0.5,2.2-1.4,3.4-1.3c1.7,0.2,2.8,1.8,4.7,1.8c1.3,0,2.2-3.7,2.7-4.6c-0.6,1.4,2,2.8,1.1,4.8
		c-1.1,2.5-4.8,2.3-5.7,5.2c-0.3-1.2-3.6-1.6-4.6-1.7c-1.8-0.1-3.5,0.5-5.3,0.6c-3.4,0.2-2.2,2.6-0.4,4.6c1.4,1.6,0.6,5-0.8,6.5
		c-1,1.2-2.1-1-2.4-1.7c-0.4-1.1,0.1-3-0.4-3.8c0.2,0.3-3.8,3.6-4.2,4.4c-1.4,2.1-0.5,6.5-2.7,7.9c-1.9,1.3-2.8,1.4-5.1,1.3
		c-1.6,0-3.7-0.7-5.2-0.2c-2,0.6-3.4,2.5-5.6,2.7c-2.7,0.3-4.8-2.8-7.4-0.6c-0.8,0.7-1.4,1.2-2.4,0.7c-0.7-0.4-2.7-0.5-3-1.4
		c-1.1-2.7,3.6-3.9,4.8-5.4c1.9-2.4-3.4-2.9-3.7-4.9c-0.5-2.7-0.5-5.3-3.5-2.2c-0.9,0.9-3.5,1.5-3.4,3c0.3,3.1,1.9,5.1,3.1,7.8
		c0.7,1.5-1.5,3.5-2.9,3.6c-1.4,0.1-2.9-0.2-4.3,0.2c-1.8,0.5-2.8,2.3-4,3.7c-1.7,1.9-4,3.3-6,5c-0.5,0.4-3.8,2.9-3.5,3.7
		c0.8,1.9-1.6,2.8-2.9,3.2c-0.9,0.3-1.8,0.8-2.8,1c-0.7,0.2-1.8,0-2.4,0.4c-1.8,1.3-3.4,3-5.9,2c-1.9-0.7-3.8-1.4-2.8,1.7
		c0.6,1.8,3.4,2.5,5,2.8c2,0.4,3.4,2.1,3.7,4.1c0.3,2,0.6,4.4-0.2,6.4c-0.9,2.4-2.6,2.6,0.2,4.1c-2.1-1.1-1.6-1.5-4-1.5
		c-2.7-0.1-5.4-0.2-8.2-0.3c-1.8-0.1-3.5-1.2-5.3-1c-0.8,0.1-3.9,1-3.7,2c0.1,1.2,1.6,3.4,0.7,4.3c0.7,1.5,1.3,4.1,0.7,5.7
		c-0.4,1.1-1.4,1.9-2.2,2.8c-0.7,0.8-0.3,1.5-0.1,2.4c0.3,1.3,0.1,4.6,1.8,4.6c1.1,0,2.4,0.4,3.4,0.2c0.6-0.1,1-1.7,1.1-2.2
		c0.1,0.9,0,1.8,0.2,2.6c-0.2-0.8,1.3,1,1.2,0.8c0.5,0.7,1.6,3.6,2.5,3.6c1.5,0,2.4-3,3.2-3.7c0.9-0.9,2.3,0,3.3,0.1
		c1.2,0.2,2.3,0,3.4-0.6c1.9-1.1,5.6-2.8,6.3-5.1c0.7-2.4-0.7-4,0.8-6.2c1.6-2.3,4.5-3.1,6.4-4.9c1-1,0.2-3.7,1.1-4.3
		c0.8-0.6,1.8-1.2,2.8-1.4c1.5-0.3,2,0.8,3.1,1.4c2.7,1.3,5.9-1.6,7.9-2.9c2-1.4,6-0.3,7.2,1.8c1.4,2.5,1.5,4.3,4.3,5.7
		c1.2,0.6,2.4,0.9,3.6,1.5c1.5,0.7,2.5,2.1,3.9,3c2.2,1.4,2,3.6,3.1,5.7c1,2-6.1,1-7,1c-2.4-0.1-3.8,2.6-0.9,3
		c1.5,0.2,2.6,0.7,3.5,1.9c0.5,0.6,1.5,2.6,1.9,0.9c0.4-1.7,0.1-2.6,1.5-4c0.4-0.4,1.5-0.6,1.6-0.8c0.4-1,0.8-2,1.1-2.9
		c0.5-1.4-0.1-3,0.3-4.3c0,0,9.6,1.7,4.4-0.7c-2.8-1.3-5.6-2.1-8.2-4c-2.6-1.8-4.7-5-6.4-7.5c-0.9-1.3-1.1-3.7-0.6-5.1
		c0.8-2.4,3.5,0.3,4.6,1c1.2,0.8,9.2,9.8,10.7,7.7c1.6,1.3,2.5,1.6,1.9,3.7c-0.6,1.8,0.8,5,1.6,6.8c1.5-0.9,2.9-2,4.1-3.3
		c1.1-1.1,2.6-1,4-1.6c-1.3,0.8-2.8,0.9-4,1.8c-0.7,0.7-1.5,1.3-2.2,2c-1.2,1.2-2.4,0.9-1.1,2.6c1.5,2,3.6,3.1,4.6,5.4
		c0.4,0.8,1.6,5.1,2.7,3.7c0.6-0.8,2.3-2.4,2.4-3.5c0.1-1.6-0.4-4.4-1.6-5.7c-0.6-0.7,0.5-2.2,0.5-3c0-1.7,1.7-1,3.1-1.1
		c1.4-0.1,2.5-0.4,3.7-1.1c2.4-1.5,2,2.7,2.3,4.1c0.8,3.6,2,7.2,5.9,8.5c2.5,0.9,3.8,2.6,6.7,1.8c1.6-0.4,3.2-0.5,4.8-0.3
		c1.8,0.2,3.3-0.2,5.1-0.7c1-0.3,2.1-0.6,3.1-0.3c1.2,0.3,2.2,0.9,3.5,0.6c-1.3,0.5-2,3-1.8,4.2c0.1,1,0.8,1.8,0.9,2.7
		c0.1,1.6-1.6,2.3-2,3.7c-0.6,1.7,0.1,4.2,0.1,6c0,1.6-0.6,5,0.5,6.4c-0.9-0.3-2.1,1.1-2.1,2.2c0.1,2.1,2.1,3.7,3.3,5.2
		c1.2,1.5,1,3.7,2.1,5.3c1.1,1.6,2.4,3.1,3.3,4.8c1.8,3.4,1.9,7.5,5.7,9.5c1.9,1,2.9,4,3.9,5.6c1,1.6,2,3.1,3.1,4.6
		c0.1-1,0.7-1.9,1.7-2.3c-2.3,2.5-1.8,7-1.8,10.1c-0.1,3.7,4.7,2.8,7,2.4c2.9-0.4,5.2-1.7,8-2.5c4.4-1.1,7.8-3.8,11.8-5.8
		 M566.6,94.5c0.1,0.2,0.1,0.3,0.2,0.5C566.7,94.9,566.6,94.7,566.6,94.5C566.6,94.7,566.6,94.7,566.6,94.5z M567.1,85.9
		c0,1,0.3,1.8,0.6,2.6C567.1,87.8,566.8,88,567.1,85.9z M468.5,193.6c0.1-0.2,0.2-0.4,0.4-0.6C468.8,193.2,468.7,193.4,468.5,193.6z
		 M548.7,190.3c0.3,0.4,0.7,0.7,0.8,1.3C549.2,191.2,548.9,190.8,548.7,190.3C548.7,190.5,548.9,191,548.7,190.3z M549.2,193.5
		c0.1-0.4,0.2-0.7,0.3-1.1C549.5,192.8,549.4,193.1,549.2,193.5C549.3,193.2,549.5,193.1,549.2,193.5z M707.1,71.9
		c-1.8,1.1,0.6,2.4,1.3,3.2C707.7,74.5,704.8,72.8,707.1,71.9C706.8,72.1,706.6,72.1,707.1,71.9z M608.4,266.7c0.1,0,0.1,0,0.2,0
		C608.6,266.8,608.5,266.8,608.4,266.7z M817.5,208c-0.5,0.2,0.4-0.3,0.6-0.3C817.9,207.8,817.7,207.9,817.5,208
		C817.5,208,817.7,207.9,817.5,208z"/>
	<path fill="#FFFFFF" d="M278.8,451.2c0.1-0.1,0.1-0.1,0.2-0.2C278.9,451.1,278.8,451.2,278.8,451.2z"/>
	<path fill="#FFFFFF" d="M337.7,299.8c-1.8-0.8-3.3-1.6-5.3-1c-1.1,0.3-2.1,0.3-3.2,0.3c-1.1,0-1.5-0.5-2.4-1.2
		c-0.8-0.6-1.7-0.8-2.5-1.3c-1.3-0.8-0.9-0.7-0.9-2.2c0-1.8-3-2.7-4.2-1.6c0.3-0.3,1.5-1,0.7-1.4c-0.6-0.4-2-0.4-2.6-0.1
		c-0.3,0.1-1.5,1.3-1.9,1.1c-0.8-0.5,0.6-1.8,0.9-2.1c1.6-1.6,0-2.2-1.4-2.2c-1.1,0-1.8-0.4-2.8-0.7c0.1-0.3,0.9-2,0.7-2.1
		c-1.2-1.2-4.2,0.3-5.2,0.9c-0.5,0.2-1,1.2-1.2,1.3c-0.7,0.3-1.9-0.4-2.5-0.7c-2.1-1.2-4.8,0.1-6.7-1c-0.9-0.5-1.4-1.6-2.3-2.1
		c-0.7-0.4-2.2-0.5-3-0.5c-1.8,0-4.4,2-3.6,4c0.4,1,0.9,1.4,0.4,2.5c-0.6,1.3-1.8,0.6-2.4-0.3c-0.3-0.5,0.7-5.9-0.3-5.2
		c1-0.7,5.6-3.5,1.6-2.5c-2.3,0.6-3.8,2.6-6.2,2.5c-1.9-0.1-4.2,1.4-4.9,3.1c-0.8,1.9-2.1,4.7-4.1,5.7c0-2.4-3.5-2.9-5.3-3
		c-2.5-0.2-4.7,0.5-6.9,1.5c-1.5,0.7-2.9-1.7-3.6-2.3c-1.8-1.4-3.1-2.5-3.4-4.9c-0.4-2.9,1-5.4,1.2-8.2c0-0.5,0.3-2.4-0.3-2.7
		c-1.4-0.8-2.8-1.6-4.4-1.7c-2.1-0.1-4.1,0-6.1,0.1c-1.6,0.1-3.9,0.3-5.3-0.7c3.1,0.5,2.8-5.3,2.5-7c-0.7,0.3-1.2,0.7-1.7,1.1
		c1.6-1.4,4.6-0.9,3.8-4c-0.5-2,3-4.1,1.9-6c-0.8-1.3-3.9-0.4-5.1-0.2c-1.2,0.2-2.5,0.5-3.6,0.9c-1.7,0.5-1.5,1.7-1.7,3.3
		c-0.7,3.9-3.7,3.6-6.8,4.4c-1,0.3-3.7,1-4.6,0.3c-0.4-0.3-0.6-0.7-1.2-0.9c-0.8-0.3-1.5,0.2-2.2-0.6c-1-1-1.1-2.6-2.1-3.6
		c-1-1-1.8-1.9-2-3.3c-0.5-3.2-1.3-6.8-0.6-10c0.3-1.2,1.3-2.1,1.5-3.3c0.2-1-0.3-2.5-0.5-3.5c-0.6-3.7,2.5-3.5,4.7-5.1
		c2.4-1.8,3.8-2.6,6.8-2.9c2.7-0.3,5.8,2.3,8.6,1.2c0.8-0.3,1.4-1.4,2-1.9c1-1,2.1-1,3.4-1.1c1.4-0.1,2.8-0.2,4.1-0.1
		c1.7,0.1,2.3,0.8,3.6,1.7c1.4,0.9,2.7-1,4.1-0.3c1,0.5,2,1.7,2.5,2.7c0.6,1.2,0.4,2.7,0.9,3.9c0.8,1.9,1.8,3.6,2.8,5.3
		c1.2,2.1,3,3.7,4.1,0.5c0.8-2.4,0-5.4-1-7.6c-1.3-2.8-2.3-4.6-2.5-7.8c-0.2-3.1,2-4.3,4.2-6.1c2-1.6,4.5-2.8,6.3-4.6
		c0.9-0.9,1.5-2,2.5-2.8c0.8-0.6,2.1-0.8,2.7-1.6c0.4-0.5-1.3-3.8-1.8-4.2c-0.3-0.3-1.7-0.7-1.6-1.2c0.1-0.7,0.9-1.1,1-1.3
		c0.2-0.7-1.7-2.3-1.7-2.3c0.1-0.3,1.7-0.9,2.1-1.2c0.8-0.6,1,1.3,1,1.7c0.3,3.1,2.3-0.5,3-1.2c0.7-0.8,1.1-1.8,1.9-2.6
		c1-1.1,0.7-2,1.4-3.2c0.9-1.7,5.1-3.5,6.9-3.4c0.7,0,2.4,0.6,2.6-0.5c0.2-1.2,0.1-2.1-0.2-3.2c-1.1-3.3,2.1-4.5,4.6-5.3
		c1.3-0.4,2.9,0.2,4.1-0.7c1.2-0.9,1.4-2.2,0.8-3.5c-0.5-0.9-0.9-1.8-1.1-2.9c-0.2-1.1-0.1-3.1-1.3-3.7c1.1-0.2,1.6-1.4,2.6-1.8
		c0.8-0.4,1.8,0,2.7-0.2c0.9-0.2,6.5-3.7,4.4-4.3c-3.1-0.9-6.3,0.6-9.2,1.7c-1.8,0.7-3.4,1.8-4.7,3.3c-0.8,0.9-1.4,2.5-2.8,2.4
		c-0.4,0,1-4.2,1.6-4.9c1.4-1.7,2.8-2.8,5-3.2c2.2-0.4,2.9-2.7,4.2-4c1-1.1,5.5-0.3,7-0.3c1.5,0,3,0.1,4.5,0.1
		c1.7,0,3.4,0.6,5.2,0.5c1.5-0.1,2.9-1,4.1-1.9c1-0.7,1.8-1.5,2.7-2.2c0.9-0.7,2.5-0.6,3.6-0.8c1-0.1,3-0.2,3.7-1.2
		c0.7-1.1-1.3-2.3-1.5-3.2c-0.1-0.4,0.5-0.7,0.7-1c0.3-0.6-0.1-1.1-0.3-1.7c-0.4-1.2-1.5-0.8-2.5-0.6c-1.5,0.3-0.9-2.1-2.4-2
		c-1.8,0.2-2.7,0.9-4,2c-0.4,0.3-3.1,1.4-3,0.4c0.2-1.4,0.6-1.5,1.8-2.2c0.5-0.3,7.9-1.5,4.5-2.4c-0.8-0.2-2.3-1.2-3.1-1.2
		c-0.6,0-2.8,0.4-3-0.4c-0.4-2.2-2.5-1.6-3.5-3.1c-0.4-0.6-2-1.6-1.2-2.5c0.7-0.8,1.2-0.9,0.7-2.1c-0.2-0.4-0.6-0.6-0.9-1
		c-0.9-1-1.5-2.2-2.1-3.4c-0.3-0.6-0.5-1.4-0.9-2c-0.4-0.7-1.3-1-1.7-1.6c-0.6-1-1-1.7-2-2.3c-0.4-0.2-0.2-1.1-0.5-1.2
		c-1.2-0.6-3,2-3.1,2.9c-0.2,0.9-0.3,1.3-1,2c-0.4,0.4,0.1,1.1,0.2,0.9c-0.1,0.1-6,1-6,0.9c-0.8-0.9-1.4-2.3-2.4-3
		c-1.6-1.3-1.8-1.2-2-3.5c-0.1-1.3-0.2-2,0.7-2.7c0.8-0.6-1.9-1.9-2.6-2.1c-1.9-0.8-3.5-1.8-5.3-2.7c-1.1-0.6-1.9-1.2-2.9-2
		c-0.8-0.6-1.7-0.2-2.4-0.5c-0.1,0,0.2-0.1,0.2-0.1c-0.7,0-6.8,1-7,0.1c-0.4-1.8-3.4-0.2-3.8,1c-0.5,1.6,0.7,2.4,1,3.6
		c0.4,1.4,1,3.9,0.7,5c-0.3,1.2-4.1,4.7-3.1,5.7c1.4,1.4,3.2,1.8,4.5,3.5c1.6,2.1,0.9,3.8,0.4,6.1c-0.3,1.2-0.2,2.6-1.4,3.3
		c-1.7,1.1-3.5,0.6-5.2,1.2c-1.3,0.4,0.2,3.5,0.5,4.3c0.8,1.8,2.5,4.4,1.3,6.3c-0.9,1.6-2.2,3-4.1,3c-2.1,0-1.8-1.3-3.4-2.2
		c-2.2-1.3-1.9-1.9-2.3-4.4c-0.3-1.9-0.9-3.2-0.1-5c1.9-4.3-7.7-2.3-9.9-3.3c-1-0.4-1.8-1.1-2.9-1.3c-0.9-0.2-1.8-0.4-2.5-1.1
		c-0.5-0.5-2.9-2-2.8-2.5c0-0.1,0.3-0.1,0.3-0.1c-0.8-1.1-3.2-0.5-3.5-2.3c-0.1-0.7-5.1,0.7-5.8,1c-1.6,0.7-2.1-1.2-2.4-2.4
		c-0.3-1.1-0.5-2.3-1.3-3.2c-0.9-1-2.4-1-3.4-2c-1.3-1.4-0.9-4.1-0.5-5.8c0.7-3.2,2.7-5.9,5.3-7.9c1.5-1.1,4.3-1.7,5.4-3.1
		c1.3-1.6-1.9-3.5,1.4-4.3c0.5-0.1,1,0,1.6,0c1.3,0,2.6-0.9,3.7-1.4c2.1-1.1,2.8-1.4,3.5-3.7c0.4-1.3-2.5-1.8-0.2-3.2
		c0.9-0.6,2.2-0.9,3-1.7c0.7-0.7-0.4-1.5,0-1.9c1-1,5.4-0.9,6.8-0.7c0.8,0.1,1.6,0.8,2.4,0.8c1,0,1.6-1.4,2.6-1.8
		c2.1-0.8,2.4-2.3,0.8-4.3c-0.9-1.1-1.3-3.5,0.6-3.6c0.1,0-1-3.2-1.4-3.6c-0.6-0.6,0-2.1,0.2-2.8c0.6-2.1,2.3-1.2,3.8-0.5
		c0.4,0.2,3.5,0.8,3.4,0.9c1.1-1.3-0.4-2.4-0.1-3.3c0.2-0.6,3.4,2.7,3.9,3c1,0.5,5.9,0.2,3.3,2.5c-1.7,1.5,1.3,2.1,2.3,1.3
		c0.4-0.3,0.7,1.2,0.9,1.5c0.5,0.7,1.2,0.6,1.8,1.1c0,0-2.8,1-3.2,1.1c-1.2,0.1-1.7,0.1-2.2,1.4c-0.2,0.5-1.5,3-0.7,3.3
		c0.7,0.3,1.4-0.2,2.1,0.1c0.1,0,0.5,0.6,0.5,0.6c1.1-0.2,1.4-2.6,1.4-3.5c0.1-1.3,2.1-1.2,2.3-2.5c0-0.1,3.1,0.1,3.5,0.4
		c1,0.6,1.1,1.5,2.2,1.8c0.3,0.1-0.4,2.2,0,2.6c0.6,0.6-0.7,1.4-1.1,2c-0.7,0.9-1.1,2.1-2.2,2.7c-0.5,0.3-2.9,0.9-3.2,0.2
		c0.2,0.4,3,2.4,3.2,1.9c-0.2,0.7-1,1-1.1,1.8c0,0.1,0.2,0.7,0.2,0.7c-0.5,0.6-3.2,0.6-4.1,0.6c-1.4,0-4-0.7-5,0.8
		c-1.3,1.9-2.9,2.5,0.2,3.5c1.6,0.5,3.7,0.2,5.4,0.2c1.5,0,3,0.1,4.4-0.4c0.7-0.2,4.1,3.3,4.7,3.9c0.8,0.8,3.3,2.1,3.3,3.2
		c0,0.9,2.5,0.1,3.3,0.3c1.6,0.4,3,1.4,4.5,2.1c1.2,0.6,2.5,0.8,3.8,1.2c0.6,0.2,2.5,1.5,2.5,0.5c0-1-2.2-2.2-2.9-3
		c-1.2-1.4-2.5-2.7-3.6-4.1c-0.5-0.7-0.6-2.4,0.8-2.2c1.3,0.3,2.2,2.6,3.5,3.3c0.8,0.4,1.8,1.8,2.8,1.7c0.5,0,1-0.7,1.1,0.1
		c0-0.3,0.7-1.3,0.9-1.6c0.2-0.2,1.1-0.3,1.1-0.3c0.3-0.7-0.6-3.4-1.2-4c-0.5-0.5-1-1-1.3-1.6c-0.1-0.2,0-0.6,0.1-0.5
		c-0.4-0.5-2.2-1.9-2.9-1.7c-0.3,0.1-2.1-2.6-2.6-3c-0.5-0.4-1.9-1.9-1.9-2.5c0-0.7,1-0.8,1-1.4c0-0.4-0.6-0.5-0.6-0.8
		c0,0.2,3.4,0.7,3.9,0.2c0.6-0.6,2.7,1.9,3.2,2.3c0.7,0.7,2.5,2.1,2.7,3.1c0.1,0.4,1.6,1.4,2,1.4c0.5,0,2.2-3,2.7-3.5
		c0.5-0.5,1.2-0.8,1.7-1.4c0.6-0.8,4.5-3.5,1.7-3.6c0,0,0.2,0.2,0.2,0.2c-2.5-1-4.3-3.4-7.2-3c-1.4,0.2-5.2-1.2-4.6-2.5
		c0.3-0.7-4-0.2-4.3-0.2c-1.1,0-1.7-1.4-2.4-2c-0.4-0.4-1.8-0.5-2-0.8c-0.9-1.3,7.5-4.4,6.4-5.7c-0.7-0.9-3-1.7-4.2-2.1
		c-1.9-0.6-2.2-0.6-3.3,0.5c0,0-2.8-4.5-3.2-5.1c-0.6-1-2.9-1.6-3.9-1.5c-0.1,0,0.1,0.1,0.1,0.1c-1.5,0.2-5.4-1.3-6.6-2.2
		c-0.8-0.6-1.6-1.2-2.5-1.8c0,0-0.5-0.2-0.6-0.2c-0.4-0.4-0.7-1.3-0.8-1.4c-0.7-0.7-2.5,0.5-2.6,0c0,0-0.9-4.3-1.4-3.7
		c0.3-0.4,1.3,0.2,1.7,0c-0.7,0.4-3.8-0.7-4.6-0.9c-1.2-0.2-2.5-0.5-3.7-0.7c-1.8-0.3-3.7,0-5.4-0.1c-1.3,0-3.6-0.8-4.8-0.3
		c-1.3,0.6-2.9,0.9-4.1,1.7c-0.1,0-2,2.2-1.6,1c-0.2,0.6,0.2,2.5,0.7,2.9c0.7,0.6-0.2,1.6-0.5,2.4c-0.3,0.8-0.8,1.9-0.8,2.8
		c0.1,0.6,1.1,1.5,0.8,2.1c-0.1,0.2-2.4-2.8-2.6-3.2c0,0,0,0.1,0.1,0.1c-0.9-1.3-3-4-2.1-5.8c1.1-2,3.7-3.3,5.7-4.4
		c-3-1.3-6.2,0.2-9.2,0.6c-1.3,0.2-1.9,0.8-2.4,2c-0.8,1.9-2.3,3.5-2.6,5.6c-0.2,1.5-1,3.8,0.7,4.7c1.3,0.7,3,0.2,4.4,0.8
		c2.1,0.9-3.6,1.8-3.6,1.7c0.2,0.5,2.4,1.2,2.9,1.4c1.4,0.7,2.9,0.6,4.4,1.1c1.5,0.5,4,1.9,3.4,3.9c-0.8,2.7-0.6,5.3-2.6,7.6
		c-0.6,0.7-2.6,3.8-3.7,3c-0.8-0.5-1.9-0.7-1.9-1.8c-0.1-1.5,1.1-2.5,1.6-3.8c0.7-1.6-3.8-3.7-5.1-2.1c-0.6,0.7-2.7,3.8-3.1,1
		c-0.2-0.9,0-2.6-0.7-3.3c-0.8-0.8-1.4,0-1.9-0.1c0.5,0.1-1.6-1.7-1.1-0.8c-0.7-1.4,0.2-3.6-0.3-5.2c-0.7-2.3-2.4-4.1-4.2-5.6
		c-1.8-1.6-0.7-2.7,0-4.5c1.1-2.5,2.1-0.5,3.8-1c1.5-0.5,4.8-2.9,5.7-4.3c1.6-2.5-3.4-2.5-4.4-2.6c-2.7-0.4-5.7-0.6-8.3,0.4
		c-1.6,0.6-4.7,2.8-3.2,4.6c1.1,1.4,3.2,4.1,2.6,6c-0.3,0.8-0.2,1.5-0.9,2.1c-0.9,0.8-2,0.9-2.9,1.6c-0.9,0.7-2.1,4.4-1,5.3
		c1.9,1.4,4.6,1.8,6.7,2.7c2.5,0.9,1.3,5.1-0.6,6c-0.9,0.4-1.6,0.7-1.8,1.8c-0.2,0.8,0.4,2.3-0.2,2.9c-0.5,0.5-1.7,0.6-2.3,0.9
		c-1,0.4-0.8-0.9-0.8-1.6c0-0.3,0.5-1.8,0.5-1.9c-0.5-1-1.7-0.9-2.1-1.4c-0.8-1.1,3.6-2.2,4.2-2.2c-0.1-0.7,0.7-1.5,0.6-1.8
		c-0.1-0.4-3.7-1.2-4.4-1.9c-0.7-0.7-1.5-2.3-2.6-1.5c-0.9,0.6-0.8,1.6-1.9,2.2c-0.2,0.1-5.8,2.2-3.4,2.8c1,0.3,2.1,0.4,3.2,0.6
		c0.5,0.1,1,0.4,1.5,0.3c0.2,0,0.9-0.4,1-0.4c-0.1,0-1.6,2.1-1.9,2.7c-0.1,0.2-0.9,1.3-0.8,1.4c0.4,0.3,0.5,0.7-0.1,0.8
		c-1.6,0.2-3.4-0.4-5.1-0.4c-1.3,0-2.6-0.1-3.8,0.2c-0.7,0.1-1.4,0.5-2.1,0.2c-1.1-0.4-2.1-1.1-3.2-1.5c-1-0.3-2.5-0.6-3.1-1.7
		c-0.6-1.1-1.5-1.6-2.6-2.1c-1.2-0.6-2.6,0.4-3.9,0.6c-1.1,0.2-2.3,0.4-3,1.3c-0.8,1.1-0.2,2,1.1,1.7c1.6-0.3,3.6-1.7,5.2-1.5
		c-1.2-0.2-5.2,1.8-5.6,3.2c-0.4,1.1,3.6,4.7,0.3,3.4c-2.4-0.9-2.1-4.6-5.4-4.2c-2.8,0.3-5.5,0.7-8.4,0.7c-1,0-5.7,0.8-6.2-0.2
		c-0.4-0.9,1.5-1.3,2-1.4c1.6-0.2,0.8-1.7,0.4-2.7c-1-2.8-4-1.3-6.2-1.4c-2.6-0.1-5.6-1.2-8.1-1.8c-1.1-0.3-2.3-0.5-3.3-1.1
		c-1.2-0.7-2-1.9-3.4-2.4c-2.8-1-2.9,3.9-5.7,2.6c-0.9-0.4-1.6-4.1-2.9-2.4c-1.6,2.2-2,4.1-4.8,1.4c-1.3-1.3-1.8-2.7-2.6-4.3
		c-0.7-1.2-1.6,0.9-1.6,1.5c-0.2,2.2-3.7,2.1-5.4,1.6c-0.6-0.1-0.9-0.8-1.6-0.9c-1.5-0.2-3.2,1-4.5,1.7c-1.3,0.7-2.5,1.3-3.9,1.8
		c-0.2,0.1-1.6-0.9-2.4-0.7c-2.3,0.5-4.4,3.7-6.7,3.4c-2.5-0.4-4.3-3.2-7-3.5c-1.9-0.2-3.7-1.3-5.5-1.1c-1.1,0.1-2-0.8-2.6-1.6
		c-0.6-0.9-2.6-0.6-3.4-0.3c-1,0.3-1.6,1-2.7,1c-1.4,0-2.3-0.6-3.5-1.3c-2.2-1.4-5.6-0.3-8.2-1c-1.2-0.3-2.3-1.1-3.5-1.2
		c-1.3-0.1-2.5,0.7-3.8,0.9c-1.1,0.2-2.5,0.1-2.7-1.2C63,75,61.4,74.9,60,75.1c-1.4,0.2-2.8,0.7-4.3,0.3c-1.3-0.3-2.4-1.3-3.8-1.5
		c-2.1-0.3-5,0.8-6.9,1.4c-1.9,0.6-2.9,0.9-3.8,2.5c-0.3,0.6-2.4,0.9-3.1,1c-1.5,0.1-2.2,0.1-3.3,1.4c-1.1,1.4-2.3,4.1-4.3,4.4
		c-1.1,0.2-8.7,0.5-6.4,2.9c0.9,1,2.6,1.1,3.7,1.7c1.3,0.6,2.2,1.6,3.2,2.5c2.2,2.1,3.9,3,6.9,3.5c1.6,0.2,4.1,1.6,1.3,2.6
		c-1.6,0.6-4.9,1.7-6.5,0.9c-1-0.5-0.3-1-0.9-1.6c-0.5-0.5-2.1-0.8-2.8-0.6c-2.3,0.8-4.4,2-6.7,2.8c-2.3,0.7-3.2,2.7-0.3,3.8
		c1.8,0.7,2.6,2.1,4.9,2.2c2.4,0.1,4.7,0.6,7,0.6c1.1,0,2-0.8,3-1c0.3-0.1,1.7-0.7,1.8-0.7c0.3,0,0.5,1.6,0.9,1.1
		c-0.2,0.3,0.4,3.2,0.3,4c-0.2,1.3-2.3,0.8-3.4,1.2c-0.9,0.3-0.9,1.3-1.9,1.4c-1.3,0.2-3.2-0.8-4.3,0c-1.3,0.9-1.3,2.9-2.7,3.7
		c-0.5,0.3-1.2,0-1.6,0.3c-0.5,0.3-0.5,1.8-0.7,2.4c-0.7,2.4,2.2,0.8,3.4,1.5c1.2,0.8,1.3,2-0.1,2.8c-1.2,0.7-3.3,0.2-1.4,1.8
		c1.3,1,4.1,1.9,5.6,0.9c1.2-0.8,3.5-1.3,4.1,0.5c0.6,1.7-1.4,3,0,4.4c1.5,1.6,2.8,0.7,3.9-1c1.1-1.7,2,0.4,3.2,0.9
		c1.6,0.6,2.5,0.7,4.1-0.1c0.4-0.2,3.9,0,3.9,0.5c0,0.5-2.8,1-3.1,1.9c-0.4,0.9,0.6,2.3-0.1,3c-2,1.8-5.5,2.9-6.9,5.3
		c-0.7,1.3-2,1.2-3.4,1.4c-1.6,0.3-2.9,1.4-4.3,2.3c-1.2,0.7-2.4,1.2-3.7,1.8c-1.4,0.6-2.4,1.8-3.7,2.4c-1.5,0.6-2.9,1-4.1,2.1
		c-0.7,0.6,1.2,0.6,1.6,0.4c0.6-0.4,1.5-1.1,2-1.4c1.3-0.6,2.3-0.5,3.6-1.4c1.1-0.7,0-0.7,1.5-1c1.3-0.3,2.5-0.6,3.7-1.2
		c0.5-0.3,3.8-1.5,3.7-1.6c0.8,0.8,7.3-3.3,8-3.8c3.2-2,6-5.4,9.5-6.8c1-0.4,4.1-2.6,3.9-3.7c-0.1-0.7-1.2-1.5-0.9-2.2
		c0.3-0.9,2-1.9,2.7-2.6c1.2-1.3,2.4-3.6,4.1-4.2c0.8-0.3,1.9-0.8,2.8-0.9c0.2,0,2.9,0.1,2.6,0.4c-0.5,0.5-1.6,0.4-2.2,0.6
		c-0.8,0.2-2,1.1-2.6,1.7c-0.6,0.6-0.6,1.5-1.3,2.1c-0.9,0.8-0.2,1.4,0.2,2.3c0.9,2,1.9,0.8,3.3-0.4c1-0.8,1.8-1.1,3.1-1
		c0.9,0.1,2.4,0.5,3.2-0.1c1.2-1-0.3-2.8-0.3-4c0-2,4.5-0.3,5.1,0.3c1.1,1.1,2.2,1.4,3.6,1.8c0.8,0.2,0.9,0.7,1.4,1.2
		c0.7,0.6,2,0.3,2.9,0.4c1.6,0.3,3-0.3,4.4-0.9c0.6-0.3,1.3,0.2,1.7,0.2c0.6-0.5,2.2-0.2,2.9,0c1.9,0.6,3,2.9,4.6,4
		c1.5,1,2.9,1.9,4.5,2.5c0.9,0.4,3.6,1.1,4.3,0.1c0.5-0.8,3,2.7,3.6,3.3c1.5,1.5,1.4,3.3,3,4.9c0.8-0.9,2.9,2.5,3.5,3.1
		c1.1,1.1,1.4,1.6,1.7,3.2c0.1,0.6,0.7,2.2,0.3,2.5c0,0,1.4,1.4,1.6,1.6c0.2,0.2-0.4,0.7-0.3,1c0.2,0.8,3.2,1.1,4,1.3
		c1.4,0.3,0.5,1.9,1.3,2.7c1.4,1.4,1.8,1,3.7,0.7c-0.2,0.8-0.4,0.7-0.4,1.5c0,0.7-0.8,0.5-0.8,0.3c0,0.5,1.7,3,2.2,3.5
		c0.8,0.6,5.4,1.3,4.8,0c0.6,1.2,1.3,2.9,2.5,3.6c1,0.5,0.9,0.6,1.3,1.6c0.6,1.4,0.8,1.5-1.2,1.5c-1.1,0-2.6-2.5-3.3-3.3
		c-1.3-1.5-3.3-1.8-5.1-2.2c-1-0.2-3.3,0.1-1.7,1.3c1.4,1.1,2.6,1.7,4.3,2.3c0.6,0.2,0.8,1.1,1.4,1.4c0.8,0.4,1.3,1.2,2.1,1.6
		c1.4,0.8,3.7,0.9,5.2,1.2c-0.5,0-4-0.2-4,0.6c0,2,2,3.6,2,5.8c0,3.1-0.2,6.2-0.2,9.2c0,1.1-1.9,2.4-1.6,3.6
		c0.2,0.8,1.1,1.5,1.3,2.4c0.3,1.4-0.1,2.2-0.6,3.4c-0.7,1.5,1.2,3.5,1.8,4.8c1.1,2.4,1.1,5.5,4.7,4.9c-2.4,0.6,0.7,4.1,1.2,5.2
		c0.5,1.1,0.9,1.6,1.8,2.5c0.8,0.8,0.2,1.2-0.1,2c-0.2,0.6,5.1,2.1,5.9,2.7c1.9,1.3,3.5,2.4,4.4,4.5c-0.3,0-0.6,0-0.9,0
		c1.4-0.3,1.6,1.9,2.1,2.9c0.8,1.7,2,2.6,3.1,4.1c1.1,1.6,1.8,3.4,3.2,4.9c1,1.2,2.5,3,0,2.7c-1.9-0.2,0.8,2.2,1.2,2.5
		c0.8,0.5,1.8,0.6,2.7,1c0.8,0.3,1.1,1.1,1.9,1.4c1.2,0.6,0,2.9,0.5,4c0.5,0.9,2.6,1.5,3.4,2.4c0.8,0.9,1.7,2,2.6,2.7
		c1.5,1.4,2-1.3,1.4-2.3c-1-1.7-2.6-0.2-2.7-2.7c-0.1-1.1-1-1.5-1.5-2.4c-0.4-0.6-0.5-1.5-0.8-2.2c-1.4-3.1-4.1-5.8-6.3-8.4
		c-2.2-2.7-3.2-4.6-3-8.1c0.4-0.1,0.6,0.5,1,0.6c0.9,0.2,2.3,0.6,3.1,1c1.7,0.9,2,4.5,2.8,6.1c1,2,2.4,2.6,4,4
		c0.7,0.6,1,1.5,1.6,2.2c0.7,0.7,1.4,0.8,2.1,1.3c0.6,0.5,0.4,1.7,0.5,2.3c0.2,1.2,1.3,1.7,2.3,2.3c1.3,0.7,2.2,2.3,3.1,3.4
		c1.3,1.4,7.9,6.9,5.5,9.2c-2.4,2.4,3.8,6.3,5.2,7.4c1.2,0.9,2.4,1.1,3.8,1.5c1.7,0.5,2.9,1.8,4.5,2.5c2.3,1,4.8,1.3,7.2,2.2
		c1.7,0.7,4.1,1.7,6,1.1c2.3-0.7,3.9-1.5,6.2,0.2c1.3,1,3.2,2.3,4.2,3.7c0.3-0.5,0.7-1.1,0.9-1.7c-0.1,1.1-1.7,2.2,0.1,3
		c0.9,0.4,4,0.7,4.9,0.2c-0.1,0.1-0.2,0.2-0.4,0.3c2.1,1.2,5.3,2.1,7.7,2c0.7,2,2.3,4.8,4.1,6c-0.6-0.3,0.1,1.7,0.2,2.1
		c0.6,1.6,2.3,1.4,3.6,2.2c0.5,0.3,3.9,5,4.3,2.7c-0.2,0.5-0.2,0.8-0.1,1.2c0.5,1.3,0.6,0.6,1.3,0c1.8-1.5,5,3.7,6.5,1.4
		c0.5-0.8-0.3-1.8,0-2.6c0.4-1,2.2-0.7,3.1-0.7c1.9,0.2,2.3,4.8,4.2,2.9c-0.6,3.9,1.3,7.8,0,11.7c-0.7,2.2-1.6,2-3.2,3.3
		c-1.3,1.1,0.2,3.1,1.1,3.7c-1.2-0.7-1.4-1.3-2.5-0.4c-1.2,0.9-1.9,2.1-2.6,3.5c-0.6,1-1.9,1.3-2.4,2.3c-0.4,0.8-0.2,2.9-0.1,3.8
		c0.4,2.5,4.2-2.4,4.5-0.4c0.2,1.5-0.4,2.4-1.9,2.6c-1.9,0.3-1.1,0.9-1.2,2.5c-1.5-1.6-2,0.7-2.4,1.9c-0.3,1.1,1.1,2.1,1.8,2.8
		c0.6,0.7,0.2,1.7,0.8,2.3c3.3,3.9,6.5,8.7,8,13.7c0.5,1.8,2.4,2.9,2.8,4.7c0.2,1.2,0.1,2.8,0.9,3.8c1,1.3,3,1.7,4.2,2.9
		c2.1,2,4.9,2.6,7,4.6c0.7,0.7,1.9,1,2.5,1.7c0.8,1.1,1.8,2.3,3.1,2.8c-0.1,0,0,2.8,0,3.1c0.2,1.7,1,2.7,0.3,4.5
		c-1.5,3.9-1.4,7.7-1.3,11.8c0,1.7,0.1,3.6-0.5,5.2c-0.7,1.8-1.4,2.5-1.5,4.6c0,0.9,0.1,3.2-0.4,3.9c-1.1,1.5-0.4,3.9-0.3,5.6
		c0.2,4.2-1.6,8.5-2.9,12.5c-0.6,1.8-1.2,3.4-2.3,4.9c-1.2,1.6,0.3,3.1,0.3,4.9c0,1.8-1,3.1-1.5,4.7c-0.2,0.8,0,1.8,0.4,2.5
		c0.4,0.8,0,1.2-0.2,2c-0.5,1.8-1.1,3.6-1.4,5.5c-0.3,2,1.4,0,1.4,0.1c0.1,0.3,0.9-4.6,0.3-3.9c0.4-0.4,1.1-1.5,1.7-1.7
		c0.7-0.2,1.1,0.3,1.4-0.1c-0.8,0.7-0.5,5.3-1.2,5.5c-0.5,0.2,1.5,2.3-0.4,3c-1,0.3-0.5,3.3-0.5,4.1c0,3.3-2.9-0.2-4.4,1.3
		c-1,1-2.3,0.6-1.8,2.5c0.4,1.5,0.6,1.8,2.1,1.8c1.3,0,1.8-0.4,1.8,1.2c0,1.5-0.2,1.3,1.2,2.3c-0.7,0.3-1.3,0.7-2,0.7
		c-1,0-2-0.2-1.8,1c0.2,1.3,0.2,3.2,0.9,4.3c1.3,1.3,1.2,2.3,1.7,3.7c0.1,0.3,1.2,1.9,1.2,2.1c0-0.1-1.4,1.9-1.5,2.1
		c1.8,0.4,1.5,1.1,1.5,2.5c0,1.1,0.9,2,2,2c1.6,0,1.5,1.5,2.9,1.8c0.4,0.1,1.8,0.6,2.1,0.5c0.7-0.4,0.2-1.5,0.2-1.4
		c0.3-0.4,0.7-0.7,1.1-1.1c1.2,1.4,1.7,1.7,1.7,3.5c0,0.5-1.2,0.4-1.3,0.9c-0.1,0.7,1.4,1.4,1.9,1.8c1,0.7,2.4,2.6,3.7,2.6
		c0.6,0.1,1.4-0.3,2.1-0.6c0.5-0.3,3.3,0,2.6-0.5c1,0.4,5.2-0.9,4.7-1.5c-0.4-0.5-2.5-0.4-3.2-0.6c-1.5-0.6-3.2-1.6-4.2-2.8
		c-1.1-1.4-1.1-1.5-1.3-3.1c-0.1-1.1,0-3.1-1-3.9c-1.6-1.3-1.9-1-1.3-3.4c0.4-1.5,0.8-2.6,2.3-2.8c3.1-0.4,1.5-5.2,4.3-6.3
		c1.6-0.7,2.5-1.6,2.8-3.3c0.4-1.8-0.1-1.3-1.6-1.9c-1.3-0.6-2.8-0.3-3.1-2.2c-0.1-0.7,0-3.1,0.9-3.4c1.3-0.3,3-0.8,4-1.6
		c0.8-0.6,1.1-1.6,1.2-2.5c0-0.5-0.2-2.2,0.1-2.5c0.3-0.3,1.3,0.2,1-1.1c-0.3-1.2,0.6-1.2,1.7-0.9c1.1,0.4,1.8-0.5,1.5-1.6
		c-0.1-0.8-3.3-0.1-3.7-0.7c-0.2-0.4-0.1-2.8-0.2-3.4c-0.3-1.9,2.6,0,3.2,0.3c0.9,0.4,3.8,0,4.3-0.8c0.3-0.5-0.2-2.4,0-3.2
		c0.4-1.2-0.4-2.1,0.6-3.1c0.7-0.7,3.2-0.2,4.2-0.2c2.5-0.1,4.9-0.9,7.2-1.5c2.6-0.7,4.1-4.8,2.6-7c-0.9-1.3-0.3-2-0.7-3.5
		c-0.4-1.3-2.5-0.6-2.6-2.4c0.6,0,1.2-0.3,1.8-0.2c0.6,0.2,1.2,0.8,1.8,1.1c1.2,0.5,2.7,0.8,3.9,0.8c2.8,0.1,5.5-3.6,7.1-5.6
		c0.9-1.1,1.1-2.5,1.7-3.8c0.6-1.1,1.7-1.9,2.2-3.1c0.5-1.3,1.4-0.4,2.4-0.9c1.4-0.7,2.3-3.3,3.3-4.4c0.9-1,2.1-0.4,2.4-1.9
		c0.3-1.7-0.2-3.5-0.2-5.2c0-1.2-0.3-2.6,0.5-3.6c1.1-1.4,2.9-2.1,4.3-3.2c1-0.8,1.1-1.7,2.5-1.7c1.1,0,1.5,0.9,2.4,0
		c0.8-0.8,1.8-2.1,3.1-2.3c1.9-0.3,3.7,0.1,5.3-1.4c0.8-0.7,1.8-0.9,2.5-1.6c0.8-0.7,1.1-2.3,1.6-3.2c0.6-1.1,1.7-2.1,2.1-3.2
		c0.6-1.8,0.3-3.3,1.3-5c1.4-2.3,1.3-6.1,1.3-8.8c0-1.2-0.4-6.4,1.3-6c1.5,0.3,2.2-2,2.5-3.1c0.3-1.5,1-2.7,2.4-3.5
		c3-1.8,4.8-4.2,4.8-7.8c0-3.2,0.2-7.1-4-7.4c-2.7-0.3-4.6-1.9-6.3-3.9c-2.8-3.3-7.2-1.3-10.7-3.1c-2.4-1.2-3.1,0.1-4.9,1.2
		c-0.4,0.2-1.8,0.4-1.6-0.5c0.2-1,1.2-0.7,1.7-1.3c1-1.1-6.4-3.8-7-4c-1.5-0.5-2.6-0.7-3.8,0.6c-0.3,0.3-3.9,3.9-4.1,1.9
		c-0.1-0.8,3.4-2.2,3.9-3.1c0.6-1.1-3.6-2.2-4.2-2.6c-1.3-0.9-2.6,1.2-2.4,2.3c0.2,1.2-1.9,1.2-1.9,0c0-1.9,0.9-1.8,2.6-2.3
		c1.6-0.4,1.6-4,0.3-4.7c-1.6-0.9-2.4-0.9-2-3.1c0.1-0.7-0.6-3.6-1.1-3C342.5,301.6,339.3,301.3,337.7,299.8 M287.1,181.3
		c2.3-1.2,4-4.3,5.8-6c-1,1.6-1.6,3.6-3.1,4.8c-1.6,1.3-3.8,1.9-5.8,1.7C285,181.7,286.2,181.7,287.1,181.3
		C288.2,180.7,286.4,181.6,287.1,181.3z M279.6,181.8c-0.3,0.1-0.5,0.1-0.7,0.1C279.1,181.9,279.4,181.8,279.6,181.8z M266.1,188.4
		c0.4-0.9-0.3-1.4-0.1-2.2c0.3-0.9,2-1.5,2.8-1.6c2.4-0.4,4.7-0.6,7-1.6c-0.7,0.9-0.5,2.1-1.3,3c-1.1,1.2-3.3,1.6-4.8,1.7
		c-1.8,0.1-3.4,2.3-5.1,3.2c-1.9,1-3.8,1.7-5.8,2.4c-0.7,0.2-2,0.7-2.6,0.1c-0.6-0.6-1.2-2.2-0.5-2.9c-0.9,3.3,2.4,0.8,3.6,0
		c0.9-0.6,2.3-1,3.3-1.3C263.7,189,265.5,189.6,266.1,188.4C266.9,186.9,265.4,189.9,266.1,188.4z M235.7,171.8
		c1.4-0.4,2.6-0.5,3.5-1.7c1.3-1.7,1.5-2.5,3.8-2c0.9,0.2,2.1,0.2,2.7,0.8c0.7,0.7,1.8,1.3,2.7,1.5c0.3,0.1,1.1-0.2,1.2-0.2
		c0.3,0.2,0.6,1.6,0.7,1.9c0.4,0.9,1.1,1.5,1.6,2.3c1.1,1.7,1.4,2.3,3.6,2.5c2,0.2,3.4,0.8,5.2,1.6c0.7,0.3,2.8,2.9,2.5,3.6
		c-0.2,0.7-1.6-1.3-1.7-1.3c0,0-1.8,4.3-2.1,4.6c-0.9,1.1-1.7,2.3-2.6,3.4c0.6-1.5,0.8-3.6-1.3-3.2c-2,0.3-2.5,0.1-1.2-1.8
		c0.8-1.3,0.4-3.6-1-4.3c-2-1-3.6-0.3-5,1.4c-0.8,0.9-2.8,3.4-2.6,4.7c0.4,1.8,1.2,3.8,0.8,5.7c-0.3,1.3-3.2,2-3.8,0.6
		c-0.8-2-0.7-5-0.1-7.1c0.5-1.8,0-3.3,1.4-4.7c1.2-1.2,3.8-2.2,5.5-2.2c0.9,0,4.2,0.9,2.6-1.3c-1.3-1.8-4.5-0.9-6.2-0.5
		c-1.2,0.3-3.9,0-3.9-1.7c0-2.8-3.5,0-4.7,0.5c-1.2,0.5-3.7,1.6-5,0.7C230.3,174.1,234.4,172.1,235.7,171.8
		C236.7,171.6,234.7,172.1,235.7,171.8z M233.7,170.8c-1.3,0-1.5,0.2-2.7-0.4C231.9,170.5,232.8,170.6,233.7,170.8
		C232.7,170.8,233,170.7,233.7,170.8z M283.8,71.7C284,71.7,284,71.7,283.8,71.7L283.8,71.7z M118.8,140.4c0.1,0.1,0.1,0.2,0.2,0.3
		C119,140.6,118.9,140.5,118.8,140.4z M270.4,324.1c-1.1,1.8-2.1,3.6-3.2,5.3c-0.6,0.9-0.8,1.5-1.7,0.4c-0.6-0.8-1.1-1.7-1.8-2.4
		c1.8,1.3,1.7,3.7,3.9,1.4C268.6,327.6,270,324.8,270.4,324.1C269.6,325.3,270.4,324,270.4,324.1z M327.6,300.1"/>
	<path fill="#FFFFFF" d="M624.3,353.6c-0.4-1.1-0.7-2.8-1.9-3.4c-0.5-0.1-3,2.9-3.4,3.4c-0.8,1.1-0.6,2.8-1.4,3.7
		c-1.3,1.5-4.5,2-6.3,2.1c-1.2,0.1-3.8-0.3-4.1,1.4c-0.4,2.1,1.2,2.7,1.7,4.4c0.3,0.9,0.1,1.9,0.3,2.9c0.2,0.6,0.7,1.2,0.8,1.8
		c0.2,2.1-2.7,4.2-3.4,6.1c-0.7,1.9-0.2,4.5,0.2,6.5c0.4,2.5,1.9,3.6,4.2,4.4c4.8,1.7,6.4-2.4,7.2-6.2c1-5.1,1.3-9.9,3.6-14.6
		c1.1-2.2,1.4-4.2,1.8-6.6C627.6,360.6,625,355.4,624.3,353.6C623.2,350.6,625.4,356.6,624.3,353.6z"/>
	<path fill="#FFFFFF" d="M423.9,78.6c-1.8-0.2-6.5,1.4-6.5-1.5c0-1.4,0.9-1.9,2.1-2.1c1.5-0.2,1.9-0.6,3-1.6
		c0.9-0.8,0.9-1.6,0.9-2.8c0-1.1-0.8-1.6-0.4-2.3c0.6-1,1.2-2.1,1.9-3.1c0.1-0.1-0.9-1.3-0.6-1.9c0.6-1.4,2.4-1.7,3.7-2
		c1.3-0.3,1.8-2.4,2.1-3.5c0.5-1.9,3.5-6.5,2.1-8.4c-1.3-1.9-6-2.5-4.1-6c1.3-2.4,5.5,0.2,6.4,1.8c0.9-0.7,2.3-2.3,1.5-3.5
		c-1-1.6-3.5-0.1-4.5-2c-0.6-1.2,0-2.4-1.7-2.5c-1.2-0.1-2.5,0-3.8,0c0.4-1.2,1-2.3,1.6-3.4c0.4-0.7,0.8-1.5,1.4-2.1
		c0.8-0.8,2-1,2.7-1.8c1-1.3-0.8-2.6-0.2-3.7c0.7-1.2,3.5-1.3,4.7-1.6c1.3-0.3,4.8-2.6,4.6-3.8c-0.3-1.8,2.1-1.9,3.3-2.3
		c1.9-0.6,3.6-1.6,5.3-2.7c0.8-0.5,1.6-0.8,1.8-1.7c0.4-2.2-2.7-2.1-4.2-2.2c-2.6-0.2-5.3-0.3-7.8,0.1c-1.8,0.2-1.2,0.2-2,1.3
		c-1.1,1.5-3.6,1.1-5.1,0.5c-1.4-0.6-2.7,1-3.6,1.9c-1.5,1.5-3.3,2.1-5.2,3c-0.3,0.1-3.3,2.4-3.3,2.4c-0.4-0.3,0.4-2.3,0.6-2.6
		c0.6-1.1,1.6-1.8,2.4-2.7c0.8-0.8,0.8-2.1,1.6-2.9c0.2-0.2,1.6-0.6,1.6-0.6c0.2-0.9-4.7-2.2-5.4-2.4c-1.8-0.4-0.6-1.3,0.6-1.9
		c0.9-0.4,2.6-0.9,0.9-1.6c-1.7-0.7-3.7-0.9-5.2-2.1c-1.4-1.1-3.1-1.6-4.7-2.2c-1.1-0.4-2-1.3-3.1-1.7c-1.3-0.5-3.3-0.1-4.6,0
		c-2.1,0.1-4.1,0.3-6.2,0.2c-3.7-0.2-7.4-0.2-11.1-0.5c-2.9-0.2-4.9,2.5-7.5,3.1c-3.7,0.9-8.5,0.2-12.3,0.2c-1.8,0-3.5,0-5.3,0
		c-0.8,0-5.7,1.2-6.1,0.1c0.4,1,1.4,2,2.1,2.8c-0.8,0.2-3.3,0.1-2.6,1c1.4,1.7,3.4,3,5.1,4.5C356.9,10.3,353,8,349,7.4
		c-0.7-0.1-5.6-0.6-5.1,0.8c0.7,2.2,3.2,1.7,4.5,3c-0.5-0.5-4.4,0-5.5-0.3c-1-0.3-3.3-0.9-3.7-2c-0.7-1.8-8.6,0.6-10.4,1
		c-2.1,0.5-4,1.3-6.1,1.4c-0.8,0-4.6,0-4.2,1.4c0.5,1.7-3.2,2.8-4.2,3.4c-0.8,0.5-1.3,1.1-2.2,1.4c-2.2,0.6-4.3,1.1-6.3,2.1
		c-1.1,0.6-2.2,1.2-3.4,1.6c-0.8,0.3-3.3,0.5-3.7,1.3c-0.9,1.8,4,1,4.5,1.2c0.9,0.3,3.2,3.7,2.2,4.5c-2.8,2.3-6.4,1.4-9.5,2.5
		c-3.9,1.4-8.5,2.6-11.5,5.5c1.2,0.9,2.5,1.6,4,2c1.3,0.3,3.3,0.2,4.4,1.1c1.3,1-1.9,2.1-2.3,2.5c-0.9,1,0.8,2.9,1.7,3.2
		c6.1,2.2,13,2.8,19.4,2.5c4.2-0.2,9.4,0.5,12.4,3.8c1.6,1.8,2.9,4,4.5,5.7c1.5,1.6,3,3.1,3.6,5.3c0.4,1.7,0.7,4.3-0.3,5.8
		c-0.6,0.9-1,2.7-0.4,3.7c0.5,0.9,2.9,1,3.8,0.8c0.8-0.2,1.8-1,2.2-1.7c0-0.1,0.5-1.5,0.4-1.5c2,0.2,3.4,3.6,5.3,4.4
		c3.1,1.3-2.4,3-3.6,3.5c-1,0.4-2.7-0.5-3.7-0.8c-0.4-0.1-1.4,1.3-1.5,1.6c-0.6,1.5,2.2,0.7,2.1,0.5c0.5,1.6-1.6,1.6-1.8,2.1
		c-0.1,0.4,4.5,2.8,5.2,2.1c0.6-0.6,3.2-3.9,3.9-1.9c0.5,1.4,1.5,6.1,0,6.9c-2.1,1.1-4.9-0.6-5.9,2.4c-0.4,1.3-0.8,3.4-0.7,4.7
		c0.1,1.7,1.1,2.8,1.8,4.3c0.6,1.1,0.4,2.5,1.2,3.5c0.5,0.6,1.1,1,1.5,1.7c3.4,5.1,6.8,10.2,9.9,15.4c1,1.7,2.7,1.1,4.6,1.4
		c3.2,0.5,5.3,3.3,8.7,2.6c2.9-0.6,5.1-3,3.7-6c-0.4-0.9-1.2-1.9-0.5-2.9c0.8-1.2,2.3-1.4,3.1-2.7c1.3-2.2,2.4-2.9,2.4-5.7
		c-0.1-2.7,0.5-3.8,3-5.1c1.7-0.9,3.5-1.3,5.3-1.5c1.9-0.2,5.2-0.6,6.7-2c1.2-1.1,2.3-2.4,3-3.9c0.6-1.4,2.3-2.1,3.1-3.3
		c0.6-0.9,0.5-1.6,1.7-1.9c2.2-0.5,4.5-0.5,6.7-0.8c4.9-0.6,9.2-2.1,13.4-4.7c2.1-1.3,4.2-2.5,6.5-3.3
		C424.3,79.6,426.6,78.9,423.9,78.6C419.9,78.1,427.9,79.1,423.9,78.6z"/>
	<path fill="#FFFFFF" d="M137,69.4c1.8,0.6,3.2,0.2,4.6,1.8c0.9,1,2.2,3.9,3.9,3.2c1.3-0.5,3.7-1.1,4.8-2c1.2-0.9,1.3-3.3,2.5-4
		c1.2-0.6,2-1,2.8-2.1c1.1-1.4,3.6-2,5.3-2.5c1.5-0.4,3-0.8,4.5-1.2c1.9-0.6-3.2-3.5-3.6-3.7c-1.8-0.9-2.9-1.4-5-0.6
		c-1.6,0.6-2.2-0.1-3.5-0.8c-2.8-1.7-7.4-0.9-10.4-1.3c-1.2-0.1-3.2-0.8-2.5,1.2c0.6,1.6,1.9,2.3,1.5,4.2c-0.2,1.5-1.3,2.7-1.9,4
		c-0.4,1-1,1.8-2,2.4C137.4,68.4,135.7,68.9,137,69.4C138.5,69.9,135.5,68.9,137,69.4z"/>
	<path fill="#FFFFFF" d="M204.6,81.3c1,0,2-1.2,1.2-2c-1-1-2.8-1.1-4-1.3c-3.4-0.5-4.7-1.8-5.2-5.3c-0.2-1.3-0.7-2.4-1.4-3.6
		c-0.4-0.6-1.9-1.6-1.6-2.5c0.6-1.2,1.9-1.6,2.5-2.7c0.4-0.8-0.2-2.6-1.2-2.9c-1.2-0.4-2.7-0.5-4-0.8c-1.3-0.3-0.1,1.6,0.3,1.9
		c1.5,1.5-3.5,1.1-4.4,0.9c-1.7-0.2,0,4.6,0.5,5.3c0.2,0.3,1.7,1.9,0.8,1.9c-0.5,0-2.1,0.1-2.4-0.5c-0.5-1.1-0.5-2.4-1.3-3.4
		c-0.6-0.8-1.7-1.1-2.4-1.6c-0.8-0.6-2.4-0.9-1.4,0.5c0.9,1.2-0.7,1.2-1.6,1.8c-0.3,0.2-1.6,1.7-1.9,0.9c-0.3-0.8,0.2-2.1-0.3-2.7
		c-0.4-0.6-2.1-0.3-2.7-0.6c-1.5-0.5-2.3,1.5-3.6,1.8c-3.3,0.8,2.4-3.8-1.3-3.5c-1.6,0.1-3.5,1.2-4.9,1.8c-2,0.7-4.6,1.2-5.9,3
		c-0.9,1.2-1.7,0.5-1.8,2.4c0,1.3,1.3,2,2.5,2.3c2.2,0.5,4.9-0.8,6.9,0.5c0.9,0.6-1.4,0.6-1.4,0.6c-1.3,0-3.1-0.4-4.4,0
		c-0.7,0.2-1.3,1.5-1.2,2.2c0.1,0.7,1.2,0.9,1.7,1.1c1.6,0.6,4,0.2,5.6,0.2c1.4,0,2.8-0.2,4.2,0c1.3,0.1,4.5,0.1,5.5,1.1
		c0.2,0.2-6.1,0.8-6.9,0.7c-2.2-0.1-5.8-1-7.3,1.1c-1.9,2.6,4,3.1,5.4,3.3c2.3,0.3,3.6,0.1,3.6,2.5c0,1.9,6.5,1.6,7.7,1.3
		c2.6-0.6,4.8-1.6,7.5-1.6c2.3,0,3.4-3.3,5.7-1.7c1.9,1.3,3.1,1.8,5.4,2.3c1.3,0.3,5.8,1.7,5.6-0.9c-0.1-0.9-0.8-1.5-1.2-2.3
		C200.9,81.7,203.9,81.3,204.6,81.3z"/>
	<path fill="#FFFFFF" d="M210.3,70.6c0.4,1,0.4,2,1.7,1.7c1.4-0.2,2.2-1.2,3.8-1c3,0.3,4.2-5.1,1.3-5.9c-5.3-1.4,1.7-2.6-0.5-5
		c-2-2.1-3.7-1.2-6.1-0.7c-1.3,0.2-2.4,0.2-3.6,0.3c-0.8,0.1-2.7,1.4-1.4,2C207,63,207,62.4,208,64c0.7,1.3-1.5,1.4-2.4,1.2
		c-0.5-0.1-3.1-1.5-3.5-1.2c-0.4,0.3-0.8,2.3-0.3,2.7c1.2,1,2.6,1.3,4,1.8C207,69,209.8,69.3,210.3,70.6
		C210.8,71.9,209.8,69.4,210.3,70.6z"/>
	<path fill="#FFFFFF" d="M146.7,48.4c0.9,0,3.3-0.9,4.1-0.3c0.8,0.7-0.2,1.9,1.6,1.6c1.6-0.3,1.5-0.6,3-0.2c1.4,0.4,2.3,0.8,3.7,0
		c0.3-0.2,2.3-1.6,2.5-0.8c0.3,1.1-0.8,1.7-1.5,2.4c-0.5,0.5,0.8,1.4,1.1,1.7c1.1,0.9,3.3,0.4,4.5,0.3c1-0.1,3.1-1,4-0.4
		c0.4,0.3-0.9,1-1.1,1.3c-0.3,0.6,0.3,1.7,0.6,2.3c0.5,1.1,2.4,0.5,3.2,0.4c1.7-0.3,3.2-0.2,4.9-0.7c1.3-0.4,2.8-1.9,4-2
		c2-0.2,4.7-0.4,6.4,0.8c1.1,0.8,4.5-1.9,5.6-2.4c1.1-0.4,1.1-2,1.1-3.1c0-1.2-5.9,0.6-6.7,0.2c-1.5-0.6-2.5-3.3-1.9-4.6
		c0.9-2-3.7-0.2-5-0.3c-0.4,0-0.8-0.2-0.8,0.3c0,0.5-0.7,1.5-0.6,1.8c0.3,0.9,2.9,1.3,3.7,1.5c1.7,0.5,0.6,0.7-0.2,1.6
		c-0.7,0.7-4.2,1.5-4.9,0.6c-1.4-1.8-3.4-3.2-5.7-3.5c-2.2-0.3-4.2-1.6-6.3-0.5c-1.8,1-2.8,0.6-4.7,0.4c-0.8-0.1-4.9,2.5-4.9,1.1
		c0-1.1-0.1-1.7,0.7-2.5c0.5-0.5,1.4-2.3,2.2-1.2c2.8,3.8,6-0.8,5.2-4c-0.6,0.4-0.7,0-1.2-0.4c-1.3-0.9-1.4,0.7-2.4,1.1
		c-1.7,0.7-4.5-0.9-5.8,0.3c-1.9,1.9-4.3,3.9-6.9,4.4c-0.6,0.1-2.6,0.1-2.6,1C145.7,47.8,145,48.4,146.7,48.4z"/>
	<path fill="#FFFFFF" d="M222.7,29c1.5,1.1,1,0.1,1.9-0.6c0.6-0.5,5.3-0.3,5.2,0.1c-0.5,1.8-5.5,0.6-3.1,4.1c0.6,0.9,2.5,1,3.4,1.3
		c1.2,0.4,2,1,3,1.5c1.8,0.9,3.8,0.2,5.6,0c2.3-0.4,3.1-2.8,5-4c0.5-0.3,1.8-1.8,2.4-1.1c0.4,0.5,0.3,0.9,0,1.4
		c-0.4,0.5-2.7,2.6-2.4,3.3c0.3,0.7,3.1,1.2,3.7,1.1c0.6-0.1,3.5-0.9,2.9,0.5c-0.2,0.6-0.7,2.6-1.6,2.1c-1.4-0.9-5.5-2.1-6.7-0.1
		c-0.5,0.7,5.9,2.1,1.6,3.3c-1.7,0.5-3.5,1-5.2,1.2c-2.7,0.4-5.3,1.4-8,1.1c-2.6-0.2-5-0.6-7.5-1.4c-0.8-0.3-6.6-2-5.2,0.8
		c0.6,1.1,0.9,2.2,2.2,2.4c1.8,0.2,3.2,0.4,5.1,0.3c2.7-0.2,4,1.1,5.3,3.3c1,1.7,0.4,1.9,0.4,3.6c0,1.6,1.2,1.7,2.5,2.2
		c1.6,0.5,3.8,1.3,5.4,1c0.6-0.1,1.1-0.5,1.8-0.6c1.5-0.2,0.9,0.7,1.5,1c1.3,0.7,3.7,0.3,5.1,0.2c2-0.1,4.1-0.3,6-0.7
		c0.2-0.1,2.4-0.9,2.5-0.4c0.2,0.7,0.7,0.9,1.3,1.1c1.5,0.6,3.8,0.1,5.4,0.1c2.1-0.1,0.9-0.6,1.4-1.7c0.4-0.8,1.3-2.9,0.7-4
		c-0.2-0.4-2.1-0.7-2.5-0.9c-1.3-0.5-2.2-1-3.6-0.9c-2.9,0.3-5.7,0.9-8.5,1.5c-2.6,0.6-4.2-0.2-6.7-0.6c-1.4-0.2-3.1,0.4-4.6-0.2
		c-0.7-0.2-1.7-2.1-2.2-2.7c-1.2-1.6,5.1-1.5,5.7-1.5c1.1,0,1.4,0.2,2.2,0.7c1.3,0.8,2.9,0,4.2,0c2.1,0,4.7-0.1,6.8-0.6
		c0.4-0.1,2-0.4,2.8-0.6c0.6-0.1,1.5-0.2,2.1,0.1c0.8,0.5,1,1.3,2,1c1.8-0.5,3.6-0.5,5.3-1.4c0.8-0.4,2-1.1,2.6-1.8
		c0.2-0.3-1.7-1-1.9-1.1c-2.3-0.9-2.6-1.4-0.1-1.8c3.5-0.5,1-0.8,0.5-2.4c-0.3-0.8,3.9-0.4,4.5-0.9c0.6-0.4,2.3-1.1,2.5-1.7
		c0.1-0.4-0.9-0.9-1-1.2c-0.4-1.3,3.2-1.5,4-2.2c0.3-0.3,2.1-3.4,1.3-3.2c-2.2,0.5-5.3-1.3-6.7,1c-0.4,0.7-1,1.2-1.8,0.7
		c-1.1-0.7,0.1-1.7,0.7-2.2c2.1-1.9,4.4-0.1,6.6-1.3c1.9-1,3.6-0.3,5.7-0.3c0.9,0,5.3-1.2,5.5-2.3c-0.1,0.5-6-1.6-2.8-1.5
		c2.9,0.1,4.6-0.1,6.9-2c0.9-0.7,2.2-0.9,3.2-1.3c1.5-0.6,2.9-1.2,4.3-1.9c1-0.4,2-0.9,2.9-1.4c0.9-0.4,2.9-0.9,3.5-1.7
		c0,0-1.8,0.2-2,0.3c-1.5,0.3-3,0.6-4.5,0.7c-1,0-2.3,0-3.3-0.2c-0.4-0.1-2.4-1.8-2.1-2c0.6-0.3,2.1,0.3,2.8,0.3
		c1.2,0,2.3-0.2,3.5-0.2c1.8,0,4.1-0.3,5.7-1c2.2-0.9,4.7-1,7-2c3-1.3-1.5-2.7-2.7-3c-0.8-0.2-1.7-0.4-2.6-0.7
		c-0.7-0.2-0.6-0.7-1-1.3c-0.6-0.8-3,0-4,0c-1.2,0-2.4,0.4-3.6,0.7c-0.9,0.2-4.8-0.1-5.1,0.2c0.5-0.6,4.5-0.7,4.4-1.8
		c0,0.3-7.4-0.2-8.4-0.4c-2.2-0.5-5-0.4-7.3-0.4c-0.8,0-1.8,0.7-2.3,1.3c-0.8,1-3.3-0.5-4.2-0.8c-0.8-0.3-1.2-1-2.2-0.7
		c-0.5,0.2-4,1.5-3.9,1.9c0.1,0.2,1.8,0.2,2,0.2c0.9,0.2,0.4,1.4-0.2,1.6c-0.7,0.2-2.8-1.6-3.7-1.8c-3.2-0.9-7.4,0-10.2,1.9
		c-2,1.3-4,1.2-6.4,1.2c-1.2,0-2.6-0.2-3.8,0.1c-1.2,0.3-2,1.4-3.2,1.7c-2.3,0.6-4.5,0.7-6.9,0.7c-3,0-4.7,0.5-7.5,1.7
		c-2.6,1.2,0.1,1.5,1.3,1.9c0.9,0.2,2.7,0.3,3.2,1.3c0.8,1.4,0.5,1.3,2,2.1c2.1,1.3,3.6,1,6,1c1,0,2.4-0.4,2.7,0.8
		c0.3,1.1,1.5,1.2,2.4,1c2.4-0.5,4.1-1.2,6.6-0.5c2,0.6,3.6,0.1,5.6,0c2.3-0.1,2.5-2.5,4.7-3.2c2.5-0.8-1.6,4-1.7,3.8
		c-0.5-1.5-5.8,1.1-6.6,1.5c-2.1,1-3.9,0.4-6.2,0.2c-1.2-0.1-6.4,0.4-5.9,1.2c0.2,0.4,1.7,2.7,0.9,3c-1.2,0.5-3.3-1.1-3.9-2.1
		c-0.8-1.2-1.5-2.9-3.2-2.2c-1,0.4-2.5-1.3-3.7-1.3c-1.2,0-3.2-2-4-2.7c-1.3-1.2-2.4-1.9-4.3-2.2c-3.6-0.5-6.1,2.9-7.8,5.5
		c-1.2,1.8-1.7,2-0.6,3.8C220.9,27.2,221.1,27.8,222.7,29C224.7,30.5,220.8,27.5,222.7,29z"/>
	<path fill="#FFFFFF" d="M205.8,44.9c-1.2,1-3,3.2-4.9,2c-1.2-0.8-2.7-3-4.3-3c-1.7,0,2.3,4.2,2.6,4.5c0.3,0.4,0.9,1,0.9,1.5
		c0.2,1.8-1.7,0.8-2,1.8c-0.6,1.9,3.7-0.1,3.8-0.1c1.4-0.7,2.8-1,4.4-0.7c1.3,0.2,1.3,1.1,1,2.2c-0.2,0.7,3,1.2,3.6,1.3
		c1.1,0.1,2.5-0.4,3.2-1.4c1.1-1.5,2.8-1.2,4.5-1.2c1.2,0-1.1,6.7,3,4c1.5-1,2.7,0.1,4.2-0.2c1-0.2,1.6-2.6,1.5-3.4
		c-0.1-2.3-6.3-1.6-7.9-1.6c-1,0-3.8,0.6-4.6-0.3c-0.7-0.8,0-2.6-0.4-3.6c-0.6-1.4-3.2-1.3-4.5-1.4c-0.8-0.1-1.7-0.2-2.5-0.2
		c-0.4,0-0.9-0.6-1-0.6C206.3,44.5,206,44.7,205.8,44.9C204.3,46.2,207.3,43.7,205.8,44.9z"/>
	<path fill="#FFFFFF" d="M193.1,29.5c0.7,0.4,5.5,2.3,5.2,2.6c-1.4,1.2-5.1-0.7-2.2,2.5c1,1.1,4.8,0.3,6.1,0.2
		c2.3-0.2,5.2,2,7.1,3.1c1,0.6,1.1-0.1,1.6-0.9c0.5-0.9-0.1-1.2-0.5-2.2c-0.3-0.7-0.2-1.4-0.9-1.9c-1.2-0.7-2.7-1.1-4-1.6
		c-2-0.8-4-1.6-6.1-2.1c-1.3-0.3-3-1.3-4.4-1.1C194.3,28.1,191.8,28.7,193.1,29.5C194.3,30.2,191.8,28.7,193.1,29.5z"/>
	<path fill="#FFFFFF" d="M214.8,35.2c0.5,0.8,1.2,2.2,2.3,2.3c1,0.1,1.9-0.8,3-0.8c3.2,0,3.3-1.9,0.5-3c-1.5-0.6-4-1.7-5.7-1.7
		C212.2,32,214.1,34.1,214.8,35.2C215.8,37,213.8,33.5,214.8,35.2z"/>
	<path fill="#FFFFFF" d="M222.3,39.7c1.6,0,4,0.4,5.4-0.7c1.5-1.2-3-0.8-3.4-0.8c-1,0-3.6-0.4-4.5,0C217.1,40,221.1,39.7,222.3,39.7
		z"/>
	<path fill="#FFFFFF" d="M237.2,40.5c0.6-2.4-5.3-1.4-4.9-0.2C232.4,40.7,237,41.4,237.2,40.5C237.5,39.5,237,41.5,237.2,40.5z"/>
	<path fill="#FFFFFF" d="M208,25.7c1,0.3,1.9,0.7,2.8,1.2c1.3,0.7,1.4-0.8,0.8-1.7c-0.3-0.4-1.1-0.9-1.5-1.1
		C208.9,23.3,207.3,25.5,208,25.7C208.8,26,207.3,25.5,208,25.7z"/>
	<path fill="#FFFFFF" d="M181.9,36.5c-1.2-1.1-5.4-0.1-6.9,0.4c-1.8,0.6-5.2,0.6-2.8,2.8c0.6,0.5,1.1,1.4,2,1.6
		c1.5,0.4,3.5-0.8,4.8-1.2c0.2-0.1,2.9-1,1.7-1.5c-0.4-0.2-1.9,0.3-2.1-0.1C178.1,37.7,181.3,36.6,181.9,36.5z"/>
	<path fill="#FFFFFF" d="M180.6,35.7c0.2,0.1,0.3,0.2,0.5,0.2C181,35.9,180.8,35.8,180.6,35.7z"/>
	<path fill="#FFFFFF" d="M177.6,34.7c1.5,0,4-0.5,5.2,0.5c0-2.1-0.8-3.7-3.2-3.5c-1.5,0.1-3,0.7-4.5,0.9c-1.4,0.2-2.4,0.6-3.5,1.6
		C173.6,34.9,175.6,34.7,177.6,34.7z"/>
	<path fill="#FFFFFF" d="M168.9,38.2c0.5-0.1,2.8-0.1,2.7-0.8c-0.2-0.9-1.9-1.2-2.7-1.2C167.5,36.2,166.8,38.6,168.9,38.2
		C170.2,38,167.7,38.5,168.9,38.2z"/>
	<path fill="#FFFFFF" d="M443.7,106.5c0.9-0.5,1.4-0.3,2.1-0.9c0.3-0.3,3.6-2.5,4-1.6c-0.6-1.4-3-2.7-4.2-3.8
		c-0.2-0.2-0.3-1.2-0.5-1.5c-0.4-0.6-1.9-1.9-2.4-2c-2-0.8-4.7,2.3-6.6,2.4c-1.8,0.1-3.7,0-5.5,0c-0.3,0-1.2,1.2-1.4,1.4
		c-0.3,0.3-2.7,0.5-2.7-0.3c0-3.3-5.2-3-7-1.5c-0.5,0.4-0.6,0.8-0.4,1.5c0.4,1.3,2.6,0.6,3.6,0.7c2.7,0.2-2.1,3.3-2.9,3.8
		c1.6,0.4,3.2,0.9,4.8,1.2c0.4,0.1,2.5,0.4,1.8,1.2c-1.3,1.5-3.5,1-5,1.8c0.2-0.1,2.3,0.7,2.7,0.8c1.2,0.2,2.4,0,3.6,0
		c1,0,1.8,0.4,2.7,0.7c0.7,0.2,3.2-0.4,3.5,0.1C434.1,110.7,442.8,107,443.7,106.5C446.3,105,441.1,108,443.7,106.5z"/>
	<path fill="#FFFFFF" d="M516.6,31.7c0.6,2.4,4.1,3.7,6.4,3.7c0.9,0,2,0.3,2.6-0.5c0.4-0.4,0.4-1.7,0.6-1.8c1.1-0.6,1.8-0.7,2.9-0.1
		c0.3,0.1,2.7,0.9,2.4,1.5c-0.3,0.6-2.2,0.2-2.8,0.3c-0.9,0.2-1.7,0.8-2.6,1c-0.8,0.2-1.8,0.1-2.5,0.5c-0.8,0.4,2,1.7,2.2,1.8
		c1.3,0.6,0.8,0.9-0.1,1.6c-1.3,1.1,1.5,1.9,2.2,2.2c1.2,0.5,2.2,1.2,2.9,2.3c0.2,0.3,0.8,2.2,1.4,1.8c1.6-0.9,1.8-4.5,2.9-6.1
		c1.5-2,1.9-3.9,4-5.4c2.1-1.5,3.4-3,5.3-0.4c1,1.3-1.4,5,0.1,5.6c1.6,0.6,5.3,0.4,6.9-0.2c0.5-0.2,2.3-0.8,2.4-1.5
		c0.1-1-2.7-1.8-3.4-2.1c-1-0.5-1.8-1.1-2.4-2c-0.4-0.7-0.4-2-1.1-2.5c-1.4-1-4.7-1.7-6.5-2c-0.9-0.2-2.5-0.3-2.5-1.5
		c0-0.7-1.2-1-1.2-1.3c0-0.2,2.3-0.4,2.6-0.4c0.7,0.1,1.5,0.7,2.3,0.9c1.2,0.3,2.3,0.8,3.5,1.2c1.7,0.5,3.5,0.3,5.3,0.4
		c2.8,0.2,5-1.3,7.6-2.3c0.5-0.2,4.9-3.2,5.4-2.2c-0.3-0.6-3.7-1-4.4-1.2c-1-0.2-2.1-0.5-3.1-0.5c-1.5-0.1-3,0.1-4.5,0.1
		c-1.4,0-2.5-0.9-3.8-0.9c-3.2,0-5.9-1-9,0c-1,0.3-2.1,0.5-2.9,1.2c-1.4,1.2-3,1-4.7,1.7c-1.7,0.8-1.1,1.4-1.2,3
		c-0.1,1.1-1.6,1.9-1.9,0.5c-0.3-1,0.5-2.3-0.7-2.5c-1.4-0.3-3.3,2.7-4.2,1c-0.4-0.7-0.1-1.6-1.2-1.6c-1.7,0-3.5-0.1-5.2-0.1
		c-1.4,0-0.5,2.7-0.2,3.3c0.1,0.2,0.6,0.9,0.5,1.1C516.5,30.2,516.4,31,516.6,31.7C517,33.2,516.2,30.2,516.6,31.7z"/>
	<path fill="#FFFFFF" d="M459,157.4c2.1,0,4-0.6,6-0.6c1.2,0,1.6-1.2,2.4-1.9c0.4-0.5,1.3-0.6,1.7-1.1c0.9-1.3-1-3.1-0.7-3.8
		c0.6-1.7,2.3-2.5,1.3-4.5c-0.6-1.3-3.5-0.9-4.5-0.3c-0.8,0.5-1.1,1.5-2,2c-1,0.5-2,0-3,0.1c-2.1,0.2-0.4,3.8-1,5.1
		C458.6,153.7,456,157.4,459,157.4z"/>
	<path fill="#FFFFFF" d="M469.9,140.9c0.5,1.6,0.4,1.9,2.2,2.4c1.4,0.4,2.5,1.5,3.9,2c0.8,0.3,0.5,2.3,1,3c1,1.5-0.2,2.1-1.4,2.9
		c-0.8,0.6-4.7,0.6-3.4,2.6c1.6,2.5,1.4,5.1-0.6,7.4c-0.5,0.6-1.4,1.5-1.4,2.3c0,0.6,3.2,0.1,3.6,0.1c1.9-0.3,3.2-1.5,5-2.2
		c1.3-0.5,2.7-0.4,4-0.6c1.6-0.3,3.2-0.6,4.8-0.7c1.5-0.1,0.8-1.2,0.7-2.3c-0.2-1.1,3.1-4.7,3.7-3.2c-0.7-1.7-4.3-2.6-5.7-3.7
		c-0.7-0.5-1.2-1.3-1.4-2.1c-0.2-0.8,0.4-0.3,0.5-0.5c0.1-0.7-2.9-2.5-3.7-3.2c-1.5-1.5-3.4-3.2-3.9-5.3c-0.2-0.9,4.9-5.5,2.5-5.5
		c-1.8,0-6.6,0.9-4.1-2.2c-0.9-0.5-2.5-2-3.6-1.3c-0.9,0.6-1.1,1.7-1.7,2.5c-0.5,0.7-1.4,0.5-1.5,0.6c-1.1,0.8-0.4,2.6,0.2,3.4
		C470.7,138.5,469.4,139.5,469.9,140.9C470.3,142,469.5,139.8,469.9,140.9z"/>
	<path fill="#FFFFFF" d="M630,72.4c2.3,0.3,5.1-0.6,4.5,2.6c-0.3,1.9,7.2,1.9,8.4,1.9c0.4,0,2.2-0.2,2-1c0-0.1-1.1-0.5-1.2-0.6
		c-2-1.1-3.9-3-3.8-5.5c0.2-5.7,5.5-10.1,9.8-13.1c1.6-1.1,3.5-1.2,5.2-2.5c2.2-1.6,3.5-2.4,6.4-3c2.3-0.5,17.8-3.2,15.1-7.6
		c-1.5-2.5-4.9-0.7-6.8,0.1c-2.8,1.1-5.3,1.9-8.4,1.9c-2.7,0-4.9,0.2-7.4,1.5c-2.6,1.4-5.2,2.7-8,3.5c-2.8,0.9-4,1.2-5.4,4
		c-0.6,1.2-1.6,2.2-2.6,3.1c-0.6,0.5-3.3,1.7-3,2.8c0.3,1.3,2,0.9,0.2,2.5c-1.3,1.1-1.9,2.3-2.7,3.7c-0.8,1.3-2.3,0.2-2.7,2.2
		C629.3,70.1,628.1,72.1,630,72.4C631.8,72.6,628.3,72.1,630,72.4z"/>
	<path fill="#FFFFFF" d="M856.1,212.7c-2,0.7-4,1.9-5.8,2.9c-0.9,0.5-1.7,1.1-2.4,1.9c-0.2,0.3-1,0.4-0.7,0.1
		c-0.5,0.7-0.3,1.9-0.9,2.7c-0.4,0.6-0.9,0.1-0.5,1c0.5,1.2,0.9,2.8,1.8,3.7c0.8,0.8,0.6,0.7,1.7,0.3c1-0.4,2.1-0.9,2.1-2.2
		c0-0.7,0.7-3.1,0.4-3.7c-0.2-0.4-1.4-0.9-1.9-1.1c1.8-0.9,3.7-1.5,5.7-2c1.1-0.3,3.3-1.3,4.4-0.9c2.2,1-2.4,1.8-3.3,2.1
		c-1.3,0.4-4.8,0.9-2.7,3c2.2,2.2,3.5-2.2,5.6-2.2c1,0,1.1,0.5,2.2,0c1.2-0.5,1.4-1,2.2-1.9c0.4-0.4,0.7-1.2,1.2-1.3
		c1.3-0.3,2.7-0.3,4-0.4c1.1-0.1,2-0.3,3-0.9c1.1-0.7,0.6,0.3,1.1,0.4c0.7,0.2,2.9-7.4,3.1-7.9c1.8-3.4,4.9-7.3,2.5-11.3
		c-0.3-0.5-1-0.9-1.2-1.2c-0.5-0.7-0.8-1.8-1.1-2.7c-0.5-1.3,1.3-1.9,2.2-1.6c2.5,0.8,2.9,1.7,4.9,0c0.4-0.3,5.1-1.5,4.4-0.5
		c0.6-0.9,0.8-2.2,1.1-3.2c-3.8-0.6-6.7-3.4-9.8-5.5c-1.6-1.1-1,4-1.5,4.8c-1,1.9-3.2,3.2-3.8,5.3c-0.4,1.5,0.4,3.2,0.2,4.7
		c-0.4,2.4-1.8,5-1.9,7.3c-0.1,2.1-1,2.6-3.1,3.4c-0.6,0.3-1.7,0.4-2.4,0.1c-0.2-0.1-0.9-1.1-0.7-1.2c-0.9,0.7-1.3,2.7-1.4,3.8
		c-0.1,1.6-2.2,1.7-2.6,3.1c0,0.2,0.1,0.5,0.1,0.6c-0.2,0.3-2.2,0.1-2.5,0.1C858.6,212.3,857.5,212.2,856.1,212.7
		C853.9,213.4,858.3,211.9,856.1,212.7z"/>
	<path fill="#FFFFFF" d="M879.7,171.2c-0.5,2.2-1.5,3.7-1.5,6c1.7-1.2,2.7-1.4,4.2,0c1.3,1.2,0-3.9-0.1-4.1
		c-0.1-0.8-0.9-1.8-0.9-2.6c0.1-1.1,1.1-2.4,1.6-3.4c1.3-2.4,2.1,0.9,3.1,1.1c1.2,0.3,0.1-3.2,0-3.4c-1-1.8-1.5-3.2-1.9-5.3
		c-0.4-2.1-1.2-3.5-1-5.8c0.1-1.6-0.2-4.8-1.7-5.8c-2.4,3.2-2.2,7.3-1.7,11.2C880.4,162.9,880.5,167.6,879.7,171.2
		C879.3,172.7,880,169.7,879.7,171.2z"/>
	<path fill="#FFFFFF" d="M820.6,254.2c0.6-2.1,1-3.7,2.2-5.7c0.6-1,0.9-2.1,1.1-3.2c0.2-1.1-0.6-1.2-1.6-1.7c-2-0.9-3.5,5.2-3.6,6.6
		C818.7,250.9,819.7,257.3,820.6,254.2C821.3,251.6,819.8,256.8,820.6,254.2z"/>
	<path fill="#FFFFFF" d="M815,287.1c-1,1.4-2.4,2.5-3.6,3.7c-0.2,0.2,0.3,0.6,0.4,0.7c0.7,0.5,1.3-0.2,1.8-0.7c1-1,6.2-6.2,3.7-7
		c0.7,0.2,3.1-0.7,3.7-1.3c0.3-0.3,0.8,0.1,1.1,0.2c0.9,0.4,0.9-0.1,1.6-0.3c-0.5,0.1,0.7,3.4,1.4,3.9c0.8,0.6,2.8,1,3.3,1.9
		c0.4,0.6-0.7,2.3-1.4,2.4c2.2-0.3,3.8-2.4,4.7-4.2c0.6-1.2,2.5-1.8,2.4-3.3c-0.1-1.7-2.4-1.8-3.1-3.2c-0.1-0.2,0.1-0.8,0-0.9
		c-0.9-0.3-2.4-0.4-3.3-0.1c-1.3,0.4-1.7-0.5-2.8-1.6c-0.6-0.6-0.5-1.7-0.9-2.4c-0.4-0.7-0.7,0-0.6-0.9c0.3-2,0.5-3.8,1.3-5.8
		c0.4-0.9,0.1-1.8,0.3-2.7c0-0.2,1-1.3,1.1-1.1c-0.6-0.8-3.7-1.7-4.7-1.3c-1.5,0.6-1.9,2.7-2.8,3.9c-0.7,1-1.9,4.2-0.4,5.1
		c0.4,0.3,2.9,2.5,2.6,3.1c-0.2,0.3-1.6,2.5-1.4,2.6c0.9,0.6,2.4,2,0.7,2.6c-1.8,0.6-3.5,0.3-3.3,2.6
		C817,284.5,815.9,285.9,815,287.1C814.9,287.2,816.1,285.6,815,287.1z"/>
	<path fill="#FFFFFF" d="M833.3,289.7c-2,1.5-3.1,1.9-5.7,2.4c-1,0.2-1.4,0.4-2,1.2c-0.1,0.2-1.3,3.1-1.7,2.7c2.3,1.7,3.8-3.6,6-0.5
		c0.4,0.7-0.1,1.6,0.7,2.4c0.4,0.4,0.9,0.5,1.2,1.1c0,0.1,0.1,1.1,0.2,1.2c-0.7-0.4,3.3-4.6,3.8-4.7c1.9-0.6,0.3-7.5-1.2-8.4
		C834.6,288.1,834.1,289.1,833.3,289.7C831.8,290.8,834.8,288.6,833.3,289.7z"/>
	<path fill="#FFFFFF" d="M760,282.2c0,1.5-0.1,3.1-0.3,4.6c-0.3,2-1.7,3.6-0.9,5.7c0.6,1.6,1.3,1.9,2.5,2.9c1.8,1.5,1.7,3.1,2.1,5.2
		c0.8,4.1,5.2,7.4,7.9,10.2c0.8,0.8,2.5,0.7,3.5,0.2c0.8-0.4-1.5-4.2-1.9-4.7c-0.7-1-1.5-3.2-0.7-4.3c0.1-0.1,0.6-0.2,0.6-0.4
		c0.1-0.3-1.6-1.5-1.8-1.7c-1-0.8-2.1-1.5-3.1-2.3c-0.8-0.6-1.6-1.2-2.6-1.6c-0.5-0.2-1.3-0.2-1.7-0.6c-1-0.9-0.5-2.8-1-4
		c-0.7-1.5-0.9-2.9-0.8-4.5c0.1-1.8,0.6-3.5,0.6-5.3C762.3,279.8,760.4,281.2,760,282.2z"/>
	<path fill="#FFFFFF" d="M779.1,321.9c-1.6-1.2-2.6-0.1-3.7-2.2c-0.6-1.2,0-1.9-0.9-2.6c-2.6-1.9-4.6-4.7-7.2-6.5
		c-0.9-0.6-1.9-1-2.9-1.4c-1.2-0.5-2-1.5-2.9-2.4c-1.5-1.4-2.9-4.3-4.7-5.2c-0.7-0.3-1.9-0.2-2.6-0.4c-1-0.3-1.8-1-2.8-1.4
		c-2.1-0.8-0.7,2.9,0.2,3.5c1.6,1.1,3.7,1.8,4.9,3.5c0.4,0.6,1,1.1,1.4,1.7c0.6,1,0.8,2.2,1.4,3.3c1.3,2.6,3.4,4.7,5,7
		c1.3,1.9,2.5,3.9,4,5.7c1.4,1.6,2.7,3.8,4.6,4.9c1.5,0.9,3.2,0.7,4.5,1.7c1.2,0.9,1.6-3.1,1.7-3.9
		C779,325.4,780.8,323.2,779.1,321.9C777.2,320.4,780.9,323.4,779.1,321.9z"/>
	<path fill="#FFFFFF" d="M806.7,339.1c-1.7-1.4-4.5-1.6-6.6-2.4c-3.5-1.2,2.5-0.7,3.3-0.7c0.7,0-0.6-1.4-0.7-1.6
		c-0.7-0.9-1.7-0.7-2.7-0.6c-1.6,0.3-4.2,1.1-5.1-0.1c-0.3-0.4-3.1,0.5-3.5,0.6c-1.5,0.4-2.6,0.4-4-0.3c-1.2-0.6-1.1-0.7-2.1-0.6
		c-1.3,0.2-1.5-0.5-1.6-1.2c0,0.8-3.8-0.5-3.8-0.5c-0.4,0.3,0,2.5,0.2,2.9c0.6,1,2.6,0.7,3.6,0.7c2.8,0.1,5.1,0.6,7.7,1.5
		c1,0.3,1.8,1,2.8,1.2c1.7,0.5,3.5,0.1,5.2,0.5c0.9,0.2,7.9,1.8,7.9,1.2C807.2,339.4,807,339.2,806.7,339.1
		C804.9,337.6,808.6,340.6,806.7,339.1z"/>
	<path fill="#FFFFFF" d="M807.1,299.8c-1.4,2.4-3,2.9-5.1,4.5c-1.7,1.3-3.9,1.3-5.6,2.4c-1.5,1-1,5-2.7,5.4
		c-1.3,0.3-2.2-3.5-3.2-2.6c-1.5,1.5-2.9,5.1-1.7,7c0.7,1.1,2,1.6,2.7,2.6c0.6,0.9,0.1,2,0.4,3c0.5,1.6,4,1.3,5.4,1.6
		c1.7,0.4,3.4,1.3,5,2c2.6,1.1,3.4,3,5.2-0.2c1.1-1.9,1.7-3.4,2.4-5.6c0.6-1.9,1.5-5.2,3.4-6.2c0.4-0.2,2.1-0.3,2.1-1
		c-0.1-1.2-1.3-2.4-2-3.2c-0.8-0.9-1.5-4.8-0.9-5.9c1.3-2.2,6.5-0.7,2.2-4.1c-0.4-0.3-1.9-1-2-1.4c-0.1-0.3,0.3-1.2,0.2-1.6
		C812.3,293.7,807.6,299,807.1,299.8C806,301.7,808.2,297.9,807.1,299.8z M800.8,312.1l0.3,0.2C799.9,313.2,800.8,312.5,800.8,312.1
		z"/>
	<path fill="#FFFFFF" d="M904.3,380.6c-0.3-0.7-0.4-2-0.9-2.5c-0.8-0.7-2.2-0.4-3.1-0.9c-0.9-0.5-1.2-2-1.6-2.9
		c-0.6-1.5-1.6-2.6-3-3.4c-1.8-1.1-3.2-2.2-4.6-3.7c-1.3-1.3-2-4.3-2.7-6.1c-1.1-2.8-1.4-4.2-3.8-6c-1-0.8-1.2-2-1.4-3.3
		c-0.2-1.7-0.6-2.5-1.5-4c-0.5-0.9-1.2-3-2.6-2c-1,0.7-1,2.2-1,3.3c0.1,3.1-0.1,6.2-0.1,9.3c0,1.5,0.4,5.3-1.7,5.8
		c-2.5,0.6-4.5-0.7-6.5-1.9c-2.1-1.3-3.4-3.2-6-3.8c-0.6-0.2-2.4,0-2.8-0.7c-0.6-1,1.3-3.3,1.8-4.1c0.5-0.8,3-4.3,1.2-4.9
		c-1.4-0.5-3,0-4.3,0.3c-1.7,0.3-2.4-0.8-3.7-1.7c-1.1-0.9-3.4,0.5-4.5,0.9c-3,1.1-5.1,0.8-6.3,4.4c-0.5,1.3,0.1,6.1-2.3,4.9
		c-1.7-0.8-5.1-3.5-7.2-2.4c-2.2,1.2-1.5,4.7-3.8,5.6c-1.9,0.8-5.1-0.5-6.2,1.9c-0.7,1.5-1.3,4-1.4,5.6c-0.2,2.5-2.7,2.6-4.7,3.2
		c-4.5,1.5-9.3,2.1-13.8,3.7c-1.5,0.5-4.4,2.6-4.8,4.1c-0.7,3,1.3,6.4-0.3,9.3c-1.4,2.6,0.9,5.7,1.8,8.3c0.9,2.5,1.9,5.1,2.9,7.5
		c0.4,1,0.8,2.1,1,3.1c0.2,1,1,2.1,1,3c0,1.1-2.1,1.3-2.9,1.6c-1.4,0.6,0.2,2.1,0.8,2.8c1.5,1.7,5,2,7.2,2c2.4,0,3.7-3,6.5-2.8
		c2.3,0.1,4.5-0.5,6.8-0.4c2.4,0.1,3.3,0.3,5-1.7c1.6-1.8,3-3,5.4-3.6c3-0.8,6.2-2.4,9.3-2.5c5.2-0.2,14,2.2,15.9,7.9
		c0.1,0.3,0.3,2.6,0.7,2.7c1,0,2.3-2.5,2.8-3.2c0.4-0.6,0.9-2,1.8-1.8c0.8,0.2,2,0.7,2.2,1.5c0.2,1.2-0.2,2.4,0.1,3.6
		c0.3,1.2,1.7,1.9,2.5,2.7c2,1.9,2.4,4.7,4.9,6.2c2,1.2,4.2,1.9,6.3,2.9c0.7,0.3,1.2,0.8,1.9,0.2c0.6-0.5,1.9-2.8,2.7-2.9
		c3-0.2,2.3,4.9,5.7,2.5c2.2-1.6,3.5-3.7,6.5-2.1c1.5,0.8,2.2-1.7,2.1-2.9c-0.1-2,0.6-3.6,1.5-5.5c1.3-2.7,3.8-4.8,4.9-7.5
		c1.5-3.7,2.4-8,2.8-12c0.4-3.5,0.7-7.8-1.7-10.7C907.4,385.3,905.5,383,904.3,380.6C903.2,378.3,905.4,382.8,904.3,380.6z"/>
	<path fill="#FFFFFF" d="M896.1,434.4c-1.5,0.5-3,0.6-4.6,0.8c-0.8,0.1-1.6,0.2-2.4,0.1c-1-0.1-0.9-1.2-1.3-1.3
		c-0.6-0.2-0.8,3-0.5,3.5c0.6,1.2,1.8,1.9,2.4,3.1c0.5,0.9,0.9,2.6,1.7,3.2c0.7,0.6,2.5-0.3,3.5-0.1c1.3,0.2,1.6-4,1.8-5.2
		C897.2,436.9,898.9,433.5,896.1,434.4C893.9,435.1,898.3,433.6,896.1,434.4z"/>
	<path fill="#FFFFFF" d="M890.9,329.3c-5.5-2.3-10.9-4.8-16.4-7.3c-1.5-0.7-2.6-1.6-3.8-2.6c-1.2-1-3.1,0.3-4.1,1
		c-1.1,0.8-6.2,5.1-7.2,3.8c-0.9-1.1-1.8-3.2-1.8-4.6c0-0.8-0.3-2.4-1.3-2.7c-2.3-0.7-7.9-1-8.5,2c-0.2,1.1,5.3,2.1,6.5,2.2
		c1.6,0.2,0.1,1-0.5,1.1c0.5-0.1-1.6,2.3-1.6,1.5c0,0.3,3.1,1.8,3.5,2.3c1.1,1.1,2.8,0.6,4.1,1c1.4,0.4,2.9,0.7,4.2,1.2
		c0.9,0.3,1.9,1.5,2.3,0.5c-0.2,0.4,2,2.9,2.6,3.3c1.2,0.7-0.6,2.9-1.2,3.4c-1.9,1.9,1.5,2.5,2.9,2.5c1.3,0,3.1-1.1,3.9,0.9
		c0.5,1.2,3.2,1,4.2,1.8c1.3,0.9,1.4,2.1,2.9,0.6c0.8-0.8,1.7-1.7,2.1-2.8c0.1-0.2,0.1-0.8,0.3-0.9c1.2-1,4.6-0.4,5.9,0.2
		c1.9,0.9,2.7,3.1,4.5,4.3c1.7,1.1,4.7,2.3,6.8,2.7c0.8,0.1,4.2,0.4,2.4-0.9c-1.4-1-3.8-1.2-4.9-2.4c-0.9-1-2.3-2.7-2.7-4.1
		c-0.5-1.3,0.4-2.9-0.4-3.9c-0.6-0.7-1.4-1.2-1.1-2.1C894.7,330.7,891.1,329.4,890.9,329.3C884.5,326.7,897.2,332,890.9,329.3z"/>
	<path fill="#FFFFFF" d="M905.1,332.3c2.7-0.7,3.5-2,4.2-4.6c0.4-1.5-2.3-1.3-2.7-0.5c-0.9,1.9-0.9,3.6-3.4,3.6c-2,0-4,0-6,0
		c1.1,0.4,2.2,0.7,3.4,0.7C902.1,331.6,903.5,332.7,905.1,332.3C906.6,332,903.6,332.7,905.1,332.3z"/>
	<path fill="#FFFFFF" d="M965.6,436.6c-1.1-0.2-1.1,0-1.3-0.8c-0.1-0.5-1.9-2.7-2.2-1.9c-0.4,1.5-0.1,2.9-1,4.3
		c-0.8,1.1-1,2.1-1.6,3.2c-1.3,2.5-4.7,3.5-6.8,5.2c-1,0.8-5.6,7.5-2.8,7.9c1.3,0.2,2.6,0.3,3.7,1.2c0.5,0.4,2.1-1,2.4-1.3
		c1.4-1,3.3-1.9,4.5-3.2c0.7-0.8,0.1-2,0.3-2.9c0.3-1.6,1.8-2.8,2.9-3.8c1.4-1.2,2.7-2.6,3.8-4c0.7-0.9,1.8-2.3,1.9-3.5
		C969.6,436.2,966.2,436.7,965.6,436.6C963,436.3,968.3,437,965.6,436.6z"/>
	<path fill="#FFFFFF" d="M976.9,425.4c-2,0-2-1-3-2.5c-0.7-1-2.2-1.3-3.1-1.9c-1.2-0.8-0.3-2.6-1.1-3.5c-0.8-0.9-2.5-1.3-3.7-1.4
		c1.3,3.8,5.5,5.9,5,10.2c-0.2,2-4.2,1.9-2,4.2c1.5,1.6,1.6,1.5,2,3.8c0.1,0.8,0.1,2.8,1.2,3c1.1,0.2,4.4-4.2,4.4-5.5
		c0-0.7-0.3-1.7,0.5-2.1c1.2-0.5,2.3-0.7,3.2-1.6c1-0.9,1-2-0.2-2.8C979,424.7,977.9,425.4,976.9,425.4z"/>
	<path fill="#FFFFFF" d="M823.6,330.5c0.9,0.1,2.5,1,3.4,0.6c0.2-0.1,0.9-2,0.9-2c0-0.8-1.2-2.1-1.7-2.7c-0.7-0.9-0.6-1.9-1-2.9
		c-0.4-1-2.3-1.2-2.4-2.2c-0.1-1.2,0.1-0.8-0.7-1.5c0.1,0.1,4.7-0.4,5-0.7c0.3-0.3,1.2-1.4,0.5-1.7c-0.6-0.2-2.5-0.7-3.1-0.5
		c-0.9,0.3-2.4,2.3-3.3,2.1c-1.4-0.3-2-2.2-3.4-1.3c-1.4,0.9-3,3.8-2.7,5.6c0.2,1.2,0.9,2.2,1.5,3.2c0.6,1.1,0.2,2.5,0.1,3.6
		c-0.1,1.8,3.5,2.8,3.5,0.3c0-1,0.3-2.1,0.1-3.2c-0.2-1.3-0.7-2.5-0.7-3.8c0-0.9,1-1.3,1.8-0.7c0.9,0.7-0.2,1.8-0.2,1.9
		c0,1,1.6,2.1,1.8,3.1c0.1,0.5,0.3,1.2,0.1,1.7c-0.1,0.1-0.7,0.6-0.7,0.7C822.4,330.4,823.7,330.5,823.6,330.5
		C826.2,330.8,821,330.1,823.6,330.5z"/>
	<path fill="#FFFFFF" d="M828.8,342.8c-1.1,2.2,0.9,1.1,1.7,0.6c2.1-1.4,4.3-2.8,6.9-3.3c0.6-0.1,3.1-0.3,1.8-1.4
		c-1-0.8-2.3-0.9-3.5-0.7C832.9,338.6,830.1,340.1,828.8,342.8C828.1,344.3,829.6,341.3,828.8,342.8z"/>
	<path fill="#FFFFFF" d="M819.5,341.3c-0.9-0.6-2,0.1-2.6,0.7c1.5,1.1,1.9,1.1,3.7,1.1C820.5,342.4,820.1,341.7,819.5,341.3
		C818.3,340.6,820.6,342,819.5,341.3z"/>
	<path fill="#FFFFFF" d="M811.2,338.3c-0.3,0.1-2.1,0.4-2.3,0.7c-0.2,0.4,4.2,2.1,4.6,1.8c0.5-0.4,2.8-2.2,2.3-2.9
		C815.3,337,812,338.1,811.2,338.3C808.6,339.1,813.8,337.6,811.2,338.3z"/>
	<path fill="#FFFFFF" d="M707.7,290.5c0,2.3,0.1,4.4,0.1,6.7c0.1,2.3,1.6,2.4,3.6,1.5c0.9-0.4,1.6-4,1.1-4.9
		C712.1,292.9,707.7,287.9,707.7,290.5z"/>
	<path fill="#FFFFFF" d="M743.9,24.8c2.5-0.5,0.7,2.5,2.8,3.5c3.1,1.4,5.3,3.6,8.6,4c2.1,0.2,7,3.4,6.5-0.5c-0.3-2.3,0.5-4.3,1-6.6
		c0.1-0.7-7.1,0.2-7.8-1.3c-0.8-1.6,1.5-2.7,1.3-3.8c-0.3-1.6,0-2.3-1.6-2.6c-2.2-0.3-4.7-0.6-6.8,0.1c-2.2,0.8-3.9,2.1-6.2,2.7
		c-1.8,0.5-3,1.1-2,3C740.7,25.3,742.2,25.1,743.9,24.8C746.4,24.3,741.4,25.3,743.9,24.8z"/>
	<path fill="#FFFFFF" d="M762.4,36.7c2.2,0.4,3.7-0.3,6-0.7c3.1-0.6,6.4-0.6,9.2-2.2c1.5-0.8-0.3-1.6-1-2.2
		c-0.4-0.4-0.8-0.8-1.1-1.3c-0.2-0.3-1.4-0.1-1.8-0.2c-1.3-0.3-2.9-1.4-4.3-1.4c-0.7,0-1.8,0.7-2.5,1c1.8,0.9-1.3,3.2-2,3.8
		C764.3,33.9,760.2,36.3,762.4,36.7C764.9,37.2,759.9,36.2,762.4,36.7z"/>
	<path fill="#FFFFFF" d="M867.6,54.2c2.4,0.5,4.2,1,6.7,0.1c2.2-0.9,4.4-0.4,6.7-0.4c1,0,1.6-0.6,2.5-0.9c1.1-0.3,2.4,0.2,3.4-0.4
		c0.7-0.4,1-1.9,0.8-2.6c-0.3-0.9-2-0.8-2.7-0.8c-3,0-4.2,0.8-6.9-0.9c-0.5-0.3-1.6,2.1-2.5,1.8c-1.4-0.6-5.5-2.6-7-1.8
		C867.1,49,865,53.6,867.6,54.2C870.1,54.7,865.1,53.7,867.6,54.2z"/>
	<path fill="#FFFFFF" d="M895,55.2c2.3,0,4.8,0.6,7,0c1.3-0.3,1.7-1.6,0.4-2.2c-1.2-0.5-2.8-0.3-4.1-0.3c-1.5,0-6-1.5-6.7,0.5
		C890.8,55.1,893.6,55.2,895,55.2z"/>
	<path fill="#FFFFFF" d="M880.5,60.1c-1.8,0-3.6-0.4-5.1,0.6c-2.5,1.5,0.1,1.9,1.7,2.1c1.9,0.3,4,0.5,5.8,0
		C885.6,62,881.6,60.1,880.5,60.1z"/>
	<path fill="#FFFFFF" d="M984.7,75.6c1.7,0,3.6,0.3,5.3-0.3c0.7-0.3,2.8-1.1,2.9-2c0-0.9-3.1-1-3.6-1c-3-0.4-4.3,0-7,1.3
		C979.2,75.1,983.4,75.6,984.7,75.6z"/>
	<path fill="#FFFFFF" d="M511.3,230 M511.1,230.3c1.1-1.4-3.6-7.1-4.6-8.2c-1.1-1.3,0.7-4.5,1.1-5.9c0.6-2.2,0.3-4.5,0.7-6.8
		c-3.7,0.3-7.5,0.6-11.2,0.8c-4,0.2-7.4,0.2-11,2.1c-1.8,0.9-3.5,1.8-5,3.2c-1.3,1.1-2.8,0.6-4.3,0.3c-1.4-0.2-2.9-0.2-4.2-0.7
		c-1.5-0.5-1.5-1.1-1.6-2.4c0,0.2-3.5,1.9-4,2.6c-1.4,2.1-2,4.6-4.2,5.9c-0.7,0.4-1.6,0.5-2.4,0.9c-1.2,0.7-1.7,2.2-2.2,3.4
		c-1.2,2.8-1.4,3.9,0,6.8c0.2,0.4-4,3.5-4.4,3.7c-1.3,0.8-2.8,1-4.2,1.5c-1.4,0.5-2.2,1.9-2.9,3.1c-1.4,2.4-2.4,4.9-4,7.2
		c-1.7,2.5-3.1,5-4.6,7.5c-0.5,0.9-1.4,1.4-1,2.6c0.4,1,0.9,1.6,1.7,2.3c0.9,0.7,0.8,1.9,0.8,2.9c0,1.6,0.6,3.1,0.7,4.7
		c0.1,1.4-0.7,2.6-1.1,3.9c-0.5,1.8-0.5,3.6-0.2,5.4c0.8,4.3,3.9,6,6.3,9.3c1.1,1.5,1.7,3.2,2.8,4.7c1.2,1.6,2.5,3.1,3.9,4.5
		c2.2,2.3,4.3,5,6.7,7c1.9,1.5,5.6,1.2,7.9,1.2c3.4,0,6.9,0.2,10.3,0c2.7-0.1,4.6-1.2,7-2.2c1.4-0.6,3-0.7,4.4-1.2
		c1.1-0.4,2-1,3-1.4c2.6-1,6.1,1,7.9,2.9c0.6,0.7,1.1,1.5,1.8,2.1c1.1,0.9,3,0.5,4.4,0.6c3.3,0.2,6.4,0.1,6.4,4c0,2-0.4,3.9-1.2,5.8
		c-0.6,1.4-1.3,2.7-1.2,4.3c0.2,2.7,2.5,5,4.1,7c0.8,1,1.7,2,2.4,3.1c0.3,0.5,0.6,1.1,0.9,1.7c0.9,1.4,0.7,1.6,0.6,3.2
		c2.9-0.8,3.2,4.9,3.2,6.7c0,1.7,0.2,3.3,0.7,4.9c0.5,1.6,1.6,3.1,0.8,4.8c-0.6,1.3-1.6,2.3-2.2,3.6c-0.8,1.4-1.1,3-1.4,4.6
		c-0.8,3.3-2,6.6-0.8,9.9c1.9,5.3,6.2,9.8,6.2,15.6c0,6.2,3.8,12.8,7,17.9c1.7,2.7,3.4,5.7,3.5,9c0.1,3,1,5,3.7,6.4
		c0.6,0.3,0.9,0.1,1.6,0c3.1-0.7,6.3-0.8,9.5-1.1c4.9-0.4,9.3-1.3,13.5-4c2.8-1.8,5-4.3,7.3-6.8c2.1-2.3,3-5.2,5-7.5
		c1.5-1.8,3-3.2,1.4-5.4c-1.7-2.5,2-2.8,3.6-4c1.7-1.2,2.4-4.9,2.8-6.8c0.3-1.2,0.1-2.8-0.5-3.9c-0.3-0.6-1.3-1.1-1.4-1.7
		c-0.4-1.9,4.1-5,5.4-5.9c2.6-1.9,5.5-3.6,7.8-6c1.8-1.9,3.5-5,3.6-7.7c0.1-1.6-0.1-3.3-0.4-4.8c-0.1-0.8-0.3-1.6-0.5-2.4
		c-0.3-1.2,0.1-2.2-1.3-1.6c1-1.5,0.1-5.3,0-6.9c-0.2-3.2-0.5-6.4-1.1-9.5c-0.3-1.8,1.8-3.4,2.9-4.7c1.4-1.7,3-3.3,4.1-5.2
		c1.9-3.4,4.3-5.3,7.4-7.6c4.8-3.5,8.9-8.8,12.1-13.7c3-4.7,4-10.4,5.2-15.7c-5.4,1.4-12.5,4.3-18.1,3.1c-1.5-0.3-3.4-1.2-4.1-2.6
		c-0.7-1.6-0.3-2.4-1.6-3.6c-1.5-1.5-2.8-3.1-4.5-4.4c-1.3-1.1-2.9-2.2-4.1-3.5c-1-1.2-1.3-2.8-1.8-4.3c-0.5-1.2-1.3-1.8-2-2.9
		c-0.7-1.1-0.6-2.6-0.8-3.8c-0.4-2.1-1.3-4-2.6-5.7c-1.1-1.4-2.2-2.6-2.9-4.3c-0.8-2-1.2-4.2-2.1-6.2c-0.3-0.8-4.9-9.2-4.6-9.4
		c0.6-0.5,2.2,2.2,3.2,0.1c1.1-2.6,2.2-5.6-0.8-7.5c-2.1-1.3-4.5-0.9-6.8-1.7c-2.2-0.7-4.4,0.3-6.5,1c-2.1,0.7-3.7,0.9-5.8-0.3
		c-2.2-1.3-4.6-1.2-7-1.9c-2.6-0.7-4.8-3.2-7.6-2.7c-3.2,0.5-5.5,0-4.6,4.1c0.4,1.5-1,1.9-2.1,2.7c-0.8,0.5-0.9,1.5-1.5,2
		c-0.6,0.5-4.3-3.7-5.6-4c-1.9-0.4-2.9-0.1-3.5-2.2c-0.7-2.8-3.6-3.2-6.2-3.1c-1.7,0.1-3.5,1-5-0.2c-1.3-1.1-3.5-1.1-3.2-2.9
		c0.2-1.3,0.6-2.7,0.1-4c-0.4-0.9-0.9-1.7-1.1-2.8c-0.3-1.8,0.8-3.7-1.8-3.8c-1.9-0.1-2.9-0.3-3.1,1.7c-0.1,1.8-0.1,3.5-0.5,5.2
		c-0.4,1.6-1.6,3.6-1.4,5.3c0.1,0.9,1.5,1.6,1.9,2.5"/>
	<path fill="#FFFFFF" d="M27.3,263.2c-1.5-1.2-2-2.9-4-3.6c-0.9-0.3-0.7,0.8-0.7,1.3c0,0.7-0.9,0.6-0.8,1.3c0.1,0.9,0.6,1.3,0.6,2.2
		c0,0.4,0.2,1.9,0.8,2c0.3,0.1,2-1.5,2.7-1.5C26.6,264.9,28.4,264.1,27.3,263.2C26.3,262.5,28.3,264,27.3,263.2z"/>
	<path fill="#FFFFFF" d="M21.8,256.6c-0.9-0.7-1.3-1.2-2.4-0.2c0-0.2-0.3-0.8-0.2-0.8c-0.2-0.1-0.8,0-0.9-0.1
		c-0.6-0.4-0.8-0.6-1.5-0.9c-2-0.8-3,1.2-0.5,0.7c0.3-0.1,1.1,0.7,0.7,1c-0.9,0.9,0.4,1.8,0.5,1.3c0.4-1.3,2.8-0.6,1.5,0.3
		C19.6,258,23.5,257.8,21.8,256.6C21.1,256.1,22.6,257.2,21.8,256.6z"/>
	<path fill="#FFFFFF" d="M13,253.2c-1.1-1.4-0.9-1.3-2.6,0c0.3,0.3,0.5,1,0.8,1.2c0.6,0.4,1-0.1,1.6,0.4
		C14.1,255.8,13.4,253.6,13,253.2C12.5,252.6,13.4,253.7,13,253.2z"/>
	<path fill="#FFFFFF" d="M4.5,249.5c-0.5,0.5-1.3,1-1.8,1.6c0.6,0,1.7,0.2,2.2-0.1c0.4-0.2,0.1-1.6-0.1-1.7
		C4.7,249.3,4.6,249.4,4.5,249.5C3.9,250,5,248.9,4.5,249.5z"/>
	<path fill="#FFFFFF" d="M1.1,251c-0.6-0.2-1.7,0.4-1,0.9c0.7,0.5,1.8-0.8,1.5-0.9C1.5,251,1.3,251,1.1,251z"/>
</g>
</svg>
