<?xml version="1.0" encoding="utf-8"?>
<!-- Generator: Adobe Illustrator 17.1.0, SVG Export Plug-In . SVG Version: 6.00 Build 0)  -->
<!DOCTYPE svg PUBLIC "-//W3C//DTD SVG 1.1//EN" "http://www.w3.org/Graphics/SVG/1.1/DTD/svg11.dtd">
<svg version="1.1" id="Layer_1" xmlns="http://www.w3.org/2000/svg" xmlns:xlink="http://www.w3.org/1999/xlink" x="0px" y="0px"
	 viewBox="0 22 144 100" enable-background="new 0 22 144 100" xml:space="preserve">
<g>
	<path fill="#6A6A6A" d="M117.1,90.1c-0.1,0-0.2-0.1-0.4-0.1c-2-0.1-3.9-0.4-5.6-1.4c-1.3-0.7-2.1-1.8-2.2-3.3
		c-0.2-1.7,0.7-2.9,2-3.8c0.4-0.2,0.8-0.4,1.1-0.6c-0.3-0.2-0.5-0.4-0.8-0.7c-1.1-0.9-0.9-2.7,0-3.6c0.5-0.5,1.1-0.9,1.6-1.3
		c-0.1-0.1-0.3-0.3-0.5-0.4c-1.3-1-2.1-2.4-2.4-4.1c-0.3-2.4,0.3-4.5,2.2-6.1c1.1-0.9,2.3-1.5,3.8-1.7c0.5-0.1,1.1-0.2,1.6-0.2
		c1.4,0,2.8,0.3,4.2,0.8c1.4,0.5,2.8,0.5,4.2-0.2c0.2-0.1,0.4-0.2,0.6-0.3c0.7,0.7,1.3,1.3,2,2c-1,0.8-2.2,1.2-3.5,1.3
		c0.2,0.6,0.5,1.3,0.6,1.9c0.5,2.2,0,4.2-1.6,5.9c-1.2,1.3-2.7,1.9-4.4,2.2c-0.6,0.1-1.3,0.2-1.9,0.2c-0.8,0-1.7-0.1-2.5-0.4
		c-0.1,0-0.3,0-0.4,0.1c-0.4,0.2-0.7,0.4-0.9,0.8c-0.3,0.5-0.1,1,0.4,1.2c0.4,0.1,0.7,0.3,1.1,0.3c0.8,0.1,1.7,0.1,2.6,0.2
		c1.1,0.1,2.2,0.2,3.2,0.3c1.2,0.1,2.4,0.3,3.6,0.9c1.4,0.6,2.3,1.6,2.6,3.2c0.2,1.3,0.1,2.5-0.6,3.6c-0.5,0.8-1.2,1.4-2,1.8
		c-1.2,0.6-2.4,1-3.8,1.1c-0.5,0.1-1.1,0.1-1.6,0.1c-0.1,0-0.1,0-0.2,0.1C118.6,90.1,117.9,90.1,117.1,90.1z M113.5,69.9
		c0,0.1,0,0.3,0,0.5c0,0.1,0,0.2,0.1,0.3c0.2,1.4,1,2.3,2.2,3c1.1,0.6,2.3,0.6,3.5,0.3c0.8-0.2,1.6-0.6,2.1-1.2
		c1-1.2,1.2-2.6,0.9-4.1c-0.3-1.4-1.2-2.4-2.5-2.9c-0.9-0.4-1.8-0.4-2.7-0.3c-0.9,0.1-1.6,0.5-2.2,1
		C113.8,67.5,113.4,68.6,113.5,69.9z M118.4,87.4c0.5,0,1.1-0.1,1.6-0.1c0.5-0.1,1.1-0.1,1.6-0.2c0.9-0.2,1.7-0.5,2.3-1.3
		c0.6-0.8,0.4-2-0.1-2.5s-1.1-0.7-1.8-0.8c-0.8-0.1-1.6-0.2-2.3-0.3c-1-0.1-1.9-0.2-2.9-0.3c-0.6-0.1-1.2-0.1-1.8-0.2
		c-0.1,0-0.1,0-0.2,0c-0.7,0.2-1.3,0.6-1.8,1.2c-0.6,0.7-0.9,1.8-0.3,2.7c0.4,0.7,1.1,1,1.8,1.3C115.7,87.3,117.1,87.4,118.4,87.4z"
		/>
	<path fill="#6A6A6A" d="M62,53.9c0,7.7,0,15.4,0,23.1c0,1.9,0,3.8,0.6,5.7c-1.3,0-2.5,0-3.8,0c-0.2-0.7-0.3-1.5-0.4-2.2
		c-0.6,0.4-1.1,0.9-1.7,1.3c-1,0.7-2.1,1.1-3.3,1.2c-1.1,0.1-2.1,0-3.1-0.4c-1.3-0.4-2.3-1.1-3.1-2.2c-1.2-1.4-1.8-3-2.1-4.8
		c-0.1-0.7-0.2-1.4-0.2-2.1c-0.1-2,0.1-4,0.8-5.9c0.6-1.5,1.4-2.7,2.7-3.6c1-0.7,2.1-1.1,3.3-1.2c2.2-0.2,4.2,0.5,5.9,1.8
		c0.3,0.2,0.5,0.4,0.8,0.6c0-3.9,0-7.7,0-11.5C59.6,53.9,60.8,53.9,62,53.9z M58.4,73.1c0-1.5,0-2.9,0-4.4c0-0.2-0.1-0.4-0.2-0.5
		c-1.2-1.1-2.5-2-4.2-2.2c-0.9-0.1-1.8-0.1-2.7,0.3c-1.3,0.6-2,1.8-2.4,3.1c-0.4,1.4-0.6,2.9-0.5,4.4c0.1,1.4,0.4,2.7,1.1,4
		c0.5,0.8,1.1,1.5,1.9,1.8c1.5,0.7,3,0.5,4.4-0.2c0.7-0.3,1.3-0.9,2-1.3c0.4-0.3,0.6-0.7,0.6-1.3C58.3,75.7,58.4,74.4,58.4,73.1z"/>
	<path fill="#6A6A6A" d="M0,63c1.1,0,2.2,0,3.2,0c0.2,0,0.3,0.1,0.4,0.3c0.4,1.6,0.9,3.2,1.3,4.8s0.9,3.2,1.3,4.8
		c0.4,1.3,0.7,2.6,1.1,3.9c0,0.1,0,0.1,0.1,0.2c0.3-0.9,0.5-1.7,0.7-2.5c0.4-1.3,0.7-2.6,1.1-3.8c0.6-2.2,1.3-4.4,1.9-6.6
		c0.3-1.1,0.3-1.1,1.4-1.1c0.6,0,1.1,0,1.7,0c0,0,0,0,0.1,0c1.3,4.6,2.7,9.3,4,14h0.1c0.1-0.4,0.2-0.8,0.3-1.2
		c0.5-1.8,1-3.6,1.5-5.5c0.6-2.4,1.3-4.7,1.9-7.1c0-0.1,0.2-0.2,0.2-0.2c1.1,0,2.2,0,3.4,0c-2,6.6-4,13.1-6,19.7c-1,0-1.9,0-2.8,0
		c-1.3-4.7-2.7-9.5-4.1-14.3c-0.1,0.4-0.2,0.6-0.3,0.9c-0.6,2.2-1.3,4.4-1.9,6.6C10,78,9.4,80.1,8.9,82.3c-0.1,0.3-0.2,0.4-0.5,0.4
		c-0.8,0-1.6,0-2.4,0c-0.4-1.3-0.8-2.5-1.1-3.8c-0.8-2.6-1.6-5.2-2.4-7.8c-0.6-1.9-1.2-3.9-1.7-5.8c-0.2-0.7-0.4-1.4-0.7-2.1
		C0,63.1,0,63,0,63z"/>
	<path fill="#6A6A6A" d="M81.4,53.9c0,7.8,0,15.7,0,23.5c0,1.8,0.1,3.6,0.6,5.3c-1,0-2,0-3,0c-0.8,0-0.8,0-1-0.8
		c-0.1-0.5-0.2-0.9-0.3-1.4c-0.5,0.4-1,0.8-1.5,1.2c-1,0.7-2,1.1-3.2,1.3c-1.4,0.2-2.7,0-4-0.5c-2.1-0.9-3.4-2.6-4.2-4.7
		c-0.4-1.1-0.6-2.2-0.7-3.4c0-0.8-0.1-1.6-0.1-2.4c0.1-2.1,0.6-4.2,1.9-6c1.1-1.6,2.7-2.6,4.6-3c1.7-0.3,3.3-0.1,4.8,0.7
		c0.7,0.4,1.3,0.9,2,1.3c0.1,0.1,0.2,0.2,0.4,0.3c0-3.9,0-7.7,0-11.5C79,53.9,80.2,53.9,81.4,53.9z M77.8,73.1c0-1.4,0-2.8,0-4.2
		c0-0.4-0.2-0.6-0.4-0.9c-0.1-0.1-0.2-0.2-0.3-0.3c-0.6-0.4-1.1-0.9-1.8-1.2c-0.9-0.5-1.9-0.7-2.9-0.6c-0.5,0.1-1.1,0.2-1.6,0.4
		c-1.2,0.6-1.9,1.6-2.3,2.9C68.2,70,68,70.7,68,71.5c0,1.1-0.1,2.1,0,3.2c0.1,0.8,0.4,1.7,0.7,2.5c0.4,0.9,1,1.7,1.9,2.3
		c1.1,0.7,2.3,0.7,3.5,0.4c1.5-0.3,2.6-1.2,3.7-2.2c0.1-0.1,0.1-0.3,0.1-0.4C77.8,76,77.8,74.5,77.8,73.1z"/>
	<path fill="#6A6A6A" d="M144,77.9c-0.1,0.3-0.1,0.5-0.2,0.8c-0.6,2-2,3.2-3.9,3.8c-0.9,0.3-1.8,0.4-2.7,0.5c-1.5,0.2-3,0-4.5-0.5
		c-1.2-0.4-2.3-0.9-3.3-1.8c-0.4-0.3-0.7-0.7-1.1-1.1c0.8-0.7,1.6-1.4,2.4-2c0.5,0.5,1,0.9,1.5,1.3c0.8,0.6,1.8,1.1,2.8,1.2
		c0.7,0.1,1.4,0.1,2.1,0.1c1-0.1,1.9-0.3,2.6-1c1-1,0.8-2.9-0.4-3.7c-1-0.7-2.2-1-3.4-1.3c-1.6-0.4-3.1-0.8-4.6-1.6
		c-1.3-0.7-2.1-1.7-2.3-3.2c-0.2-1.4-0.1-2.7,0.8-3.9c0.7-1,1.7-1.7,2.9-2.1c0.8-0.3,1.6-0.4,2.5-0.5c1.8-0.2,3.5,0.1,5.2,0.8
		c0.8,0.3,1.9,1,2.7,1.9c-0.7,0.8-1.4,1.5-2,2.3c-0.6-0.4-1.1-0.9-1.7-1.3c-0.7-0.5-1.4-0.7-2.3-0.8c-1-0.1-1.9-0.2-2.9,0.1
		c-1,0.3-1.8,1-1.8,2.1c0,0.9,0.5,1.5,1.3,1.9c1,0.5,2.1,0.7,3.1,1c1.5,0.4,3,0.8,4.4,1.5c1.3,0.7,2.3,1.8,2.6,3.4
		c0,0.1,0.1,0.3,0.1,0.4C144,76.9,144,77.4,144,77.9z"/>
	<path fill="#6A6A6A" d="M29.5,73.5c0,0.5,0.1,0.9,0.1,1.3c0.2,1.7,0.8,3.2,2.1,4.4c0.6,0.5,1.3,0.8,2.1,1c1.2,0.2,2.3,0,3.4-0.5
		c0.9-0.4,1.6-1,2.2-1.7c0.2-0.3,0.4-0.5,0.7-0.8c0.8,0.6,1.5,1.2,2.3,1.8c-0.3,0.3-0.5,0.6-0.7,0.9c-1.3,1.5-2.9,2.5-4.8,2.9
		C36,83,35,83.2,34,83.1c-1.9-0.1-3.6-0.7-5.1-2s-2.2-2.9-2.7-4.7c-0.4-1.5-0.4-3.1-0.3-4.6s0.4-3,1.1-4.4c1.2-2.3,3-3.9,5.7-4.3
		c2.2-0.4,4.3-0.1,6.2,1.2c1,0.7,1.7,1.5,2.3,2.5c0.7,1.3,1.1,2.6,1.3,4c0.1,0.8,0.1,1.6,0.1,2.4c0,0.3-0.1,0.4-0.4,0.4
		c-2.1,0-4.1,0-6.2,0c-2.1,0-4.1,0-6.2,0C29.7,73.5,29.6,73.5,29.5,73.5z M39.2,71c-0.2-0.9-0.4-1.7-0.7-2.5
		c-0.3-0.9-0.9-1.6-1.7-2.1c-0.6-0.4-1.2-0.6-1.8-0.7c-1-0.1-2,0-2.8,0.6c-1,0.6-1.5,1.5-1.9,2.5c-0.3,0.7-0.4,1.5-0.6,2.2
		C32.8,71,35.9,71,39.2,71z"/>
	<path fill="#6A6A6A" d="M95.6,82.7c-1.2,0-2.4,0-3.6,0c0-6.4,0-12.8,0-19.3c1.2,0,2.3,0,3.5,0c0,0.9,0,1.8,0,2.8
		c0.4-0.4,0.8-0.7,1.2-1c1.4-1.1,2.8-1.9,4.6-2.1c1.3-0.2,2.5-0.1,3.7,0.3c1.1,0.4,1.9,1.2,2.3,2.3c0.3,0.9,0.5,1.8,0.5,2.7
		c0,4.6,0,9.2,0,13.8c0,0.1,0,0.3,0,0.4c-1.2,0-2.4,0-3.6,0c0-0.1,0-0.3,0-0.4c0-4.4,0-8.8,0-13.1c0-0.6-0.1-1.2-0.3-1.8
		c-0.2-0.7-0.8-1.2-1.5-1.3c-1.8-0.4-3.4,0.3-4.9,1.3c-0.5,0.4-1,0.8-1.6,1.3c-0.2,0.2-0.3,0.4-0.3,0.7c0,4.3,0,8.7,0,13
		C95.6,82.4,95.6,82.5,95.6,82.7z"/>
	<path fill="#6A6A6A" d="M85,63.4c1.2,0,2.4,0,3.6,0c0,6.4,0,12.8,0,19.3c-1.2,0-2.4,0-3.6,0C85,76.2,85,69.8,85,63.4z"/>
	<path fill="#6A6A6A" d="M84.9,59.6c-0.1-0.8,0.8-1.8,1.8-1.8c0.9,0,1.9,0.9,1.8,1.9c0,1-0.8,1.8-1.8,1.8
		C85.8,61.4,84.9,60.6,84.9,59.6z"/>
	<path fill="#6A6A6A" d="M7.2,61.4c-0.4,0.1-0.6,0-0.7-0.4c-0.2-0.6-0.4-1.3-0.6-1.9c0,0-0.1-0.1-0.1-0.2c0,0.9,0,1.7,0,2.5
		c-0.2,0-0.4,0-0.6,0c0-1.2,0-2.4,0-3.6c0.3,0,0.6,0,0.9,0c0.3,0.8,0.5,1.7,0.8,2.5c0,0,0,0,0.1,0c0.3-0.8,0.5-1.7,0.8-2.5
		c0.3,0,0.6,0,0.9,0c0,1.2,0,2.4,0,3.6c-0.2,0-0.4,0-0.6,0c0-0.8,0-1.6,0-2.5H8C7.7,59.8,7.4,60.6,7.2,61.4z"/>
	<path fill="#6A6A6A" d="M39.9,57.8L39.9,57.8c0.7,0,0.7,0,0.8,0.6s0.2,1.1,0.4,1.7c0.1-0.4,0.2-0.8,0.3-1.1s0.1-0.6,0.2-0.9
		c0.1-0.4,0.4-0.1,0.7-0.2c0.2,0.8,0.4,1.5,0.6,2.2c0,0,0,0,0.1,0c0.1-0.3,0.1-0.5,0.2-0.8c0.1-0.4,0.1-0.8,0.2-1.1
		c0.1-0.5,0.4-0.2,0.7-0.3c-0.2,0.9-0.4,1.8-0.6,2.6c0,0.2-0.1,0.4-0.1,0.5c-0.2,0.6,0,0.5-0.7,0.5c-0.2-0.8-0.5-1.7-0.7-2.6
		c-0.1,0.5-0.3,0.9-0.4,1.3c-0.1,0.4-0.2,0.8-0.3,1.1c0,0.1-0.2,0.2-0.3,0.2s-0.3,0-0.3-0.2C40.4,60.1,40.2,59,39.9,57.8z"/>
	<path fill="#6A6A6A" d="M49.3,60c0,0.5,0,0.9,0,1.4c-0.2,0-0.5,0-0.7,0c0-1.2,0-2.4,0-3.7c0.6,0,1.3,0.1,1.9,0.1
		c0.5,0,0.7,0.3,0.8,0.7c0.1,0.6-0.1,1-0.6,1.3c0,0-0.1,0-0.1,0.1c0.2,0.5,0.4,1,0.6,1.5c0,0,0,0-0.1,0c-0.7,0-0.7,0-1-0.6
		c-0.1-0.2-0.1-0.4-0.2-0.6c0-0.1-0.2-0.1-0.3-0.2C49.6,60,49.5,60,49.3,60z M49.3,59.5c0.4,0,0.8,0,1.1-0.1c0.1,0,0.3-0.3,0.3-0.5
		s-0.2-0.4-0.3-0.4c-0.3-0.1-0.7-0.1-1.1-0.1C49.3,58.8,49.3,59.1,49.3,59.5z"/>
	<path fill="#6A6A6A" d="M14.4,60.1c0,0.4,0,0.9,0,1.3c-0.2,0-0.5,0-0.7,0c0-1.2,0-2.4,0-3.7c0.6,0,1.3,0,1.9,0.1
		c0.5,0.1,0.8,0.4,0.8,0.9c0.1,0.5-0.1,0.8-0.6,1.1l-0.1,0.1c0.2,0.5,0.4,1,0.6,1.5c-0.3,0-0.5,0-0.7,0c-0.1-0.3-0.3-0.6-0.4-0.9
		C15.1,60.1,14.9,59.9,14.4,60.1z M14.4,59.5c0.4-0.1,0.7-0.1,1-0.2c0.1,0,0.3-0.3,0.3-0.5c0-0.1-0.2-0.4-0.3-0.4
		c-0.3-0.1-0.6-0.1-1-0.1C14.4,58.7,14.4,59.1,14.4,59.5z"/>
	<path fill="#6A6A6A" d="M21.5,59.9c0,0.5,0,1,0,1.5c-0.2,0-0.4,0-0.7,0c0-1.2,0-2.4,0-3.6c0.2,0,0.4,0,0.7,0c0,0.5,0,0.9,0,1.4
		c0.5,0,0.9,0,1.4,0c0-0.5,0-0.9,0-1.4c0.2,0,0.5,0,0.7,0c0,1.2,0,2.4,0,3.6c-0.2,0-0.4,0-0.7,0c0-0.5,0-1,0-1.5
		C22.5,59.9,22,59.9,21.5,59.9z"/>
	<path fill="#6A6A6A" d="M39.1,60.9c0,0.2,0,0.4,0,0.5c-0.8,0-1.6,0-2.4,0c0-1.2,0-2.4,0-3.6c0.8,0,1.6,0,2.4,0c0,0.2,0,0.4,0,0.6
		c-0.6,0-1.1,0-1.7,0c0,0.3,0,0.5,0,0.8c0.3,0,0.7,0,1.1,0c0,0.2,0,0.4,0,0.6c-0.4,0-0.7,0-1.1,0c0,0.3,0,0.6,0,0.9
		c0,0.1,0.2,0.2,0.3,0.2C38.1,60.9,38.6,60.9,39.1,60.9z"/>
	<path fill="#6A6A6A" d="M11.6,57.8c0.4,1.2,0.8,2.4,1.2,3.6c-0.3,0-0.5,0-0.7,0v-0.1c-0.1-0.2-0.1-0.6-0.3-0.7
		c-0.3-0.1-0.7,0-1.1,0c-0.1,0-0.2,0.2-0.2,0.3c-0.2,0.6-0.2,0.6-0.9,0.5c0.4-1.2,0.8-2.3,1.1-3.4c0-0.1,0.2-0.2,0.2-0.2
		C11.2,57.8,11.4,57.8,11.6,57.8z M10.7,60c0.3,0,0.6,0,0.9,0c-0.2-0.5-0.3-0.9-0.4-1.4c0,0,0,0-0.1,0C11,59.1,10.8,59.5,10.7,60z"
		/>
	<path fill="#6A6A6A" d="M45.7,57.8c0.8,0,0.8,0,1,0.7c0.3,1,0.6,1.9,1,2.9c-0.6,0.2-0.7,0.1-0.8-0.5c-0.1-0.3-0.2-0.4-0.5-0.3
		c-0.1,0-0.3,0-0.4,0c-0.5,0-0.5,0-0.7,0.5c0,0.1-0.1,0.2-0.1,0.3c-0.2,0-0.4,0-0.7,0C44.9,60.2,45.3,59,45.7,57.8z M46.1,58.7
		L46.1,58.7c-0.2,0.5-0.4,0.9-0.5,1.4c0.3,0,0.6,0,0.9,0C46.4,59.6,46.3,59.1,46.1,58.7z"/>
	<path fill="#6A6A6A" d="M24.6,61.5c0.3-1,0.6-1.9,0.9-2.8c0-0.1,0.1-0.2,0.1-0.3c0.2-0.7,0.1-0.6,0.8-0.6c0.1,0,0.2,0.1,0.2,0.1
		c0.4,1.2,0.8,2.3,1.1,3.5c-0.1,0-0.1,0-0.2,0c-0.3,0.1-0.5,0-0.5-0.4c0-0.3-0.2-0.4-0.5-0.4c-0.1,0-0.2,0-0.2,0
		c-0.7,0-0.7,0-0.9,0.6c-0.1,0.2-0.2,0.3-0.3,0.2C24.9,61.4,24.8,61.5,24.6,61.5z M26.7,60c-0.1-0.5-0.3-0.9-0.4-1.4c0,0,0,0-0.1,0
		c-0.1,0.5-0.3,0.9-0.4,1.4C26.1,60,26.4,60,26.7,60z"/>
	<path fill="#6A6A6A" d="M29.7,60.7c0.2-0.1,0.4-0.2,0.6-0.2c0.2,0.4,0.6,0.5,1,0.5c0.3,0,0.5-0.2,0.5-0.4s-0.2-0.4-0.3-0.5
		c-0.3-0.2-0.7-0.3-1.1-0.4c-0.6-0.2-0.7-1.2-0.2-1.6c0.5-0.5,1.7-0.5,2.1,0.1c0.1,0.1,0.1,0.1,0.1,0.2c-0.3,0.3-0.6,0.3-0.9,0
		c-0.2-0.1-0.5-0.1-0.7,0c-0.1,0-0.2,0.2-0.2,0.3s0.1,0.3,0.2,0.3c0.3,0.2,0.7,0.3,1,0.4c0.6,0.2,0.9,0.6,0.8,1.3
		c-0.1,0.4-0.6,0.8-1.1,0.8C30.7,61.6,30.1,61.4,29.7,60.7z"/>
	<path fill="#6A6A6A" d="M34.1,58.4c-0.4,0-0.7,0-1,0c0-0.2,0-0.4,0-0.6c0.9,0,1.8,0,2.7,0c0,0.2,0,0.4,0,0.6c-0.3,0-0.6,0-0.9,0
		c0,1,0,2,0,3c-0.2,0-0.5,0-0.7,0C34.1,60.4,34.1,59.5,34.1,58.4z"/>
	<path fill="#6A6A6A" d="M19.8,57.8c0,0.2,0,0.4,0,0.6c-0.3,0-0.7,0-1,0c0,1,0,2,0,3c-0.2,0-0.4,0-0.6,0c0-1,0-2,0-3
		c-0.4,0-0.7,0-1,0c0-0.2,0-0.4,0-0.6C18,57.8,18.9,57.8,19.8,57.8z"/>
	<path fill="#6A6A6A" d="M53.8,61.4c-0.2,0-0.4,0-0.6,0c0-1,0-2,0-3c-0.4,0-0.7,0-1.1,0c0-0.2,0-0.4,0-0.6c0.9,0,1.8,0,2.7,0
		c0,0.2,0,0.4,0,0.6c-0.3,0-0.7,0-1,0C53.8,59.4,53.8,60.4,53.8,61.4z"/>
</g>
</svg>
