<?xml version="1.0" encoding="utf-8"?>
<!-- Generator: Adobe Illustrator 17.1.0, SVG Export Plug-In . SVG Version: 6.00 Build 0)  -->
<!DOCTYPE svg PUBLIC "-//W3C//DTD SVG 1.1//EN" "http://www.w3.org/Graphics/SVG/1.1/DTD/svg11.dtd">
<svg version="1.1" id="Layer_1" xmlns="http://www.w3.org/2000/svg" xmlns:xlink="http://www.w3.org/1999/xlink" x="0px" y="0px"
	 viewBox="0 22 144 100" enable-background="new 0 22 144 100" xml:space="preserve">
<g>
	<path fill="#6A6A6A" d="M49.6,70.8c-1.5,3.6-3,7-4.5,10.5c-0.1,0-0.2,0-0.3,0c-2-4.9-4.1-9.7-6.2-14.8c-0.2,0.4-0.4,0.7-0.5,1
		c-3.1,6.4-6.3,12.8-9.4,19.2c-0.3,0.7-0.7,1-1.5,0.9s-1.6,0-2.6,0c0.3-0.7,0.5-1.2,0.8-1.7c0.9-1.9,1.9-3.8,2.8-5.8
		c0.2-0.4,0.2-0.9,0-1.3c-1.5-3.9-3.1-7.8-4.6-11.7c-0.1-0.3-0.2-0.5-0.3-0.9c1.3,0,2.4,0,3.6,0c0.2,0,0.4,0.4,0.5,0.6
		c1.1,3,2.1,6,3.1,8.9c1.3-2.7,2.6-5.5,3.8-8.4c0.4-0.9,0.8-1.2,1.8-1.2c1.5,0.1,3.1,0.1,4.6,0c0.5,0,0.8,0.2,1,0.7
		c1,2.7,2.1,5.4,3.2,8.1c0,0.1,0.1,0.2,0.2,0.5c1-2.5,2.1-4.8,3.1-7.2c0.3-0.6,0.5-1.3,0.8-1.9c0.1-0.3,0.4-0.5,0.6-0.7
		c0.2,0.2,0.4,0.4,0.5,0.7c1.2,2.8,2.3,5.6,3.5,8.4c0.1,0.2,0.2,0.4,0.3,0.7c0.6-1.6,1.2-3,1.8-4.5c0.6-1.4,1.1-2.8,1.7-4.2
		c0.1-0.3,0.5-0.5,0.8-0.6c0.7-0.1,1.5,0,2.4,0c-2.1,5.1-4.2,10.1-6.3,15.1c-0.1,0-0.2,0-0.3,0C52.6,77.8,51.1,74.4,49.6,70.8z"/>
	<path fill="#6A6A6A" d="M12.8,68.3c1.2-1.5,2.6-2.5,4.5-2.7c2.9-0.3,5.7,1,5.6,4.5c-0.1,3.4,0,6.7,0,10.1c0,0.1,0,0.3-0.1,0.5
		c-1.1,0-2.2,0-3.5,0c0-0.4,0-0.8,0-1.1c-0.1-2.9,0-5.8-0.2-8.7c-0.1-1.6-0.7-2-2.1-2.3c-1.5-0.2-2.9,0.4-3.3,1.6
		c-0.4,1.1-0.6,2.4-0.6,3.6c-0.1,2,0,4,0,6.1c0,0.3,0,0.6,0,0.9c-1.2,0-2.3,0-3.6,0c0-0.4,0-0.7,0-1c0-2.3,0-4.6,0-6.9
		c0-0.6-0.1-1.2-0.1-1.8c-0.3-2.6-2.4-2.8-3.9-2.2c-1.4,0.6-2.1,1.7-2.1,3.2c0,2.6-0.1,5.1,0,7.7c0,0.8-0.2,1.1-1,1s-1.6,0-2.5,0
		c0-4.9,0-9.7,0-14.7c1,0,1.9,0,2.9,0c0.1,0,0.3,0.3,0.3,0.5c0.1,0.4,0,0.8,0,1.5c1.3-1.8,3-2.6,5-2.6
		C10.2,65.6,11.8,66.3,12.8,68.3z"/>
	<path fill="#6A6A6A" d="M141.4,67.9c0-0.6,0-1.1,0-1.7c0.9,0,1.7,0,2.5,0c0,0.3,0,0.5,0,0.7c0,4.8-0.1,9.6,0,14.3
		c0.1,3.4-2.1,5.3-4.6,5.8c-2.4,0.5-4.7,0.5-6.8-0.8c-1.8-1-2.5-2.6-2.5-4.7c1,0,1.9,0,2.8,0l0.1,0.1c0.2,2.5,1.7,3.2,3.8,3.2
		c0.9,0,1.8-0.1,2.7-0.4c1.2-0.4,1.9-1.4,2-2.7c0.1-1.1,0.2-2.3,0.2-3.5c-0.2,0.1-0.3,0.1-0.3,0.2c-2.5,3.7-8.8,3.2-10.9-1.3
		c-1.1-2.5-1.1-7.4,1.2-9.7C133.7,65.3,138.7,64.5,141.4,67.9z M137,68.2c-2.2-0.1-3.9,1-4.4,3.2c-0.2,1-0.2,2.1-0.1,3.2
		c0.2,2.1,1.7,3.5,3.9,3.8c2,0.3,3.8-0.7,4.5-2.6c0.2-0.6,0.4-1.3,0.5-2C141.6,71.1,140.3,68.3,137,68.2z"/>
	<path fill="#6A6A6A" d="M86.6,67.9c0-3.8,0-7.6,0-11.5c0.9,0,1.7,0,2.5,0c0,8,0,15.9,0,24c-0.8,0-1.6,0-2.5,0c0-0.6,0-1.2,0-1.9
		c-0.2,0.2-0.3,0.3-0.4,0.4C84,82,79.1,81.6,76.8,79c-1.2-1.4-1.8-3-1.9-4.8s0-3.6,0.9-5.2c1.8-3.4,6.4-4.6,9.4-2.3
		C85.6,67.1,86.1,67.4,86.6,67.9z M86.7,73.3c-0.1-0.6-0.1-1.1-0.3-1.7c-0.5-1.7-1.6-3-3.4-3.3c-1.7-0.3-3.3,0-4.4,1.4
		c-1.2,1.5-1.1,3.3-0.8,5c0.6,2.9,3.1,4.3,5.9,3.4C85.6,77.6,86.7,75.8,86.7,73.3z"/>
	<path fill="#6A6A6A" d="M105.5,80.4c-0.8,0-1.6,0-2.4,0c0-0.6,0-1.3,0-2.1c-0.9,1.3-2,2.2-3.3,2.6c-3.1,0.8-6.2-0.3-7.7-3.4
		c-1.3-2.9-1.3-5.9,0.3-8.8c2.1-3.8,8.1-4.1,10.3-0.8c0,0.1,0.1,0.1,0.3,0.2c0-3.9,0-7.8,0-11.7c0.9,0,1.7,0,2.6,0
		C105.5,64.4,105.5,72.4,105.5,80.4z M94,73.1c0,0.5,0.1,1,0.1,1.4c0.5,3.1,3.1,4.7,6,3.6c1.9-0.7,2.6-2.2,2.8-4
		c0.3-2.2-0.7-4.5-2.3-5.4C97.4,67,94,69.2,94,73.1z"/>
	<path fill="#6A6A6A" d="M74.1,73.8c-3.8,0-7.4,0-11,0c-0.6,2.6,1.8,5.2,4.5,5c1.8-0.1,3-1,3.9-2.5c0.3-0.6,0.6-0.6,1.1-0.2
		c1.5,1,1.6,1,0.3,2.5c-2.1,2.5-4.9,3-7.9,2.2c-2.9-0.8-4.5-2.9-5-5.8c-0.5-2.7-0.1-5.2,1.9-7.3c2.1-2.2,4.8-2.6,7.6-1.8
		c2.7,0.8,4,2.9,4.3,5.6C74.1,72.2,74.1,72.9,74.1,73.8z M63.1,71.5c2.7,0,5.4,0,8,0c-0.1-2.3-1.8-3.7-4.2-3.6
		C64.8,68,63,69.6,63.1,71.5z"/>
	<path fill="#6A6A6A" d="M117.3,80.4c-0.9,0-1.7,0-2.5,0c0-4.7,0-9.4,0-14.2c0.8,0,1.6,0,2.5,0c0,0.5,0,1,0,1.8
		c1.5-1.8,3.3-2.5,5.3-2.4c3.2,0.1,5.2,2,5.1,5.2c-0.1,2.9,0,5.7,0,8.6c0,0.3,0,0.6,0,1c-0.9,0-1.7,0-2.7,0c0-0.3,0-0.6,0-0.9
		c0-2.6,0-5.3-0.1-7.9c-0.1-2.2-1.1-3.3-3-3.6c-2-0.2-4,0.9-4.4,2.7c-0.2,1-0.2,2.1-0.3,3.2C117.3,76,117.3,78.1,117.3,80.4z"/>
	<path fill="#6A6A6A" d="M111.3,66.2c0,4.7,0,9.4,0,14.1c-0.8,0-1.6,0-2.4,0c0-4.7,0-9.4,0-14.1C109.7,66.2,110.5,66.2,111.3,66.2z"
		/>
	<path fill="#6A6A6A" d="M110.1,61.3c-1.1,0-1.9-0.8-1.9-1.9c0-1,0.8-1.9,1.9-1.9c1,0,1.9,0.8,1.9,1.9
		C111.9,60.6,111.2,61.3,110.1,61.3z"/>
</g>
</svg>
