<?xml version="1.0" encoding="utf-8"?>
<!-- Generator: Adobe Illustrator 17.1.0, SVG Export Plug-In . SVG Version: 6.00 Build 0)  -->
<!DOCTYPE svg PUBLIC "-//W3C//DTD SVG 1.1//EN" "http://www.w3.org/Graphics/SVG/1.1/DTD/svg11.dtd">
<svg version="1.1" id="Layer_1" xmlns="http://www.w3.org/2000/svg" xmlns:xlink="http://www.w3.org/1999/xlink" x="0px" y="0px"
	 viewBox="0 0 100 100" enable-background="new 0 0 100 100" xml:space="preserve">
<path fill="#676A6F" d="M76.9,100c-2.9,0-29.9-0.8-52.3-26.1C2.5,49.1,2.3,18.1,4.7,13.3c2.9-5.6,8.5-9.6,11.7-11.7
	c0.8-0.8,1.9-1.1,3.2-1.3C20.1,0,20.9,0,21.7,0c3.7,0,6.7,2.1,8.5,3.2l1.1,0.5c4.8,2.7,7.5,23.5,7.5,24.3c-0.3,3.7-3.2,6.4-8.8,11.5
	c0,0-0.3,0.3,0,0.3c2.4,5.9,7.2,13.1,10.9,17.1c4,4.5,11.5,10.9,16.8,14.1l0,0H58c5.1-4.3,7.7-6.7,10.7-7.2l1.6-0.3h0.3
	c0.8,0,21.1,5.1,23.2,10.4l0.5,0.8c1.3,2.7,4.3,8.8,0,14.1c-1.9,2.4-6.9,8-13.1,10.1l-1.1,0.3C79.1,99.7,77.7,100,76.9,100z
	 M21.7,5.3c-0.5,0-0.8,0-1.1,0c-0.5,0.3-1.1,0.5-1.6,0.8c-2.1,1.3-7.5,5.1-9.6,9.6c-0.8,2.1-2.4,30.1,19.2,54.7
	c20.8,23.5,45.6,24.3,48.3,24.3c1.1,0,1.9,0,2.1,0h0.3c5.1-1.9,9.3-6.9,10.7-8.5c2.1-2.4,0.8-5.6-0.5-8.5l-0.5-1.1
	c-1.6-2.1-15.7-6.7-18.7-7.5h-0.8c-1.3,0.3-3.7,2.4-7.7,5.9c-1.9,1.6-4.3,1.9-6.4,0.8C48.4,72,40.7,64.5,37.2,60.5
	c-4.3-4.3-9.6-11.7-12.3-18.7c-0.8-2.1-0.3-4.5,1.3-6.1c4.3-3.7,6.9-6.4,7.2-8c0-2.4-3.2-17.6-5.1-19.5l-1.1-0.5
	C26,6.7,23.9,5.3,21.7,5.3z"/>
</svg>
