<?xml version="1.0" encoding="utf-8"?>
<!-- Generator: Adobe Illustrator 17.1.0, SVG Export Plug-In . SVG Version: 6.00 Build 0)  -->
<!DOCTYPE svg PUBLIC "-//W3C//DTD SVG 1.1//EN" "http://www.w3.org/Graphics/SVG/1.1/DTD/svg11.dtd">
<svg version="1.1" id="Layer_1" xmlns="http://www.w3.org/2000/svg" xmlns:xlink="http://www.w3.org/1999/xlink" x="0px" y="0px"
	 viewBox="0 0 34.8 37.5" enable-background="new 0 0 34.8 37.5" xml:space="preserve">
<path fill="#FFFFFF" d="M27.5,37.5c-1.1,0-11.2-0.3-19.6-9.8C-0.4,18.4-0.5,6.8,0.4,5c1.1-2.1,3.2-3.6,4.4-4.4
	C5.1,0.3,5.5,0.2,6,0.1C6.2,0,6.5,0,6.8,0C8.2,0,9.3,0.8,10,1.2l0.4,0.2c1.8,1,2.8,8.8,2.8,9.1c-0.1,1.4-1.2,2.4-3.3,4.3
	c0,0-0.1,0.1,0,0.1c0.9,2.2,2.7,4.9,4.1,6.4c1.5,1.7,4.3,4.1,6.3,5.3l0,0l0.1,0c1.9-1.6,2.9-2.5,4-2.7l0.6-0.1l0.1,0
	c0.3,0,7.9,1.9,8.7,3.9l0.2,0.3c0.5,1,1.6,3.3,0,5.3c-0.7,0.9-2.6,3-4.9,3.8l-0.4,0.1C28.3,37.4,27.8,37.5,27.5,37.5z M6.8,2
	C6.6,2,6.5,2,6.4,2C6.2,2.1,6,2.2,5.8,2.3C5,2.8,3,4.2,2.2,5.9C1.9,6.7,1.3,17.2,9.4,26.4c7.8,8.8,17.1,9.1,18.1,9.1
	c0.4,0,0.7,0,0.8,0l0.1,0c1.9-0.7,3.5-2.6,4-3.2c0.8-0.9,0.3-2.1-0.2-3.2L32,28.7c-0.6-0.8-5.9-2.5-7-2.8l-0.3,0
	c-0.5,0.1-1.4,0.9-2.9,2.2c-0.7,0.6-1.6,0.7-2.4,0.3c-2.6-1.4-5.5-4.2-6.8-5.7C11,21.1,9,18.3,8,15.7c-0.3-0.8-0.1-1.7,0.5-2.3
	c1.6-1.4,2.6-2.4,2.7-3c0-0.9-1.2-6.6-1.9-7.3L8.9,2.9C8.4,2.5,7.6,2,6.8,2z"/>
</svg>
