<?xml version="1.0" encoding="utf-8"?>
<!-- Generator: Adobe Illustrator 17.1.0, SVG Export Plug-In . SVG Version: 6.00 Build 0)  -->
<!DOCTYPE svg PUBLIC "-//W3C//DTD SVG 1.1//EN" "http://www.w3.org/Graphics/SVG/1.1/DTD/svg11.dtd">
<svg version="1.1" id="Layer_1" xmlns="http://www.w3.org/2000/svg" xmlns:xlink="http://www.w3.org/1999/xlink" x="0px" y="0px"
	 viewBox="0 22 144 100" enable-background="new 0 22 144 100" xml:space="preserve">
<g>
	<path fill="#6A6A6A" d="M0,60.7c0.6-1.3,1.6-2.1,3.1-2c1.2,0.1,2.1,0.7,2.5,1.7c0.5,1.1,0.3,2.2-0.5,3.1C5,63.7,4.8,63.9,4.7,64
		c2.4,2.7,3.9,6,5,9.4c0-1.5,0-3,0-4.4c0-1.1,0-1.1,1.2-0.9c0,1.8,0,3.7,0,5.5c1.1-3.5,2.6-6.7,5-9.5c-0.2-0.2-0.4-0.4-0.5-0.7
		c-0.8-1.1-0.8-2.6,0-3.6c0.9-1.1,2.3-1.4,3.5-0.8c1.2,0.6,1.9,1.9,1.6,3.2s-1.4,2.2-2.8,2.3c-0.4,0-0.9,0.2-1.1,0.5
		c-2.8,3.2-4.2,7-5,11.1c-0.4,2-0.6,4-0.9,6.1c-1,0.2-1.1,0.2-1.2-0.9C9.3,76.7,8.4,72.2,6,68c-0.6-1.1-1.5-2.1-2.2-3.1
		c-0.1-0.2-0.4-0.3-0.6-0.3c-1.6,0.1-2.6-0.7-3.2-2C0,61.9,0,61.3,0,60.7z"/>
	<path fill="#6A6A6A" d="M144,80.9c-1.1,1.5-2.5,2.5-4.5,2.4c-2.6,0-4.5-1.7-4.7-4.3c-0.1-0.7-0.1-1.5,0.1-2.2
		c0.7-3.6,3.8-4.4,6.4-3.6c1.3,0.4,2,1.4,2.5,2.6c0.1,0.3,0.2,0.5,0.3,0.8c0,0.6,0,1.2,0,1.8c-2.4,0-4.8,0-7.3,0
		c0,1.4,0.7,2.5,1.8,2.9c1.8,0.7,3-0.2,3.9-1.7c0.6,0.3,1,0.6,1.5,0.9C144,80.7,144,80.8,144,80.9z M142,77
		c-0.2-1.5-1.2-2.3-2.6-2.3c-1.3,0-2.4,1-2.6,2.3c1.4,0,2.8,0,4.2,0C141.4,77,141.7,77,142,77z"/>
	<path fill="#6A6A6A" d="M11.2,55.6c1.7,0.9,2.4,2.2,1.9,3.7c-0.4,1.3-1.5,2.2-2.9,2.1c-1.4,0-2.4-0.9-2.8-2.2
		c-0.3-1.3,0.3-2.6,1.4-3.3c0.2-0.1,0.3-0.2,0.5-0.3C10,55.6,10.6,55.6,11.2,55.6z"/>
	<path fill="#6A6A6A" d="M116.8,78.4c1.1-2.9,2.2-5.6,3.3-8.4c0.3-0.7,0.6-1.3,0.8-2c0.2-0.5,0.4-0.6,0.9-0.6s1,0,1.6,0
		c-2.2,5.5-4.3,10.8-6.6,16.4c-1.5-3.9-2.9-7.6-4.4-11.4c-0.9,2.2-1.7,4.3-2.5,6.4c-0.5,1.4-1.1,2.8-1.6,4.1
		c-0.1,0.2-0.2,0.3-0.4,0.4c-0.1-0.1-0.2-0.2-0.3-0.4c-2-5.1-4.1-10.2-6.1-15.2c0-0.1,0-0.1,0-0.3c0.6,0,1.2-0.1,1.9,0
		c0.2,0,0.4,0.4,0.5,0.6c1.2,3,2.4,6.1,3.6,9.1c0.1,0.4,0.3,0.7,0.5,1.2c1.5-3.8,2.9-7.4,4.3-11.1c0.1,0,0.2,0,0.3,0
		C113.9,71,115.3,74.6,116.8,78.4z"/>
	<path fill="#6A6A6A" d="M45.3,67.4c-0.3,1-0.7,2-1,3.1c-1.3,4-2.6,8-3.9,11.9c-0.1,0.2-0.3,0.4-0.4,0.6c-0.2-0.2-0.3-0.4-0.4-0.6
		c-1.8-4.2-3.5-8.4-5.2-12.6c-0.1-0.2-0.2-0.3-0.3-0.6c-2,4.8-3.9,9.5-5.8,14.1c-0.1,0-0.1,0-0.2,0c-1.7-5.3-3.4-10.6-5.2-15.9
		c0.7-0.3,1.1-0.1,1.3,0.7c1.2,3.9,2.6,7.8,3.8,11.7c0.1,0.2,0.1,0.4,0.3,0.8c0.8-1.9,1.5-3.7,2.2-5.5c1.1-2.6,2.1-5.1,3.2-7.6
		c0.1-0.2,0.3-0.4,0.4-0.5c0.1,0.2,0.3,0.4,0.4,0.6c1.7,4.1,3.4,8.3,5.1,12.4c0.1,0.2,0.2,0.4,0.3,0.7c0.6-1.8,1.1-3.5,1.7-5.2
		c0.8-2.4,1.6-4.9,2.3-7.3C44.1,67.3,44.5,67.1,45.3,67.4z"/>
	<path fill="#6A6A6A" d="M91.2,84.3c0.7-0.2,1-0.1,1.2,0.6c0.3,1.4,1.6,2.4,3.3,2.5c1.6,0.1,3.1-0.7,3.6-2.2
		c0.4-1.2,0.4-2.4,0.5-3.7c-2.9,2.1-5.5,2.1-7.3,0s-1.6-5.5,0.3-7.3s4.7-1.6,6.8,0.4c0-0.5,0-0.9,0.1-1.4c0.3,0,0.6,0,1,0
		c0,0.1,0.1,0.2,0.1,0.2c0,3.4,0,6.8-0.1,10.3c0,1.9-0.9,3.4-2.8,4.1c-1.6,0.6-3.4,0.6-4.9-0.4C91.8,86.8,91.2,85.7,91.2,84.3z
		 M99.8,78.1c0-2.2-1.5-3.9-3.7-4c-2.1,0-3.7,1.7-3.8,4c0,2.3,1.6,4.1,3.7,4.1C98.2,82.2,99.7,80.5,99.8,78.1z"/>
	<path fill="#6A6A6A" d="M63,74.8c0-3.1,0-6,0-8.9c0.4,0,0.7,0,1,0c0,5.7,0,11.3,0,17.1c-0.3,0-0.6,0-1,0c0-0.4-0.1-0.8-0.1-1.3
		c-2.9,2.1-5.5,2-7.2-0.1c-1.6-1.9-1.5-5.4,0.3-7.1C57.4,73,60.6,72.3,63,74.8z M63.1,78.1c0-2.3-1.5-4-3.7-4c-2,0-3.7,1.7-3.7,3.9
		c0,2.3,1.6,4.1,3.7,4.1C61.5,82.2,63,80.5,63.1,78.1z"/>
	<path fill="#6A6A6A" d="M74.2,74.8c0-3.1,0-6,0-9c0.3,0,0.6,0,1,0c0,5.7,0,11.3,0,17.1c-0.3,0-0.6,0-1,0c0-0.5,0-0.9,0-1.5
		c-1.2,1.4-2.5,1.9-4.1,1.8c-1.2-0.1-2.3-0.6-3.1-1.6c-1.7-2-1.6-5.5,0.3-7.3C69.1,72.6,72.1,72.7,74.2,74.8z M74.3,78.1
		c0-2.2-1.5-3.9-3.7-4c-2,0-3.7,1.7-3.8,3.9c-0.1,2.3,1.6,4.2,3.7,4.2C72.7,82.2,74.2,80.5,74.3,78.1z"/>
	<path fill="#6A6A6A" d="M45.5,78.3c-0.2,1.6,0.7,3.1,2.2,3.7c1.8,0.7,3.3,0.2,5-1.9c0.2,0.1,0.5,0.3,0.7,0.4
		c-0.6,1.7-2.6,2.9-4.7,2.7c-1.9-0.2-3.3-1.3-3.9-3.1c-0.7-2.1-0.5-4,1.1-5.7c1.4-1.4,3.1-1.6,4.9-1c1.9,0.6,3.1,2.8,2.9,4.9
		C51,78.3,48.3,78.3,45.5,78.3z M52.6,77.3c-0.1-1.8-1.7-3.2-3.5-3.2c-1.9,0-3.5,1.4-3.6,3.2C47.9,77.3,50.2,77.3,52.6,77.3z"/>
	<path fill="#6A6A6A" d="M128.8,73.4c0.7,0,1.3,0,1.9,0c0,0.4,0,0.8,0,1.1c0.6-0.4,1.2-1,1.9-1.3s1.6-0.2,2.3,0.4
		c-0.3,0.5-0.5,1.1-0.8,1.6c-1.9-0.8-3.3,0.1-3.4,2.3c0,1.6,0,3.3,0,4.9c0,0.6-0.2,0.8-0.7,0.7c-0.2,0-0.5,0.1-0.7,0
		s-0.5-0.3-0.5-0.5C128.8,79.5,128.8,76.5,128.8,73.4z"/>
	<path fill="#6A6A6A" d="M83.4,83c-0.4,0-0.7,0-1,0c0-3.2,0-6.4,0-9.6c0.3,0,0.6,0,0.9,0c0,0.4,0,0.7,0,1.3c1-1.4,2.2-1.8,3.7-1.5
		c1.1,0.2,1.8,0.8,2.2,1.8c0.1,0.3,0.2,0.6,0.2,1c0,2.3,0,4.6,0,7c-0.3,0-0.6,0-1,0c0-0.3,0-0.5,0-0.8c0-1.9,0-3.8,0-5.7
		c0-1.5-0.6-2.2-1.8-2.4c-1.4-0.2-2.5,0.5-2.8,1.9c-0.2,0.8-0.3,1.7-0.3,2.6C83.3,80,83.4,81.5,83.4,83z"/>
	<path fill="#6A6A6A" d="M124.3,73.4c0.6,0,1.2,0,1.8,0c0,0.2,0,0.4,0,0.6c0,2.7,0,5.5,0,8.2c0,0.6-0.1,0.8-0.7,0.8
		c-0.2,0-0.5,0.1-0.7,0s-0.5-0.3-0.5-0.5C124.3,79.5,124.3,76.5,124.3,73.4z"/>
	<path fill="#6A6A6A" d="M12.7,64.5c0,1.3-1.1,2.4-2.4,2.4s-2.4-1-2.4-2.4c0-1.3,1-2.4,2.4-2.4C11.6,62.2,12.7,63.2,12.7,64.5z"/>
	<path fill="#6A6A6A" d="M78.3,73.3c0.3,0,0.6,0,0.9,0c0,3.2,0,6.4,0,9.6c-0.3,0-0.6,0-0.9,0C78.3,79.8,78.3,76.6,78.3,73.3z"/>
	<path fill="#6A6A6A" d="M126.5,68.9c0,0.8-0.6,1.3-1.3,1.3c-0.8,0-1.3-0.6-1.3-1.3c0-0.8,0.6-1.4,1.4-1.4
		C126,67.6,126.6,68.2,126.5,68.9z"/>
	<path fill="#6A6A6A" d="M78.7,71.2c-0.3-0.3-0.6-0.6-0.7-1c-0.1-0.5,0.3-0.9,0.8-0.9c0.6,0,1,0.4,0.9,0.9c0,0.4-0.4,0.7-0.7,1
		C78.9,71.2,78.8,71.2,78.7,71.2z"/>
</g>
</svg>
